<svg xmlns="http://www.w3.org/2000/svg" xmlns:xlink="http://www.w3.org/1999/xlink" width="297" height="370" viewBox="0 0 297 370">
    <defs>
        <path id="prefix__a" d="M0 0H297V370H0z"/>
        <path id="prefix__c" d="M0.063 0.458L73.793 0.458 73.793 46.992 0.063 46.992z"/>
    </defs>
    <g fill="none" fill-rule="evenodd">
        <mask id="prefix__b" fill="#fff">
            <use xlink:href="#prefix__a"/>
        </mask>
        <use fill="#B190FC" xlink:href="#prefix__a"/>
        <g mask="url(#prefix__b)">
            <g>
                <path fill="#CCB5FF" d="M9 227L132 227 132 6 9 6z" transform="translate(33 17)"/>
                <path fill="#F6E8FF" d="M14 220L126 220 126 12 14 12z" transform="translate(33 17)"/>
                <path fill="#E3D7FF" d="M137 229L132 227.006 132 2 137 2z" transform="translate(33 17)"/>
                <g>
                    <path fill="#EBD4F9" d="M41.196 146.571l29.029-26.97c3.678-3.418 8.486-7.099 13.217-5.415 2.277.81 3.988 2.753 6.218 3.681 4.458 1.856 9.548-.823 12.975-4.223 3.426-3.4 6.132-7.652 10.283-10.116 4.151-2.465 10.601-2.152 12.653 2.217v29.353l-42.187 18.054-42.188-6.58z" transform="translate(33 17)"/>
                    <path fill="#E8BFE8" d="M13.793 129.7c10.697-4.354 21.372-.653 29.029 7.991 1.612 1.82 3.079 3.921 5.293 4.925 2.999 1.36 6.463.342 9.735-.028 8.94-1.013 18.28 3.512 23.025 11.155L45.16 171.302l-31.367-.228v-41.373z" transform="translate(33 17)"/>
                    <path fill="#D5B2EA" d="M125.571 129.846c-7.045-3.4-13.248.714-19.747 5.067-6.5 4.354-12.54 9.936-20.165 11.69-5.095 1.172-10.554.522-15.478 2.275-10.035 3.571-15.836 16.307-26.47 16.915-5.774.33-10.953-3.17-16.106-5.793-5.153-2.626-9.217-5.118-13.812-1.607v61.696H125.57v-90.243z" transform="translate(33 17)"/>
                    <path fill="#CCB5FF" d="M13.793 74.388L127.999 74.388 127.999 72.177 13.793 72.177zM13.793 123.837L127.999 123.837 127.999 121.626 13.793 121.626zM13.793 173.285L127.999 173.285 127.999 171.074 13.793 171.074z" transform="translate(33 17)"/>
                    <path fill="#CCB5FF" d="M66.858 225.976L72.506 225.976 72.506 73.283 66.858 73.283zM35.316 72.839L37.875 72.839 37.875 12 35.316 12zM57.383 72.839L59.941 72.839 59.941 12 57.383 12zM79.448 72.839L82.007 72.839 82.007 12 79.448 12zM101.514 72.839L104.073 72.839 104.073 12 101.514 12z" transform="translate(33 17)"/>
                    <path fill="#E3D7FF" d="M3.687 228.026L8.883 228.026 8.883 2.305 3.687 2.305z" transform="translate(33 17)"/>
                    <path fill="#E3D7FF" d="M3.686 6.046L136.943 6.046 136.943.027 3.686.027zM0 235L140.46 235 140.46 229.392 0 229.392z" transform="translate(33 17)"/>
                    <path fill="#ECECEC" d="M131.747 226.661L140.461 229.392 0 229.392 8.883 226.661z" transform="translate(33 17)"/>
                    <path fill="#CCB5FF" d="M184.455 153.041L280.098 153.041 280.098 29.075 184.455 29.075z" transform="translate(33 17)"/>
                    <path fill="#E1E1E1" d="M190.976 123.162s.175-.05.478.072c.29.123.696.47.832 1.082.07.298.052.673-.135 1.007-.178.337-.504.633-.92.788-.411.159-.93.177-1.391-.045-.463-.212-.849-.617-1.095-1.113-.518-1.008-.323-2.357.368-3.433.346-.54.824-1.047 1.462-1.351.316-.153.677-.24 1.047-.227.37.015.737.142 1.052.344.629.42 1.045 1.085 1.318 1.786.272.71.406 1.47.457 2.249.09 1.556-.269 3.205-1.102 4.636-.818 1.44-1.913 2.619-2.862 3.81-.954 1.184-1.78 2.423-2.167 3.753-.378 1.318-.319 2.717.244 3.796.536 1.105 1.685 1.682 2.709 1.662.512-.012.995-.161 1.367-.432.37-.273.624-.643.724-1.036.195-.794-.042-1.542-.366-2.01-.317-.497-.756-.707-1.05-.768-.15-.038-.267-.036-.347-.033-.08-.001-.122-.004-.123-.009 0-.005.04-.013.12-.023.082-.013.203-.026.363.002.309.043.789.25 1.137.76.355.486.629 1.258.436 2.125-.1.43-.377.851-.776 1.152-.402.304-.929.474-1.48.494-.552.007-1.137-.118-1.663-.42-.534-.285-.982-.773-1.281-1.342-.611-1.152-.677-2.616-.292-3.998.398-1.392 1.245-2.666 2.204-3.865.956-1.204 2.038-2.374 2.83-3.772.805-1.385 1.149-2.963 1.068-4.465-.046-.748-.176-1.49-.43-2.158-.254-.665-.646-1.282-1.196-1.652-.55-.375-1.257-.392-1.824-.11-.576.269-1.032.737-1.36 1.242-.664 1.015-.85 2.27-.387 3.196.22.46.569.834.98 1.03.407.204.867.197 1.245.06.381-.133.682-.395.85-.695.176-.298.203-.63.147-.91-.108-.574-.475-.917-.74-1.05-.277-.133-.453-.109-.45-.13M191.815 111.882s-.174.05-.477-.071c-.29-.124-.697-.471-.832-1.084-.07-.297-.052-.672.135-1.007.178-.336.504-.632.92-.787.411-.159.93-.177 1.391.045.463.212.849.617 1.094 1.113.519 1.008.323 2.357-.367 3.432-.346.542-.825 1.048-1.462 1.352-.316.153-.678.24-1.048.227-.37-.015-.736-.141-1.05-.344-.63-.42-1.046-1.085-1.32-1.786-.271-.71-.405-1.47-.456-2.249-.09-1.555.269-3.205 1.102-4.636.817-1.44 1.913-2.62 2.862-3.81.954-1.184 1.78-2.422 2.167-3.753.377-1.319.318-2.717-.244-3.796-.537-1.105-1.686-1.681-2.709-1.662-.512.012-.995.161-1.367.432-.37.273-.624.644-.724 1.036-.195.794.042 1.542.366 2.01.316.497.756.707 1.05.769.15.037.267.035.347.032.08 0 .122.004.123.01 0 .004-.04.012-.121.022-.08.013-.202.027-.362-.002-.31-.043-.79-.25-1.137-.761-.356-.485-.629-1.257-.436-2.123.1-.43.377-.852.776-1.154.402-.302.928-.473 1.48-.493.552-.007 1.137.118 1.662.42.535.284.983.773 1.282 1.342.611 1.152.677 2.616.292 3.997-.398 1.393-1.246 2.667-2.205 3.866-.955 1.204-2.037 2.374-2.83 3.772-.805 1.385-1.148 2.963-1.067 4.465.046.748.176 1.49.43 2.158.253.665.646 1.282 1.196 1.652.55.375 1.256.393 1.823.109.576-.268 1.033-.736 1.36-1.241.665-1.015.85-2.27.388-3.196-.22-.46-.57-.834-.98-1.03-.408-.204-.867-.198-1.245-.06-.382.133-.682.395-.85.694-.176.299-.203.632-.147.911.108.573.475.916.74 1.05.277.133.453.108.45.129M192.366 117.3c0 .535-.435.97-.973.97-.537 0-.972-.435-.972-.97 0-.537.435-.973.972-.973.538 0 .973.436.973.972M192.789 91.4c0 .537-.435.971-.972.971-.537 0-.972-.434-.972-.971 0-.537.435-.971.972-.971.537 0 .972.434.972.97M191.4 59.537c-.002-.02.173.005.452-.129.264-.134.63-.479.738-1.053.056-.28.029-.613-.147-.913-.168-.3-.468-.563-.85-.697-.379-.137-.84-.143-1.247.062-.411.198-.76.574-.979 1.035-.461.928-.275 2.184.39 3.202.327.507.784.977 1.36 1.245.568.284 1.276.265 1.826-.112.55-.374.941-.992 1.195-1.659.252-.67.382-1.412.427-2.162.081-1.505-.263-3.086-1.067-4.474-.792-1.402-1.874-2.575-2.83-3.783-.96-1.201-1.806-2.479-2.204-3.874-.385-1.383-.32-2.849.289-4.004.297-.571.745-1.062 1.28-1.35.526-.302 1.111-.43 1.664-.422.553.019 1.08.191 1.483.494.4.303.675.725.775 1.156.193.868-.08 1.641-.434 2.128-.348.512-.828.72-1.139.764-.16.03-.281.017-.362.003-.08-.01-.121-.018-.12-.024 0-.005.043-.008.122-.008.08.003.198.005.348-.033.294-.062.734-.273 1.05-.772.324-.47.56-1.22.365-2.014-.1-.394-.353-.765-.724-1.04-.372-.27-.856-.42-1.369-.432-1.026-.02-2.175.563-2.71 1.67-.56 1.083-.618 2.483-.24 3.805.388 1.333 1.213 2.574 2.167 3.762.949 1.194 2.045 2.377 2.862 3.82.833 1.435 1.19 3.087 1.1 4.645-.05.78-.182 1.54-.454 2.253-.272.703-.687 1.369-1.315 1.792-.315.205-.682.333-1.052.348-.37.013-.734-.073-1.05-.227-.639-.305-1.118-.812-1.464-1.355-.69-1.078-.885-2.428-.369-3.44.246-.496.63-.904 1.093-1.117.462-.223.982-.206 1.393-.046.418.155.744.453.922.79.186.334.205.71.134 1.008-.135.614-.541.963-.83 1.086-.305.123-.479.072-.479.072M191.692 70.848c.003.02-.173-.004-.451.13-.266.133-.631.478-.74 1.053-.054.28-.028.612.148.912.168.3.468.563.851.697.378.137.839.144 1.246-.062.412-.197.76-.573.98-1.034.46-.929.274-2.185-.39-3.203-.328-.506-.785-.976-1.36-1.245-.568-.284-1.277-.265-1.827.113-.55.373-.94.992-1.194 1.658-.253.67-.382 1.414-.427 2.162-.082 1.506.262 3.086 1.066 4.475.793 1.401 1.874 2.575 2.83 3.783.959 1.2 1.807 2.479 2.204 3.873.386 1.384.32 2.85-.288 4.005-.298.571-.746 1.062-1.28 1.349-.526.302-1.112.43-1.664.422-.553-.018-1.08-.19-1.483-.493-.4-.303-.677-.725-.775-1.157-.194-.868.079-1.64.434-2.128.347-.512.827-.721 1.138-.764.16-.028.281-.016.362-.002.08.01.122.018.12.023 0 .005-.043.008-.122.009-.08-.003-.198-.005-.349.033-.293.061-.733.273-1.049.771-.324.47-.56 1.22-.365 2.014.1.394.354.766.724 1.04.373.27.857.421 1.37.432 1.025.02 2.174-.562 2.709-1.67.56-1.083.618-2.483.241-3.805-.388-1.333-1.214-2.574-2.168-3.762-.948-1.194-2.044-2.376-2.862-3.82-.832-1.434-1.19-3.086-1.1-4.645.05-.78.182-1.54.454-2.252.273-.703.687-1.37 1.316-1.793.314-.204.682-.332 1.052-.348.37-.013.733.074 1.05.228.638.305 1.116.812 1.463 1.355.69 1.078.885 2.428.37 3.438-.246.497-.63.905-1.094 1.118-.461.223-.982.206-1.393.047-.418-.155-.743-.453-.921-.79-.186-.335-.206-.711-.135-1.008.135-.614.54-.964.831-1.087.304-.122.478-.072.478-.072M192.789 65.416c0-.538-.435-.974-.972-.974-.537 0-.972.436-.972.974s.435.974.972.974c.537 0 .972-.436.972-.974M225.633 146.125c-.02.003.005-.174-.129-.451-.134-.265-.48-.63-1.054-.739-.28-.055-.614-.028-.913.148-.3.167-.564.467-.698.85-.136.378-.143.838.063 1.246.197.41.573.758 1.035.978.929.461 2.186.275 3.204-.389.507-.328.977-.784 1.245-1.36.285-.568.266-1.275-.112-1.825-.373-.55-.992-.94-1.659-1.194-.67-.253-1.414-.382-2.164-.428-1.506-.08-3.087.263-4.477 1.067-1.4.792-2.575 1.872-3.783 2.829-1.203.958-2.481 1.805-3.876 2.203-1.384.385-2.85.32-4.006-.289-.572-.298-1.064-.744-1.35-1.28-.302-.525-.43-1.11-.422-1.662.019-.553.19-1.08.493-1.482.303-.4.726-.676 1.157-.776.869-.193 1.642.08 2.129.435.513.347.72.827.765 1.137.029.16.015.281.002.362-.01.08-.018.122-.024.12-.005 0-.007-.043-.008-.122.003-.08.005-.198-.033-.348-.062-.294-.274-.734-.772-1.05-.47-.323-1.22-.559-2.015-.364-.394.1-.766.354-1.04.724-.271.371-.422.856-.432 1.368-.021 1.026.562 2.174 1.671 2.708 1.082.56 2.483.618 3.805.24 1.334-.387 2.576-1.212 3.764-2.165 1.195-.95 2.378-2.044 3.822-2.86 1.436-.834 3.088-1.19 4.647-1.101.781.05 1.542.183 2.254.454.703.273 1.37.687 1.793 1.315.204.315.333.681.348 1.052.014.37-.073.733-.227 1.049-.306.638-.812 1.116-1.356 1.463-1.078.69-2.429.885-3.44.37-.497-.247-.904-.63-1.118-1.093-.224-.462-.207-.982-.047-1.393.155-.418.453-.743.79-.92.335-.187.712-.206 1.009-.136.615.135.964.541 1.087.831.122.304.072.478.072.478M252.845 145.833s.05.174-.073.478c-.122.29-.472.696-1.086.831-.297.07-.674.05-1.01-.135-.337-.178-.634-.504-.79-.92-.159-.412-.176-.932.047-1.394.214-.463.622-.847 1.119-1.092 1.01-.516 2.361-.32 3.44.369.543.346 1.05.825 1.356 1.463.154.316.24.679.226 1.05-.015.37-.143.736-.348 1.05-.423.629-1.09 1.043-1.792 1.316-.713.271-1.474.404-2.254.454-1.559.09-3.212-.267-4.647-1.1-1.444-.817-2.627-1.912-3.822-2.861-1.188-.953-2.43-1.779-3.764-2.166-1.322-.377-2.723-.319-3.806.241-1.108.534-1.691 1.682-1.67 2.708.01.512.16.997.432 1.368.274.37.646.624 1.04.724.795.195 1.544-.041 2.015-.365.498-.315.71-.755.772-1.049.038-.15.036-.268.033-.348 0-.08.003-.122.008-.122.006-.002.014.04.023.12.014.08.027.202-.002.362-.043.31-.252.79-.764 1.137-.487.355-1.26.628-2.13.435-.431-.1-.853-.376-1.156-.776-.304-.402-.475-.929-.494-1.482-.008-.552.12-1.137.423-1.663.286-.535.778-.982 1.35-1.28 1.155-.608 2.622-.673 4.006-.288 1.395.398 2.673 1.245 3.875 2.203 1.209.956 2.383 2.037 3.784 2.829 1.389.804 2.971 1.147 4.477 1.067.75-.046 1.493-.175 2.163-.428.667-.253 1.286-.644 1.659-1.194.378-.55.397-1.257.112-1.825-.267-.576-.738-1.032-1.245-1.36-1.018-.664-2.274-.85-3.204-.39-.461.22-.838.568-1.035.98-.205.407-.199.867-.062 1.246.134.381.397.682.697.85.3.175.633.202.914.147.574-.108.92-.474 1.053-.739.134-.277.11-.454.13-.451M231.514 144.737c-.538 0-.974.434-.974.971 0 .537.436.972.974.972.54 0 .976-.435.976-.972 0-.537-.437-.971-.976-.971M262.337 144.737c-.539 0-.975.434-.975.971 0 .537.436.972.975.972.539 0 .975-.435.975-.972 0-.537-.436-.971-.975-.971M202.216 144.737c-.538 0-.975.434-.975.971 0 .537.437.972.975.972s.975-.435.975-.972c0-.537-.437-.971-.975-.971M225.633 36.319c-.02.003.005-.174-.129-.451-.134-.266-.48-.631-1.054-.74-.28-.054-.614-.028-.913.148-.3.168-.564.468-.698.85-.136.378-.143.84.063 1.246.197.412.573.759 1.035.98.929.46 2.186.274 3.204-.39.507-.328.977-.784 1.245-1.36.285-.568.266-1.276-.112-1.825-.373-.55-.992-.941-1.659-1.194-.67-.254-1.414-.382-2.164-.428-1.506-.08-3.087.263-4.477 1.067-1.4.792-2.575 1.872-3.783 2.829-1.203.958-2.481 1.805-3.876 2.203-1.384.385-2.85.32-4.006-.289-.572-.298-1.064-.745-1.35-1.28-.302-.525-.43-1.11-.422-1.663.019-.552.19-1.08.493-1.482.303-.4.726-.676 1.157-.775.869-.193 1.642.08 2.129.434.513.348.72.828.765 1.138.029.16.015.281.002.362-.01.08-.018.12-.024.12-.005 0-.007-.043-.008-.122.003-.08.005-.198-.033-.349-.062-.293-.274-.733-.772-1.048-.47-.324-1.22-.56-2.015-.365-.394.1-.766.353-1.04.724-.271.371-.422.856-.432 1.368-.021 1.026.562 2.174 1.671 2.707 1.082.56 2.483.619 3.805.242 1.334-.388 2.576-1.213 3.764-2.166 1.195-.95 2.378-2.044 3.822-2.861 1.436-.833 3.088-1.19 4.647-1.1.781.05 1.542.183 2.254.454.703.273 1.37.687 1.793 1.315.204.315.333.681.348 1.051.014.371-.073.734-.227 1.05-.306.638-.812 1.116-1.356 1.463-1.078.69-2.429.885-3.44.369-.497-.246-.904-.63-1.118-1.093-.224-.462-.207-.981-.047-1.393.155-.417.453-.742.79-.92.335-.186.712-.205 1.009-.135.615.135.964.54 1.087.831.122.303.072.478.072.478M252.845 36.027s.05.174-.073.478c-.122.29-.472.695-1.086.83-.297.07-.674.052-1.01-.135-.337-.177-.634-.503-.79-.92-.159-.411-.176-.931.047-1.393.214-.463.622-.847 1.119-1.092 1.01-.516 2.361-.321 3.44.369.543.346 1.05.825 1.356 1.463.154.316.24.679.226 1.05-.015.37-.143.736-.348 1.05-.423.629-1.09 1.043-1.792 1.315-.713.272-1.474.405-2.254.455-1.559.09-3.212-.268-4.647-1.1-1.444-.818-2.627-1.912-3.822-2.861-1.188-.954-2.43-1.779-3.764-2.166-1.322-.377-2.723-.32-3.806.241-1.108.534-1.691 1.682-1.67 2.708.01.512.16.996.432 1.368.274.37.646.624 1.04.724.795.194 1.544-.041 2.015-.365.498-.316.71-.755.772-1.049.038-.15.036-.268.033-.348 0-.08.003-.122.008-.123.006 0 .014.04.023.12.014.082.027.203-.002.362-.043.311-.252.79-.764 1.138-.487.355-1.26.627-2.13.434-.431-.1-.853-.375-1.156-.775-.304-.402-.475-.93-.494-1.482-.008-.552.12-1.137.423-1.663.286-.535.778-.982 1.35-1.28 1.155-.609 2.622-.674 4.006-.288 1.395.398 2.673 1.245 3.875 2.203 1.209.956 2.383 2.037 3.784 2.828 1.389.805 2.971 1.148 4.477 1.068.75-.046 1.493-.175 2.163-.428.667-.253 1.286-.644 1.659-1.194.378-.55.397-1.257.112-1.825-.267-.576-.738-1.033-1.245-1.36-1.018-.664-2.274-.85-3.204-.39-.461.22-.838.568-1.035.98-.205.406-.199.867-.062 1.245.134.382.397.683.697.85.3.176.633.203.914.147.574-.107.92-.473 1.053-.738.134-.278.11-.454.13-.451M231.514 34.93c-.538 0-.974.435-.974.972 0 .536.436.972.974.972.54 0 .976-.436.976-.972 0-.537-.437-.972-.976-.972M262.337 34.93c-.539 0-.975.435-.975.972 0 .536.436.972.975.972.539 0 .975-.436.975-.972 0-.537-.436-.972-.975-.972M202.216 34.93c-.538 0-.975.435-.975.972 0 .536.437.972.975.972s.975-.436.975-.972c0-.537-.437-.972-.975-.972M266.25 139.546s-.005-.16-.008-.467l-.008-1.363-.017-5.286c-.01-4.618-.022-11.363-.038-19.894l-.07-69.806.142.143-67.995.014h-.007l.156-.157c-.01 36.315-.02 69.882-.03 96.816l-.126-.126 49.466.066c5.918.015 10.546.025 13.699.032l3.597.015c.814.004 1.24.013 1.24.013s-.408.01-1.213.015c-.812.002-2.009.007-3.573.014l-13.672.032-49.544.066h-.127v-.127l-.03-96.816v-.157h.164l67.995.014h.143v.143c-.029 28.608-.054 52.826-.07 69.899l-.04 19.862-.016 5.257-.009 1.348c-.002.302-.008.45-.008.45" transform="translate(33 17)"/>
                    <path fill="#E9E0FF" d="M184.192 153.436c-.018-.012.12-.251.387-.673.262-.424.67-1.02 1.198-1.74 1.052-1.44 2.63-3.348 4.582-5.251 1.958-1.9 3.908-3.426 5.377-4.439.734-.507 1.34-.899 1.772-1.15.43-.255.672-.387.683-.368.012.018-.209.185-.616.47-.41.283-.996.7-1.71 1.228-1.429 1.055-3.343 2.596-5.286 4.483-1.94 1.89-3.533 3.761-4.626 5.162-.547.699-.98 1.273-1.275 1.674-.295.4-.468.616-.486.604M184.43 29.155c.014-.015.218.167.572.508.398.385.898.87 1.494 1.445 1.263 1.218 3.042 2.865 5.015 4.678 1.974 1.815 3.734 3.491 4.96 4.753.614.63 1.1 1.148 1.426 1.518.327.367.5.578.485.592-.016.015-.22-.167-.573-.508l-1.495-1.445c-1.263-1.218-3.042-2.865-5.016-4.679-1.973-1.814-3.733-3.49-4.958-4.752-.613-.63-1.102-1.148-1.427-1.517-.327-.368-.5-.578-.484-.593M274.956 31.742c0 .086-19.63.157-43.837.157-24.217 0-43.841-.07-43.841-.157s19.624-.157 43.84-.157c24.208 0 43.838.07 43.838.157" transform="translate(33 17)"/>
                    <path fill="#E9E0FF" d="M187.548 147.51c-.087 0-.157-25.857-.157-57.746 0-31.9.07-57.751.157-57.751s.158 25.851.158 57.751c0 31.89-.07 57.746-.158 57.746M276.309 149.674c0 .087-19.387.157-43.296.157-23.917 0-43.3-.07-43.3-.157 0-.086 19.383-.156 43.3-.156 23.909 0 43.296.07 43.296.156M268.931 141.677s-.005-.167-.009-.488l-.009-1.426-.022-5.53-.055-20.835-.131-73.224.142.141-73.557-.263.157-.157v.111l.3 101.876-.128-.127 53.306-.083 14.785-.009 3.883.004c.88.003 1.338.01 1.338.01s-.44.01-1.31.018l-3.86.025-14.757.074-53.385.216h-.127v-.127l-.358-101.876-.001-.111v-.158h.158l73.556.293h.142v.143l-.01 73.317-.02 20.801-.013 5.503-.007 1.41c-.002.316-.008.472-.008.472" transform="translate(33 17)"/>
                    <path fill="#F6E8FF" d="M198.318 139.602L265.858 139.602 265.858 42.733 198.318 42.733z" transform="translate(33 17)"/>
                    <path fill="#E8BFE8" d="M198.17 53.601c11.463 13.633 24.976 27.949 35.964 41.969l-35.911 9.592-.053-51.561z" transform="translate(33 17)"/>
                    <path fill="#EBD4F9" d="M198.277 103.543l.04 36.06 67.926-.524-.257-50.168c-22.63 4.59-45.203 9.468-67.709 14.632" transform="translate(33 17)"/>
                </g>
            </g>
        </g>
        <g mask="url(#prefix__b)">
            <g>
                <path stroke="#9371DF" stroke-width="8" d="M99 156.89v-12.379C99 132.631 89.374 123 77.5 123S56 132.63 56 144.511V242" transform="translate(-18 103)"/>
                <path fill="#F5F0EE" d="M125 150c0 6.627 5.372 12 12 12s12-5.373 12-12-5.372-12-12-12-12 5.373-12 12M33 214.5c0 8.008 6.492 14.5 14.5 14.5S62 222.508 62 214.5 55.508 200 47.5 200 33 206.492 33 214.5M107 199c0 11.598 9.402 21 21 21s21-9.402 21-21-9.402-21-21-21-21 9.402-21 21" transform="translate(-18 103)"/>
                <path fill="#F5F0EE" d="M54 217c0 11.598 9.402 21 21 21s21-9.402 21-21-9.402-21-21-21-21 9.402-21 21" transform="translate(-18 103)"/>
                <path fill="#F5F0EE" d="M29 238c0 11.598 9.402 21 21 21s21-9.402 21-21-9.402-21-21-21-21 9.402-21 21M71 195c0 16.016 12.984 29 29 29s29-12.984 29-29-12.984-29-29-29-29 12.984-29 29M116 117.5c0 4.694 3.806 8.5 8.5 8.5s8.5-3.806 8.5-8.5-3.806-8.5-8.5-8.5-8.5 3.806-8.5 8.5" transform="translate(-18 103)"/>
                <path fill="#D1C3F3" d="M83 237.313L110 238 103.605 161 94.376 161z" transform="translate(-18 103)"/>
                <path fill="#F5F0EE" d="M101 235L103 235 102.054 161 101 161zM98 235L99 235 99 161 98 161z" transform="translate(-18 103)"/>
                <path fill="#E3D7FF" d="M243.375 211.81c-26.252 12.916-87.928 13.995-104.346 8.44-1.235-1.029-2.491-2.022-3.687-2.973-3.032-2.415-6.252-4.514-9.836-6.042-.11-.046-.198-.109-.272-.18-5.582-1.813-11.213-3.606-17.035-4.488-2.8-.424-5.647-.654-8.48-.536-1.421.058-7.712.033-4.982 4.043.584.858 2.2 1.606 3.094 2.112 2.868 1.624 6.088 2.612 9.379 2.9 2.186.19 4.812-.094 6.66 1.346 1.611 1.256-16.71 7.226-25.435 8.35-4.213.544-8.416 1.204-12.55 2.186-2.47.586-4.91 1.287-7.298 2.14-1.216.434-8.486 2.882-6.233 4.972 1.286 1.018 2 1.327 1.926 1.343-2.871.624-5.774 1.338-8.35 2.58-1.578.762-4.74 2.338-3.738 4.558.81 1.797 3.135 2.063 4.867 2.014.385-.027 1.045.084 2.767-.496-1.856 1.6-3.914 5.387-.207 6.341 2.187.563 5.14-.063 7.246-.816.082-1.08 1.861-.546 1.73-.152-.91 2.758 3.333 4.414 5.668 4.174 2.367-.245 4.632-1.18 6.945-1.692 5.238-1.16 10.675-1.24 16.008-.84 5.76.432 11.492 1.355 17.186 2.29 3.86.634 7.733 1.366 11.501 2.434l.02-.078c33.832 8.754 70.478 20.345 102.271 16.503L267 246.367l-23.625-34.558z" transform="translate(-18 103)"/>
                <path fill="#9371DF" d="M148.92 220.66c-4.634 7.713-13.803 34.893-9.682 39.043 4.12 4.15 63.753 19.268 77.657 20.81 13.904 1.543 29.661 0 42.02-13.266 22.555 0 113.085-.617 113.085-.617s-10.196-92.249-36.459-132.665c-26.263-40.417-68.901-43.501-89.602-39.8-20.702 3.703-59.015 15.118-69.52 40.725-10.505 25.608-10.196 53.684-10.196 53.684L131 211.404l17.92 9.256z" transform="translate(-18 103)"/>
                <path fill="#F5F0EE" d="M129 212c0 6.627 5.373 12 12 12s12-5.373 12-12-5.373-12-12-12-12 5.373-12 12M93 260c0 4.418 3.582 8 8 8s8-3.582 8-8-3.582-8-8-8-8 3.582-8 8M11 173c0 4.418 3.582 8 8 8s8-3.582 8-8-3.582-8-8-8-8 3.582-8 8M199 250c0 4.418 3.582 8 8 8s8-3.582 8-8-3.582-8-8-8-8 3.582-8 8M27 103c0 4.418 3.582 8 8 8s8-3.582 8-8-3.582-8-8-8-8 3.582-8 8" transform="translate(-18 103)"/>
                <path fill="#E3D7FF" d="M234.942 81.985c4.373-6.367 5.465-15.504 4.597-25.89.267.05.537.085.813.085 3.671 0 6.648-4.66 6.648-10.406 0-5.747-2.977-10.406-6.648-10.406-1.557 0-2.986.844-4.119 2.247-5.642-18.97-18.365-31.818-31.407-29.3-14.62 2.821-22.994 23.572-18.702 46.346 3.474 18.434 14.154 32.4 25.872 35.674 1.841 5.072 3.446 10.582 2.372 12.42 12.067 3.538 27.754-.753 31.522-9.193-6.192-2.366-9.409-7.828-10.948-11.577" transform="translate(-18 103)"/>
                <g transform="translate(-18 103) translate(164)">
                    <mask id="prefix__d" fill="#fff">
                        <use xlink:href="#prefix__c"/>
                    </mask>
                    <path fill="#6C4CB1" d="M61.055 27.39C67.869 33.706 71.5 46.33 72.37 46.991c3.135-11.295.363-29.38-1.377-32.023-1.741-2.643-4.498-11.367-11.461-6.742C51.046-6.09 40.384 3.38 38.208 5.364c-2.176 1.982-7.398 7.488-16.537 1.982C12.532 1.84 4.699 1.18 1 8.006c-3.7 6.828 4.35 14.918 10.226 15.498 0 0-5.875-.52-6.093 2.784-.218 3.304 3.917 8.59 14.144 9.911 10.226 1.322 32.42.22 41.777-8.81" mask="url(#prefix__d)"/>
                </g>
                <path fill="#6C4CB1" d="M217 50c0 1.105-.895 2-2 2s-2-.895-2-2c0-1.104.895-2 2-2s2 .896 2 2M194 54.5c0 .829-.671 1.5-1.5 1.5s-1.5-.671-1.5-1.5c0-.828.671-1.5 1.5-1.5s1.5.672 1.5 1.5" transform="translate(-18 103)"/>
                <path stroke="#9371DF" stroke-linecap="round" stroke-width="2" d="M199 48s2.38 15.651 2.431 16.627c.052.975 3.776 2.048 6.569.828M205 77.284c.5.822 3.928 1.488 6-1.284M215 90.887c3.544.444 12.468-.333 15-3.887" transform="translate(-18 103)"/>
                <path stroke="#E3D7FF" stroke-linecap="round" stroke-width="3" d="M267 141c-44.507 60.316-64.868 84.717-68.876 84.99-4.008.275-49.124-5.677-49.124-5.677M316 205c-20.033 24.195-42.415 50.07-57 62" transform="translate(-18 103)"/>
                <path fill="#9371DF" d="M103.244 162h-8.488c-1.134 0-1.97-1.078-1.708-2.202l1.031-4.423c.188-.806.895-1.375 1.708-1.375h6.684c.85 0 1.579.621 1.728 1.475l.773 4.423c.192 1.095-.635 2.102-1.728 2.102" transform="translate(-18 103)"/>
            </g>
        </g>
    </g>
</svg>
