<svg xmlns="http://www.w3.org/2000/svg" xmlns:xlink="http://www.w3.org/1999/xlink" width="1440" height="722" viewBox="0 0 1440 722">
    <defs>
        <path id="prefix__a" d="M0 0H1440V722H0z"/>
        <path id="prefix__g" d="M0.206 0.324L76.899 0.324 76.899 82.914 0.206 82.914z"/>
        <path id="prefix__i" d="M0 0.22L151.671 0.22 151.671 158.731 0 158.731z"/>
        <path id="prefix__k" d="M0 588L711 588 711 0 0 0z"/>
        <linearGradient id="prefix__d" x1="20.972%" x2="80.452%" y1="85.152%" y2="31.983%">
            <stop offset="0%" stop-color="#B797F3"/>
            <stop offset="100%" stop-color="#825FE4"/>
            <stop offset="100%" stop-color="#815EE4"/>
        </linearGradient>
        <linearGradient id="prefix__f" x1="20.972%" x2="80.452%" y1="85.152%" y2="31.983%">
            <stop offset="0%" stop-color="#B797F3"/>
            <stop offset="100%" stop-color="#825FE4" stop-opacity=".194"/>
            <stop offset="100%" stop-color="#815EE4"/>
        </linearGradient>
        <radialGradient id="prefix__b" cx="57.072%" cy="43.565%" r="100%" fx="57.072%" fy="43.565%" gradientTransform="matrix(0 1 -.50139 0 .79 -.135)">
            <stop offset="0%" stop-color="#9464E4" stop-opacity="0"/>
            <stop offset="100%" stop-color="#5A34C5" stop-opacity=".729"/>
        </radialGradient>
        <filter id="prefix__e" width="113%" height="113%" x="-6.5%" y="-6.5%" filterUnits="objectBoundingBox">
            <feGaussianBlur in="SourceGraphic" stdDeviation="20"/>
        </filter>
    </defs>
    <g fill="none" fill-rule="evenodd">
        <g transform="translate(-10) translate(10)">
            <mask id="prefix__c" fill="#fff">
                <use xlink:href="#prefix__a"/>
            </mask>
            <use fill="#5A34C5" xlink:href="#prefix__a"/>
            <path fill="url(#prefix__b)" opacity=".537" style="mix-blend-mode:multiply" d="M0 0H1440V722H0z" mask="url(#prefix__c)"/>
            <circle cx="1144" fill="url(#prefix__d)" opacity=".566" style="mix-blend-mode:overlay" cy="286" r="460" filter="url(#prefix__e)" mask="url(#prefix__c)" transform="rotate(43 1144 286)"/>
            <circle fill="url(#prefix__f)" opacity=".427" style="mix-blend-mode:overlay" cx="1144" cy="286" r="460" mask="url(#prefix__c)" transform="rotate(43 1144 286)"/>
        </g>
        <g opacity=".599" transform="translate(-10) translate(0 16)">
            <g transform="translate(303 153)">
                <mask id="prefix__h" fill="#fff">
                    <use xlink:href="#prefix__g"/>
                </mask>
                <path fill="#FFF" d="M25.975 76.489c-.283.148-.643.033-.79-.24-.072-.136-.087-.293-.041-.441.045-.148.146-.27.283-.342l1.642-.867 3.173-1.676c.064-.034.132-.05.201-.059.012-.001.024-.004.037-.004.068-.004.136.002.2.02l.023.01c.055.019.108.047.156.082.014.01.027.02.04.032.052.044.098.095.132.158.037.07.059.145.065.22.005.052-.006.105-.016.157-.009.048-.024.092-.044.136-.021.043-.039.09-.069.126-.047.058-.107.108-.177.145l-2.588 1.367-2.227 1.176zm1.115-2.43L1.14 57.712l34.005-17.962 6.909 4.352 32.242 20.312L40.29 82.375l-11.156-7.027 1.876-.99c.063-.034.122-.073.176-.117.007-.006.012-.013.019-.018.046-.04.09-.082.127-.129l.002-.002c.084-.103.148-.221.188-.352.019-.059.03-.12.037-.18.001-.005.003-.01.003-.016.007-.06.006-.12.002-.18v-.023c-.005-.059-.018-.116-.033-.172l-.006-.03c-.02-.067-.046-.133-.08-.196-.272-.508-.91-.702-1.423-.431L27.09 74.06zM2.62 22.718l3.176 1.906c.071.042.146.072.223.096.038.012.077.019.116.027.033.006.066.01.099.013.035.003.07.014.106.014.222 0 .426-.074.6-.195.018-.012.034-.025.05-.038.038-.029.075-.057.107-.091.054-.055.104-.114.145-.18.037-.062.067-.125.09-.19.005-.014.006-.027.01-.04.017-.053.032-.106.04-.16v-.018c.018-.127.013-.256-.02-.384-.016-.065-.038-.127-.065-.186l-.002-.004c-.023-.048-.052-.095-.083-.14-.007-.011-.012-.024-.02-.035-.03-.04-.065-.076-.1-.111-.014-.014-.025-.03-.039-.043-.05-.046-.107-.088-.168-.125l-4.15-2.49.062-1.249 34-17.96L35.24 32.91l-.315 6.426-34 17.96L2.62 22.717zM1.37 21.423c-.275-.165-.364-.522-.198-.795.081-.133.21-.226.36-.264.047-.011.094-.017.14-.017.105 0 .21.029.301.084l4.668 2.8c.069.042.125.095.17.155.043.06.076.129.095.203.018.074.021.15.01.223-.01.074-.036.147-.077.215-.162.265-.534.357-.8.197l-3.851-2.31-.818-.49zm42.397-16.17c-.005.083.002.167.018.249.003.02.008.04.013.06.02.081.046.161.086.235v.004c.04.072.089.136.142.195.028.032.058.058.09.086.022.019.044.038.069.055.146.11.317.179.503.202l.03.003c.033.003.064.013.098.013.026 0 .052-.007.078-.01.021 0 .042-.004.063-.007.047-.006.094-.012.14-.024.073-.02.144-.046.212-.082l.015-.008 21.508 13.55-.24 4.402c-.008.145.014.284.06.411.14.384.5.667.933.69l.059.002c.559 0 1.02-.435 1.05-.989l.176-3.231 7.546 4.753-1.87 38.207-39.152-24.665 1.871-38.206 6.502 4.096v.008zm.773-.455l4.815-2.543c.285-.15.638-.042.79.24.073.136.088.292.042.44-.045.148-.146.27-.283.342L45.09 5.821c-.283.148-.643.033-.79-.24-.082-.153-.073-.303-.05-.401.04-.167.143-.303.291-.382zm23.402 13.448h.027c.32.018.568.291.55.61l-.293 5.409c-.017.306-.272.547-.613.547h-.001c-.322-.017-.568-.291-.551-.61l.294-5.408c.017-.312.273-.548.587-.548zM40.153 82.84l.115.073L74.751 64.7l.225.142.013-.268.238-.126-.224-.141 1.89-38.608.006-.136-7.999-5.039.09-1.643c.03-.575-.415-1.069-.997-1.1-.591-.016-1.075.408-1.106.988l-.025.472-21.06-13.268 4.323-2.284c.512-.27.707-.905.435-1.414-.273-.507-.912-.701-1.424-.432l-4.815 2.543c-.173.092-.31.233-.407.399L37.292.612l.014-.274-.244.129-.226-.143-.013.269L2.459 18.745l-.118.062-.062 1.263-.062-.037c-.24-.145-.525-.19-.796-.121-.273.067-.504.235-.65.475-.3.493-.14 1.136.357 1.435l1.034.621L.444 57.55l-.238.126.225.142-.013.274.244-.129 25.951 16.348-1.406.743c-.248.13-.43.35-.513.618-.081.266-.055.55.078.797.183.341.54.554.93.554.17 0 .341-.042.493-.123l2.463-1.3 11.495 7.241z" mask="url(#prefix__h)"/>
            </g>
            <path fill="#FFF" d="M361.658 211.576c.065-.036.134-.054.203-.063l.039-.005c.068-.004.136.002.202.022.009.003.017.009.026.012.055.02.107.05.154.087.014.01.028.022.041.034.052.049.1.103.134.171.152.305.043.684-.244.846l-4.87 2.743c-.284.16-.652.037-.8-.257-.038-.077-.06-.157-.066-.238-.02-.243.096-.487.311-.608l4.87-2.744zm-5.533 3.826c.184.369.545.598.941.598.172 0 .345-.046.5-.132l4.87-2.744c.388-.22.596-.658.56-1.097-.012-.146-.051-.291-.12-.429-.276-.549-.923-.758-1.44-.466l-4.872 2.744c-.388.22-.596.659-.56 1.097.012.146.051.291.12.429zM370.637 183.081c.003-.086.021-.166.048-.238.003-.007.008-.011.01-.017.027-.065.06-.123.102-.17.008-.009.017-.013.024-.02.04-.04.083-.076.13-.098.022-.01.047-.01.07-.017.042-.011.083-.027.128-.024.267.02.474.311.46.651l-.246 5.77c-.014.327-.226.584-.51.584h-.002c-.268-.019-.473-.31-.46-.65l.246-5.77zm.192 6.917l.049.002c.466 0 .85-.463.876-1.055l.245-5.77c.026-.614-.345-1.14-.83-1.174-.48-.023-.896.439-.923 1.053l-.245 5.77c-.006.154.012.302.05.438.117.41.416.711.778.736zM371.212 145.679l-4.87 2.744c-.283.159-.65.037-.798-.259-.074-.147-.09-.316-.043-.475.046-.16.148-.29.287-.369l4.869-2.744c.088-.05.183-.073.276-.073.212 0 .417.12.523.33v.001c.074.148.089.317.043.476-.046.16-.148.291-.287.369m.741-.221c.083-.29.055-.594-.078-.86-.276-.549-.923-.758-1.44-.467l-4.87 2.745c-.251.14-.435.378-.518.665-.083.289-.056.594.078.86.185.37.546.599.941.599.172 0 .345-.046.5-.132l4.869-2.745c.251-.14.435-.378.518-.665M362.5 151.31c-.047.16-.149.29-.288.369l-4.87 2.744c-.283.16-.65.038-.798-.257-.152-.305-.043-.685.244-.846l4.87-2.744c.286-.161.645-.046.797.258.075.148.09.317.044.476m-1.063-1.18l-4.87 2.746c-.252.141-.436.378-.519.666-.083.288-.055.594.078.86.186.37.546.598.942.598.172 0 .344-.046.498-.132l4.87-2.745c.251-.141.435-.378.518-.666.083-.288.055-.593-.078-.86-.276-.548-.922-.756-1.44-.467M372.363 155.917c-.014.328-.227.585-.51.585h-.002c-.268-.019-.474-.31-.46-.65l.246-5.77c.014-.332.235-.585.5-.585h.012c.268.018.473.31.46.65l-.246 5.77zm.636-5.742c.026-.615-.346-1.142-.835-1.175-.488.007-.892.448-.918 1.054l-.245 5.77c-.027.614.345 1.14.834 1.175l.043.001c.465 0 .85-.464.875-1.055l.246-5.77zM308.62 229.085c.013-.328.239-.588.502-.588h.014c.131.009.252.08.34.202.089.122.134.28.127.445l-.223 5.77c-.013.33-.227.588-.514.588h-.002c-.131-.008-.252-.08-.34-.202-.089-.123-.134-.28-.127-.445l.223-5.77zm-.619 5.745c-.012.298.07.584.23.804.159.22.378.35.617.365l.041.001c.474 0 .863-.466.886-1.06l.224-5.771c.012-.298-.07-.584-.23-.804-.159-.221-.377-.35-.618-.365-.49-.013-.903.457-.926 1.06l-.224 5.77zM310.62 218.085c.014-.342.24-.578.516-.587.131.008.252.08.34.202.089.122.134.28.127.445l-.223 5.77c-.013.33-.228.587-.504.587h-.013c-.13-.008-.251-.08-.34-.202-.088-.122-.133-.28-.126-.445l.223-5.77zm.225 6.913l.044.002c.474 0 .863-.466.886-1.061l.224-5.77c.012-.298-.07-.583-.23-.803-.159-.221-.378-.35-.616-.365-.502-.025-.905.442-.928 1.06l-.224 5.77c-.012.297.07.583.23.803.159.22.378.35.614.364zM317.544 235.165c-.073-.147-.089-.316-.043-.476.046-.16.148-.29.287-.369l4.87-2.744c.088-.049.182-.072.276-.072.211 0 .416.12.522.331.073.147.089.316.043.476-.046.16-.148.29-.287.37l-4.869 2.742c-.285.16-.65.037-.799-.258m1.02.703l4.87-2.744c.252-.141.436-.378.519-.666.083-.287.055-.593-.078-.859-.275-.55-.922-.76-1.44-.467l-4.87 2.744c-.25.141-.435.378-.518.666-.083.288-.055.593.078.86.186.369.547.598.941.598.172 0 .344-.046.499-.132M308.787 239.32l4.87-2.744c.29-.163.647-.045.8.258.152.304.042.683-.244.845l-4.87 2.744c-.282.157-.651.036-.8-.257-.152-.305-.042-.684.244-.846m-.663 1.081c.186.37.547.599.942.599.173 0 .346-.046.499-.132l4.87-2.745c.519-.292.716-.975.44-1.525-.275-.549-.922-.758-1.44-.467l-4.87 2.745c-.519.291-.716.976-.44 1.525M370.637 161.082c.014-.339.238-.58.512-.584.13.01.249.081.335.204.087.123.131.282.124.446l-.245 5.77c-.014.327-.226.584-.501.584H370.849c-.267-.02-.471-.311-.457-.65l.245-5.77zm.193 6.916l.048.002c.466 0 .85-.463.876-1.055l.245-5.77c.013-.297-.067-.583-.223-.805-.157-.221-.372-.353-.61-.37-.482-.023-.894.443-.92 1.054l-.245 5.77c-.026.614.346 1.141.829 1.174zM342.657 220.576c.089-.05.183-.073.276-.073.212 0 .417.12.523.332.074.147.089.316.043.475-.046.16-.148.291-.287.369l-4.87 2.744c-.283.16-.651.037-.8-.258-.038-.076-.059-.156-.066-.236-.005-.057.006-.116.017-.174.009-.047.023-.091.042-.136.02-.05.04-.1.072-.142.048-.062.108-.117.18-.157l4.87-2.744zm-5.654 3.373v.024c.005.063.018.124.033.185.003.011.003.022.006.034.02.07.047.141.082.21.184.369.545.598.94.598.176 0 .344-.044.5-.132l4.87-2.745c.252-.14.436-.378.519-.665.083-.289.056-.594-.078-.86-.275-.549-.922-.758-1.44-.467l-4.871 2.745c-.064.037-.124.079-.179.126l-.019.02c-.046.043-.09.088-.128.138l-.003.005c-.084.11-.15.237-.19.377-.02.068-.032.138-.04.207v.005c-.007.065-.006.13-.002.195zM347.501 219.69c.046-.16.148-.292.287-.37l4.869-2.744c.088-.05.183-.073.277-.073.211 0 .416.12.521.331.075.148.09.317.044.476-.046.16-.148.291-.287.37l-4.87 2.744c-.282.158-.65.036-.798-.259-.073-.147-.089-.316-.043-.476m.565 1.311c.175 0 .343-.044.5-.132l4.869-2.745c.25-.14.435-.377.518-.666.083-.288.055-.593-.078-.86-.274-.548-.921-.757-1.44-.466l-4.87 2.745c-.251.141-.435.378-.518.666-.083.288-.055.594.078.86.185.369.546.598.94.598M370.363 199.918c-.014.327-.227.584-.51.584h-.002c-.267-.019-.474-.31-.459-.65l.245-5.77c.007-.168.07-.317.164-.423.005-.006.012-.009.017-.014.042-.043.087-.08.136-.104.03-.015.065-.017.098-.023.032-.007.063-.021.096-.02.067.005.13.027.186.062.034.021.062.056.091.087.041.043.074.09.102.148.019.037.041.072.053.113.021.075.032.156.028.24l-.245 5.77zm-.533 1.08l.003.001h.002l.043.001c.465 0 .85-.464.875-1.055l.246-5.769c.026-.614-.346-1.141-.834-1.174-.243-.017-.467.095-.633.29-.167.188-.273.456-.286.763l-.245 5.77c-.003.076 0 .152.008.225.06.512.398.92.82.949zM365.958 208.31l1.82-.848.207-3.362c.021-.338.338-.594.726-.594h.031c.098.005.191.027.274.063.064.027.118.07.172.112.031.026.059.054.085.085.042.05.083.1.106.157.032.077.047.16.042.245l-.23 3.717c-.013.218-.16.418-.38.521l-2.178 1.014c-.344.16-.792.037-.973-.26-.09-.148-.108-.318-.052-.48.056-.16.18-.292.35-.37m-.955.657c.006.061.022.123.04.183.003.013.004.024.008.036.025.073.057.144.099.211.226.372.665.603 1.147.603.21 0 .42-.046.607-.133l2.179-1.014c.399-.186.662-.546.686-.94l.23-3.717c.004-.077 0-.153-.013-.228l-.009-.03c-.04-.207-.144-.401-.309-.562-.17-.166-.388-.281-.63-.337-.004 0-.006-.002-.008-.003-.085-.019-.172-.031-.26-.035-.754-.02-1.324.445-1.362 1.072l-.19 3.076-1.532.713c-.078.036-.15.079-.216.127-.015.01-.026.024-.04.035-.05.039-.099.079-.14.124-.006.005-.01.012-.014.017-.098.109-.174.232-.222.367-.047.135-.062.273-.05.41 0 .008-.002.016 0 .025M275.571 157.763c.172-.28.543-.37.828-.201l4.825 2.862c.284.168.376.534.204.813-.165.27-.548.365-.827.201l-4.825-2.862c-.284-.169-.377-.534-.205-.813m-.046 1.22l4.825 2.863c.17.1.365.154.562.154.384 0 .733-.194.932-.517.31-.504.144-1.162-.369-1.467l-4.825-2.862c-.515-.305-1.184-.142-1.494.362-.31.505-.144 1.163.369 1.468M301.429 171.237c-.168.27-.553.366-.828.201l-4.825-2.863c-.284-.168-.376-.534-.204-.813.113-.184.312-.286.517-.286.106 0 .213.028.31.085l4.825 2.863c.284.168.377.533.205.813zm-4.779-4.083c-.512-.305-1.183-.143-1.494.362-.31.504-.144 1.162.369 1.467l4.824 2.863c.17.1.364.154.562.154.385 0 .734-.194.933-.516.31-.505.144-1.163-.37-1.469l-4.824-2.861zM266.571 150.764c.172-.28.543-.37.828-.201l4.825 2.861c.284.169.376.534.204.814-.165.27-.548.366-.827.2l-4.824-2.861c-.285-.169-.378-.534-.206-.813m-.046 1.22l4.825 2.862c.17.1.365.154.562.154.38 0 .736-.198.931-.516.31-.504.146-1.163-.368-1.467l-4.825-2.862c-.248-.148-.54-.193-.824-.123-.281.069-.52.241-.67.485-.31.505-.144 1.163.37 1.468M290.428 166.237c-.166.27-.55.366-.827.201l-4.825-2.862c-.284-.169-.376-.534-.204-.814.113-.184.312-.286.516-.286.107 0 .214.029.312.086l4.824 2.862c.285.169.376.534.204.813zm-4.778-4.083c-.249-.148-.541-.19-.823-.123-.283.068-.52.24-.67.485-.31.505-.145 1.163.368 1.467l4.825 2.863c.17.1.364.154.562.154.379 0 .736-.198.931-.516.31-.505.145-1.163-.368-1.468l-4.825-2.862zM318.6 183.439l-4.823-2.863c-.138-.082-.235-.21-.274-.364-.038-.154-.014-.313.07-.449.083-.135.214-.23.37-.269.049-.012.098-.017.146-.017.108 0 .216.03.311.086l4.823 2.861c.285.17.377.534.205.813-.166.27-.551.365-.828.202m1.34-.159c.068-.193.08-.401.028-.605-.034-.135-.094-.26-.174-.369l-.002-.002c-.037-.051-.081-.098-.128-.142l-.014-.015c-.054-.049-.112-.092-.175-.13l-4.825-2.862c-.248-.148-.541-.192-.823-.123-.282.068-.52.24-.67.485-.15.244-.194.532-.125.809.07.277.245.51.494.658l4.824 2.863c.17.1.364.153.561.153.097 0 .19-.012.28-.035.18-.046.344-.138.477-.264.067-.064.126-.137.176-.218.038-.062.069-.127.093-.194.002-.003.002-.006.002-.009M228.721 167.458l-38.797-24.787 33.698-18.052 6.847 4.375 31.95 20.413-33.698 18.051zm-37.153-63.595l33.692-18.049-1.542 31.935-.311 6.455-33.693 18.05 1.854-38.391zm71.1 45.148l-38.796-24.788 1.854-38.395 38.796 24.786-1.854 38.397zm.426.827l.013-.27.236-.126-.223-.142 1.873-38.8.007-.136-39.25-25.075.015-.276-.243.13L225.3 85l-.013.27-34.053 18.242-.117.063-1.88 38.935-.236.126.223.143-.013.275.242-.13 39.135 25.003.114.073 34.17-18.305.223.143zM164.573 86.763c.084-.136.216-.231.373-.27.155-.036.317-.012.454.07l4.824 2.864c.137.081.234.21.273.364.038.154.013.312-.07.448-.167.27-.552.364-.828.2l-4.823-2.864c-.137-.081-.234-.21-.273-.364-.039-.154-.013-.313.07-.448m-.048 1.22l4.823 2.862c.169.102.364.155.562.155.385 0 .734-.192.932-.515.151-.244.195-.531.126-.808-.07-.277-.245-.51-.494-.658l-4.821-2.862c-.248-.149-.54-.195-.822-.126-.283.068-.522.24-.673.485-.15.245-.196.532-.126.809.069.277.244.51.493.658M173.573 92.763c.083-.136.215-.231.372-.27.156-.037.318-.012.456.07l4.822 2.863c.138.082.235.212.274.365.038.153.014.313-.07.447-.167.271-.554.364-.828.2l-4.822-2.863c-.138-.082-.235-.211-.274-.365-.038-.153-.014-.312.07-.447m-.048 1.22l4.823 2.863c.169.1.364.154.563.154.384 0 .733-.192.932-.515.15-.244.195-.53.125-.808-.07-.277-.245-.51-.494-.659l-4.821-2.863c-.25-.147-.542-.192-.823-.124-.283.068-.522.24-.672.485-.151.244-.196.531-.126.808s.245.511.493.659M182.573 99.762c.084-.136.216-.23.373-.269.047-.011.096-.017.144-.017.108 0 .216.03.31.086l4.824 2.864c.138.082.234.211.273.364.039.154.013.313-.07.448-.167.27-.55.365-.828.2l-4.822-2.863c-.138-.082-.235-.212-.274-.366-.039-.153-.013-.312.07-.447m-.048 1.22l4.823 2.864c.17.1.365.154.563.154.378 0 .736-.198.931-.515.15-.244.195-.531.126-.808-.07-.277-.244-.51-.493-.658l-4.822-2.864c-.248-.148-.54-.192-.823-.124-.283.068-.522.24-.672.484-.15.244-.196.531-.126.809.07.277.245.51.493.658M155.573 80.763c.084-.136.216-.231.373-.27.047-.01.096-.016.143-.016.109 0 .216.029.312.086l4.822 2.863c.138.082.235.212.274.365.038.153.013.312-.07.447-.167.272-.55.366-.828.2l-4.822-2.863c-.138-.082-.235-.211-.274-.365-.038-.153-.014-.312.07-.447m-.048 1.22l4.823 2.863c.17.1.364.154.563.154.384 0 .732-.192.931-.515.15-.244.195-.531.126-.808-.07-.277-.245-.51-.494-.658l-4.821-2.863c-.25-.148-.541-.193-.823-.125-.283.068-.522.24-.672.485-.151.244-.196.532-.126.808.07.277.245.511.493.659"/>
            <mask id="prefix__j" fill="#fff">
                <use xlink:href="#prefix__i"/>
            </mask>
            <path fill="#FFF" d="M92.088 109.553L.466 157.957V98.646c.153-.041.306-.08.46-.12.265-.07.53-.139.796-.212C25.559 91.7 44.687 82.5 58.574 70.97 76.056 56.457 85.24 38.219 85.87 16.766l.001-.104-.007-.07c-.188-1.843-.225-7.055 1.838-9.016.685-.65 1.579-.88 2.72-.705.009.002.832.188 1.692 1.502 1.53 2.341 3.531 8.862-.262 26.239-3.775 4.806-7.088 9.129-7.12 9.172-.212.276-.304.618-.259.964.046.345.223.652.5.863.556.427 1.404.312 1.828-.241.031-.04 3.229-4.211 6.944-8.943.229-.15.405-.375.501-.637 4.683-5.954 7.844-9.815 9.398-11.48.341-.381 8.364-9.438 9.995-19.423l.03-.201c.007-.062.015-.124.028-.185.775-3.88 3.394-4.004 4.885-3.73 1.643.3 2.385 1.157 2.422 1.285-.061.364.039.74.27 1.027-.168.636-.239 1.159-.268 1.437-3.877 10.406-12.76 19.397-13.118 19.758-7.437 6.038-19.306 23.063-19.808 23.785-.41.59-.264 1.404.326 1.815.567.397 1.418.244 1.814-.326.122-.174 12.217-17.519 19.36-23.289l.087-.078c.394-.388 9.703-9.64 13.846-20.927l.054-.149.024-.224c.001-.027.206-2.644 1.711-3.603.756-.481 1.817-.486 3.15-.014.477.577 1.82 2.547 1.79 6.35-.038 5.093-2.456 11.251-7.183 18.295l-5.224 7.1c-1.905-.275-3.84-.207-5.751.198-4.756 1.012-9.628 4.2-14.09 9.22-3.304 3.718-5.246 7.146-5.327 7.29-.351.627-.126 1.423.5 1.774.627.352 1.421.128 1.774-.499.073-.13 7.401-13.052 17.691-15.236 4.222-.896 8.422.179 12.46 3.169.408.404 9.975 9.975 9.888 16.661-.02 1.455-.503 2.625-1.478 3.576-.182.095-.612.3-1.198.474l-.099.03-.045.093c-.172.36-.356.73-.552 1.105-.426.818-.918 1.682-1.462 2.571l-.763 1.245 1.113-.946c.225-.191.45-.368.673-.529.671-.482 1.334-.825 1.977-1.022.028-.01.056-.015.084-.022l.076-.019c1.21-.326 2.363-.131 3.53.604l.092.052c.054.03 1.342.76 1.688 2.863.39 2.385-.501 5.478-2.654 9.192-1.99 3.436-5.06 7.371-9.136 11.713l-.118.148c-2 2.911-11.81 11.43-34.62 22.835zm40.524-47.671c-.05.019-.1.04-.149.06-.093.04-.187.08-.28.125l-.16.077c-.097.05-.195.102-.293.157-.046.026-.093.051-.139.078-.144.085-.288.174-.432.27.144-.25.283-.497.419-.742l.124-.228.2-.367.803.532c-.031.011-.062.026-.093.038zm17.972 11.781c.994.657.784 2.8-.468 4.776l-.086.14c-.15.227-.318.454-.498.674l-.356.376h.026c-1.23 1.324-2.672 1.918-3.478 1.386l-9.249-6.114c.019-.034.034-.065.053-.098.223-.394.434-.781.63-1.161l.041-.084c.195-.384.377-.76.543-1.13l.027-.06c.16-.358.304-.709.436-1.054l.068-.172c.118-.318.223-.63.318-.935l.074-.24c.084-.286.157-.566.22-.842.021-.091.04-.182.059-.271.054-.265.1-.524.135-.778.012-.088.02-.174.03-.26.028-.257.05-.509.057-.754.002-.06 0-.116 0-.175.003-.255-.004-.505-.025-.749l-.001-.04 11.444 7.565zm-23.496 13.326l.09-.115c4.007-4.265 7.048-8.155 9.06-11.572l9.229 6.102c.275.182.599.269.952.269 1.033 0 2.322-.75 3.408-2.05.326-.033.625-.21.795-.492l.05-.082-.11-.448c1.36-2.2 1.488-4.527.279-5.327l-11.787-7.791c-.4-2.202-1.748-3.005-1.9-3.089l-.081-.044c-1.238-.78-2.475-.999-3.781-.677l-1.176-.778c.145-.282.289-.564.421-.838.607-.19 1.046-.406 1.212-.493l.053-.038c1.085-1.046 1.623-2.332 1.644-3.93.088-6.766-8.99-15.97-10.05-17.02-4.176-3.096-8.504-4.196-12.86-3.272-10.494 2.227-17.928 15.333-18.001 15.464-.226.403-.737.548-1.14.321-.403-.226-.547-.737-.322-1.14.08-.142 1.998-3.528 5.27-7.208 4.395-4.946 9.18-8.083 13.838-9.074 1.903-.404 3.83-.461 5.724-.172l.139.021 5.396-7.336c11.267-16.788 6.415-23.99 5.327-25.262l-.04-.047-.057-.02c-1.503-.546-2.721-.532-3.618.038-1.744 1.11-1.926 3.946-1.927 3.968l-.007.124-.043.116c-4.108 11.19-13.344 20.37-13.726 20.749l-.071.062c-7.185 5.804-19.319 23.203-19.44 23.378-.255.366-.801.463-1.165.209-.38-.264-.474-.787-.21-1.166.5-.72 12.332-17.692 19.737-23.705.38-.381 9.348-9.458 13.253-19.97l.014-.058c.022-.218.094-.803.29-1.511l.035-.13-.095-.096c-.193-.195-.278-.46-.233-.726.072-.436-.961-1.485-2.798-1.822-1.336-.24-4.54-.332-5.427 4.1-.014.07-.024.143-.033.212l-.028.19c-1.609 9.851-9.544 18.809-9.878 19.182-1.562 1.674-4.74 5.556-9.444 11.536l-.038.071c-.063.19-.188.35-.353.45l-.062.056c-3.728 4.747-6.94 8.937-6.972 8.978-.273.355-.818.429-1.175.156-.177-.136-.291-.334-.32-.555-.03-.222.03-.442.165-.62.034-.043 3.364-4.388 7.151-9.209l.044-.094c3.844-17.582 1.78-24.241.208-26.646-.956-1.46-1.886-1.684-2-1.706-1.308-.202-2.327.07-3.123.826-2.2 2.09-2.176 7.495-1.98 9.401l.005.038-.002.073c-.627 21.316-9.754 39.437-27.128 53.862C44.44 82.099 25.37 91.268 1.597 97.865c-.262.072-.525.14-.789.21-.212.054-.424.11-.636.167L0 98.288v60.443l92.301-48.763c22.876-11.439 32.754-20.028 34.787-22.98z" mask="url(#prefix__j)"/>
            <path fill="#FFF" d="M124.937 71.897l-.076.162-.014.03c-.051.107-.083.18-.095.205l-.059.115c-5.365 8.811-10.527 10.169-13.326 10.117-1.144-.022-1.893-.28-2.098-.36-.023-.008-.039-.015-.048-.019l-.144-.075c-3.875-2.455-6.295-5.85-7.194-10.088-.142-.668-.243-1.342-.307-2.02-.066-.677-.094-1.358-.092-2.038.042-9.524 6.296-19.009 6.6-19.463l.078-.116.109-.085c2.333-1.828 4.605-2.757 6.776-2.776.725-.006 1.437.088 2.139.284 5.165 1.446 7.623 7.875 7.723 8.14l.02.058c.05.165.102.326.156.484-.173.196-.347.41-.52.617-.12.142-.238.278-.358.425-.204.25-.406.512-.609.774-.107.137-.213.268-.32.408-.226.3-.45.609-.674.919-.082.112-.164.22-.244.333-.304.428-.603.864-.896 1.306-3.444 5.196-6.11 11.375-4.266 12.59l3.295 2.171c1.068.706 2.963-.698 4.444-2.098m5.93-17.079c-.813 2.296-2.28 5.099-4.131 7.892-.244.368-.488.725-.732 1.073-.075.108-.151.21-.227.316-.171.241-.343.482-.514.713-.071.096-.143.188-.214.283-.18.24-.36.477-.538.705-.045.056-.09.11-.134.167-.21.265-.42.526-.627.774l-.001.002c-2.66 3.19-4.995 4.938-6.032 4.77-.095-.015-.18-.045-.251-.093-1.15-.759.375-5.84 4.403-11.919 1.173-1.769 2.443-3.44 3.673-4.835.17-.193.338-.378.502-.556l.146-.155c.115-.123.229-.243.34-.359l.16-.163c.106-.107.211-.211.314-.312l.15-.144c.105-.103.21-.2.312-.295.04-.038.083-.078.124-.114.121-.11.24-.213.355-.313l.059-.051c.277-.235.54-.44.786-.618l.067-.048c.097-.068.192-.133.283-.193l.088-.055c.083-.053.164-.102.243-.148l.087-.05c.077-.043.153-.082.226-.118.024-.011.049-.025.072-.035.084-.039.164-.073.24-.103l.033-.013c.088-.033.171-.06.25-.08l.038-.007c.062-.015.123-.027.18-.034.024-.003.046-.003.068-.005.04-.003.079-.004.115-.003.05.001.095.008.138.016.02.004.041.006.06.011.06.017.114.04.161.07.585.386.483 1.891-.273 4.027m-8.098 13.774l.08-.086c.172-.186.344-.375.516-.571l.246-.278.271-.32c.483-.569.967-1.174 1.45-1.81l.174-.23c.136-.183.272-.366.407-.553l.3-.418c.102-.144.205-.287.307-.434.21-.303.418-.608.622-.915 1.873-2.825 3.358-5.666 4.184-7.998.608-1.718 1.115-3.91.081-4.592-.095-.062-.197-.107-.304-.138-.034-.01-.071-.01-.106-.017-.076-.014-.151-.03-.231-.03-.046-.002-.094.006-.141.01-.074.004-.149.009-.226.023-.052.01-.107.026-.161.04-.075.02-.15.04-.228.067-.058.02-.118.046-.176.07-.077.031-.154.063-.232.1l-.187.098c-.078.041-.155.084-.235.13-.064.038-.129.08-.194.12-.078.05-.156.101-.236.155-.066.045-.132.091-.198.139-.079.056-.157.115-.236.174-.067.05-.133.102-.2.155-.078.062-.156.125-.233.19l-.197.164c-.078.067-.156.135-.233.204-.063.056-.126.11-.188.167-.079.072-.156.145-.234.218l-.173.162-.24.234-.148.145-.264.27-.1.101c-.235.245-.453.48-.646.692-.023-.07-.046-.136-.068-.21l-.024-.071c-.106-.283-2.65-6.934-8.05-8.446-2.96-.827-6.106.04-9.347 2.577l-.14.11-.15.204c-.352.526-8.58 13.005-6.273 23.89.927 4.37 3.42 7.87 7.426 10.407l.18.094c.107.045 1.024.415 2.494.415 2.98 0 8.234-1.522 13.61-10.353l.075-.146c.002-.007.31-.701.875-1.755l.869-1.62-1.26 1.34c-2.243 2.388-4.17 3.614-4.916 3.125l-2.47-1.628c1.18-.265 2.793-1.563 4.478-3.371"/>
        </g>
        <g opacity=".311" transform="translate(-10) translate(883 53)">
            <path fill="#FFF" d="M228.61 174.752c0-3.44 1.747-7.14 5.58-7.14 1.108 0 2.11.339 2.982 1.009l-7.507 10.435c-.736-1.395-1.054-2.707-1.054-4.304zm.883 5.248l.38-.185 8.127-11.3-.214-.183c-1.035-.884-2.245-1.332-3.595-1.332-4.253 0-6.191 4.019-6.191 7.752 0 1.86.404 3.355 1.351 5l.142.248z"/>
            <path fill="#FFF" d="M210.793 184.832c-.818-6.848.935-14.144 4.938-20.542 4.023-6.432 9.825-11.187 16.338-13.393 2.541-.86 5.088-1.296 7.57-1.296 3.788 0 7.27.99 10.348 2.942 5.13 3.249 8.403 8.798 9.22 15.624.818 6.849-.935 14.144-4.938 20.543-4.023 6.43-9.826 11.186-16.338 13.391-6.44 2.183-12.804 1.598-17.92-1.644-5.127-3.25-8.401-8.8-9.218-15.625M230.36 204c2.527 0 5.139-.441 7.762-1.33 6.642-2.248 12.557-7.092 16.653-13.64 4.076-6.515 5.86-13.95 5.025-20.935-.838-7.009-4.21-12.713-9.493-16.06-3.132-1.986-6.82-3.035-10.667-3.035-2.547 0-5.158.447-7.76 1.328-6.643 2.25-12.557 7.094-16.653 13.641-4.076 6.515-5.86 13.95-5.025 20.935.838 7.009 4.21 12.713 9.493 16.061 3.18 2.015 6.822 3.035 10.665 3.035M113.016 268.15c-1.785-1.902-14.786-15.76-28.064-29.852l.73-.636c.272-.236.436-.564.46-.923.006-.09.004-.179-.008-.266-.033-.262-.143-.508-.32-.712-.122-.14-.266-.248-.424-.324-.47-.23-1.055-.173-1.475.194l-.811.705c-23.159-24.566-28.237-29.773-29.46-30.878l50.124-47.455 59.382 62.68-50.134 47.467zM82.658 239.5c-.3.259-.792.224-1.052-.074-.131-.15-.196-.342-.182-.541.014-.199.104-.38.254-.512l2.631-2.29c.074-.064.16-.11.247-.14.027-.008.055-.008.083-.014.061-.014.122-.025.185-.023.064.003.127.021.19.04.032.01.067.012.098.026.086.04.163.098.23.17.005.006.014.008.019.015.131.15.196.341.182.54-.013.2-.104.381-.255.512l-1.202 1.046-1.428 1.244zm67.335-67.433v.028c-.005.029-.003.057-.005.086-.006.084-.005.168.005.25.005.038.012.074.02.11.015.078.039.152.069.225.012.033.023.065.038.096.05.101.11.198.187.286.065.077.14.143.22.202.047.035.101.061.154.09.031.018.06.04.094.054.062.028.128.046.195.064.027.008.054.019.083.024.057.012.116.016.175.02.031.002.063.009.095.009.02 0 .04-.004.06-.005.013 0 .025.002.037 0l11.272 45.718-57.785-60.991 45.086 13.734zm6.101-4.944c.15-.13.334-.197.54-.181.2.013.38.104.512.255.131.15.195.342.182.54-.014.2-.104.38-.254.512l-5.262 4.579c-.07.06-.155.106-.26.14-.09.03-.164.042-.23.042-.215 0-.42-.093-.563-.256-.046-.052-.083-.111-.112-.174-.058-.123-.08-.26-.063-.398.008-.068.026-.136.053-.202v-.001c.047-.111.112-.205.195-.277l5.262-4.58zm7.725 54.265l-.102-.414.283-.269-.473-.498-11.533-46.778c.077-.043.147-.092.213-.148l5.26-4.58c.272-.235.435-.563.46-.922.024-.358-.091-.705-.328-.977-.237-.272-.564-.435-.924-.46-.353-.023-.704.092-.975.328l-5.262 4.579c-.085.075-.158.163-.222.258l-45.932-13.991-.214-.066-.279-.296-.17.16-.433-.132-.28-.086-.316-.096.644.679-50.146 47.477-.09.086.23.243-.16.236c.437.297 5.936 5.929 29.58 31.01l-1.366 1.189c-.271.236-.434.564-.459.923-.025.36.092.707.328.977.256.294.626.463 1.016.463.324 0 .638-.118.883-.331l1.447-1.26c14.228 15.101 28.145 29.94 28.285 30.088l.206.22 50.574-47.881.255.269zM364.879 120.229c.128-.456.193-1.005.193-1.637v-17.968h1.06v9.094l.554-1.29c.091-.213.361-.585 1.129-1.141.61-.443 1.274-.668 1.973-.668 1.403 0 2.496.632 3.34 1.93.857 1.316 1.291 3.059 1.291 5.182 0 1.26-.222 2.47-.661 3.59-.5 1.259-1.215 2.15-2.124 2.647-1.016.547-2.169.486-2.932.162-.386-.162-.716-.376-.979-.633-.465-.458-.818-.906-1.05-1.33l-.542-.99v1.148c0 1.377-.107 1.798-.138 1.904h-1.114zm1.358.593c.237-.122.402-.453.456-1.568.186.234.4.468.639.703.316.31.705.565 1.157.754.453.192.991.289 1.598.289.614 0 1.222-.16 1.808-.475 1.036-.566 1.843-1.561 2.398-2.96.47-1.2.707-2.49.707-3.834 0-2.254-.47-4.117-1.395-5.54-.948-1.457-2.232-2.196-3.817-2.196-.817 0-1.59.261-2.298.775-.312.226-.57.44-.778.644V100h-2.221v18.592c0 .76-.1 1.37-.295 1.815l-.196.446h2.111l.126-.03z"/>
            <path fill="#FFF" d="M366.563 109.425c.777-1.195 1.64-1.801 2.57-1.801 2.224 0 3.304 1.835 3.304 5.61 0 1.513-.242 2.762-.723 3.716-.222.446-.53.8-.913 1.05s-.791.376-1.21.376c-.44 0-.803-.052-1.081-.157-.545-.197-1.2-.867-1.947-1.993v-6.8zm1.644 9.329c.042.018.085.041.127.057.08.03.164.056.254.08l.01.002c.06.015.124.026.187.037.038.008.073.017.113.023l.072.008c.084.01.168.02.259.028.115.008.235.011.361.011.522 0 1.025-.156 1.497-.463.471-.308.848-.74 1.12-1.284.526-1.047.793-2.4.793-4.02 0-4.135-1.3-6.233-3.867-6.233-1.143 0-2.18.723-3.082 2.147l-.051.08v7.201l.054.083c.8 1.223 1.507 1.955 2.153 2.243z"/>
            <mask id="prefix__l" fill="#fff">
                <use xlink:href="#prefix__k"/>
            </mask>
            <path fill="#FFF" d="M377.713 119.287h1.574v-1.574h-1.574v1.574zM377 120h3v-3h-3v3zM390.54 108.214c-.508-.467-1.067-.704-1.663-.704-1.334 0-2.72.818-4.12 2.434l-.078.09v10.336h-1.085v-13.59h1.085v2.77l.505-.53c.725-.762 1.422-1.361 2.07-1.783.618-.402 1.36-.607 2.208-.607.835 0 1.52.28 2.096.858.562.564.848 1.44.848 2.602v10.28h-1.084v-10.28c0-.766-.263-1.397-.782-1.876zM393 121v-10.91c0-1.343-.348-2.372-1.034-3.06-.681-.683-1.524-1.03-2.504-1.03-.96 0-1.807.235-2.52.7-.532.346-1.092.803-1.669 1.361v-1.912H383V121h2.273v-10.72c1.254-1.42 2.467-2.14 3.604-2.14.455 0 .872.18 1.273.55.389.358.578.816.578 1.4V121H393zM382.703 138.73c.256-.624.386-1.275.386-1.936 0-1.222-.345-2.228-1.023-2.988-.686-.765-1.73-1.154-3.101-1.154-1.716 0-3.01.729-3.85 2.17-.374.658-.588 1.341-.637 2.034h-1.31c.052-.922.332-1.777.836-2.542.565-.857 1.315-1.527 2.228-1.99 1.829-.93 3.958-.93 5.557-.02.792.451 1.432 1.083 1.902 1.877.468.792.705 1.671.705 2.613s-.202 1.76-.601 2.427c-.455.77-.914 1.365-1.361 1.77-.47.422-.837.744-1.096.96l-1.069.839c-4.156 3.197-6.177 5.488-6.177 7.004v.312h10.033v1.27h-11.52c.011-1.215.086-1.703.15-1.896.11-.333.234-.675.37-1.026.128-.33.288-.634.474-.9.2-.286.45-.625.753-1.016.295-.384.642-.764 1.035-1.134.978-.94 1.817-1.678 2.49-2.192l2.373-1.786c.643-.472 1.079-.834 1.33-1.107.24-.264.462-.527.657-.783.206-.272.364-.545.466-.805m-.942.42c-.182.24-.391.489-.62.739-.22.24-.638.586-1.243 1.03l-2.378 1.789c-.693.529-1.55 1.282-2.542 2.236-.413.39-.783.795-1.097 1.204-.31.4-.567.746-.771 1.039-.215.308-.4.656-.546 1.034-.14.361-.266.714-.38 1.056-.124.376-.184 1.165-.184 2.41V152h12.728v-2.518h-9.994c.221-.983 1.507-2.816 5.898-6.193l1.078-.847c.27-.224.643-.551 1.12-.982.494-.447.993-1.09 1.48-1.912.458-.768.69-1.694.69-2.754 0-1.058-.267-2.047-.794-2.938-.525-.888-1.24-1.594-2.126-2.1-1.772-1.007-4.11-1.012-6.115.007-1.008.512-1.835 1.253-2.46 2.2-.63.957-.95 2.035-.95 3.205v.312h2.515v-.312c0-.687.19-1.37.564-2.028.73-1.254 1.82-1.864 3.33-1.864 1.197 0 2.092.32 2.659.954.571.64.862 1.503.862 2.564 0 .577-.114 1.146-.34 1.697-.083.211-.211.433-.384.66M452.6 455.396l-.394-.383-.187.084c-.258.115-.502.18-.668.18H334.29l-.116.024c-.274.114-.52.12-.564.098l-.127-.123-.103-.01c-.086-.01-.143-.023-.18-.034l.079-.154-.157-.153c-5.986-5.81-12.094-11.694-18-17.385-6.045-5.824-12.295-11.846-18.42-17.792l-.055-.045c.076-.11.303-.317.682-.509l.164-.083v-35.556h-5.146c-.41 0-.745-.332-.745-.74 0-.407.335-.74.745-.74h5.146v-56.814l-.04-.165-.003-.004.191-.266-.418-.11-.02-.006c.032-.046.094-.116.202-.203l.079-.064.023-.099c.02-.08.221-.209.481-.216l.108-.022c.233-.097.443-.15.591-.15 19.532-.002 39.39-.093 58.595-.18 19.204-.088 39.061-.179 58.592-.18.22 0 .344.023.407.042-.006.009-.013.019-.023.03l-.122.17.089.17.043.16.163.05c6.16 5.982 12.448 12.04 18.528 17.898 5.755 5.546 11.706 11.28 17.54 16.939l.073.071.103.012c.092.01.15.025.184.037l-.028.145.184.105c.025.015.035.025.037.06l.008.114.273.264c-.027.017-.061.037-.104.057l-.17.081v94.95l.278.268c-.193.124-.626.236-.735.177zm1.059-.696v-94.337c.157-.102.304-.244.334-.431.024-.145-.024-.285-.136-.393l-.226-.218c-.03-.118-.088-.22-.173-.303-.015-.068-.044-.131-.085-.188-.103-.137-.276-.226-.526-.27-5.812-5.637-11.738-11.347-17.47-16.87-6.075-5.854-12.356-11.906-18.51-17.881.078-.196.037-.347-.004-.43-.164-.34-.644-.379-.99-.379-19.533.002-39.39.093-58.594.18-19.205.088-39.062.178-58.593.18-.268 0-.56.091-.773.176-.39.027-.811.223-.956.566-.301.263-.427.518-.375.759.022.1.08.221.223.317.01.071.04.14.087.201v56.101h-4.546c-.742 0-1.346.6-1.346 1.336 0 .736.604 1.335 1.346 1.335h4.546v34.601c-.33.188-.888.574-.875 1.01.006.187.113.346.298.444 6.115 5.937 12.353 11.948 18.387 17.761 5.865 5.65 11.927 11.492 17.872 17.261-.012.13.025.228.057.286.096.174.286.282.58.33.13.112.31.156.503.156.212 0 .44-.054.633-.127H451.35c.245 0 .507-.072.723-.155l.107.104c.394.383 1.337.074 1.652-.244.247-.25.19-.525.025-.685l-.2-.193z" mask="url(#prefix__l)"/>
            <path fill="#FFF" d="M314.986 340.724c-5.838-5.535-11.675-11.07-17.495-16.621 19.15-.008 38.603-.094 57.424-.179 19.465-.087 39.592-.176 59.388-.179.029 0 .058 0 .089-.003v33.405h-81.238c-.245 0-.507.071-.723.15-5.804-5.535-11.626-11.054-17.445-16.573m18.168 17.016H415V323l-.385.103c-.12.033-.227.05-.312.05-19.797.002-39.925.091-59.391.178-19.065.086-38.778.174-58.167.179H296l.532.508c5.997 5.723 12.013 11.427 18.03 17.131 5.867 5.564 11.735 11.128 17.586 16.71l.148.141.19-.083c.257-.112.501-.177.668-.177M414.37 418.369h-14.714c.43-7.92 6.806-14.296 14.714-14.714v14.714zm-15.359.305L399 419h16v-16l-.325.01c-8.497.272-15.377 7.153-15.664 15.664zM416.594 358.39v-32.942c5.529 5.551 11.075 11.085 16.621 16.619 5.448 5.436 10.896 10.871 16.329 16.324h-32.95zm33.885.088c-5.606-5.629-11.228-11.239-16.85-16.849-5.714-5.7-11.429-11.403-17.124-17.123L416 324v35h35l-.52-.522zM451.4 452.578c-5.435-5.3-10.885-10.585-16.336-15.87-6.05-5.866-12.306-11.93-18.438-17.92.081-.203.036-.36-.024-.463v-58.439h34.453c.106 0 .221-.014.345-.042v92.734zm-.345-93.29h-35.053v59.266l.05.047-.003.003-.047.074-.002.449.192.073c6.137 5.995 12.399 12.066 18.454 17.938 5.62 5.449 11.241 10.898 16.844 16.365l.51.497v-95l-.41.16c-.21.083-.4.128-.535.128z" mask="url(#prefix__l)"/>
            <path fill="#FFF" d="M414.395 402.28c-8.702.405-15.703 7.403-16.12 16.115h-64.67v-58.79h80.79v42.674zM415 359h-82v60h65.859l.01-.293c.264-8.626 7.222-15.581 15.838-15.834l.293-.009V359zM333.674 454.262l-.066.002v-33.48h81.102c.165 0 .354-.032.563-.096 6.175 5.913 12.473 11.901 18.565 17.692 5.562 5.29 11.125 10.577 16.672 15.882H333.674zm100.587-16.307c-6.136-5.834-12.48-11.866-18.698-17.822l-.14-.133-.182.068c-.208.08-.397.122-.531.122H333V455l.382-.099c.112-.029.213-.044.292-.044H452l-.533-.51c-5.723-5.476-11.465-10.935-17.206-16.392zM331.387 418.399H297.6v-34.54h.47c.741 0 1.345-.605 1.345-1.35 0-.742-.604-1.347-1.346-1.347h-.469v-54.733c5.388 5.28 10.79 10.546 16.19 15.812 5.841 5.695 11.683 11.39 17.507 17.103-.012.125.018.243.09.342v58.713zM314.21 341.81c-5.571-5.432-11.142-10.863-16.699-16.31l-.51-.5v56.763h1.07c.41 0 .745.335.745.747s-.335.747-.746.747H297V419h34.987v-59.435l-.008-.152-.065-.05.086-.172-.157-.153c-5.867-5.755-11.75-11.491-17.634-17.228zM331.41 420.605v32.956c-5.329-5.347-10.674-10.68-16.018-16.012-5.56-5.547-11.304-11.279-16.947-16.944h32.965zm-33.893-.086c5.808 5.835 11.734 11.747 17.464 17.464 5.511 5.499 11.023 10.998 16.518 16.514L332 455v-35h-35l.517.519zM413.441 305.714c-19.515.002-39.357.097-58.545.19-19.092.091-38.833.187-58.25.19h-.3v5.08c-.12.098-.508.19-.746.202v-11.549c.12-.1.51-.192.747-.203v6.013l.421-.197c.255-.119.495-.186.659-.186 19.52-.003 39.368-.098 58.562-.19 19.13-.092 38.91-.187 58.364-.19h.3v-5.047c.121-.1.51-.192.747-.203v11.55c-.121.098-.51.19-.747.202v-6.134l-.434.226c-.295.155-.586.246-.778.246m.898 6.253c.071.022.158.033.265.033.295 0 1.396-.13 1.396-.771v-11.834c0-.134-.075-.299-.286-.362-.072-.022-.159-.033-.265-.033-.295 0-1.396.13-1.396.772v4.476c-19.36.004-39.035.098-58.067.19-19.193.092-39.04.187-58.56.19-.158 0-.323.031-.48.078v-5.311c0-.134-.074-.299-.285-.362-.072-.022-.158-.033-.265-.033-.295 0-1.396.13-1.396.772v11.833c0 .134.075.3.286.362.072.022.158.033.264.033.295 0 1.397-.13 1.397-.771v-4.51c19.322-.003 38.958-.098 57.951-.189 19.188-.092 39.03-.188 58.543-.19.205 0 .42-.053.612-.121v5.386c0 .134.075.3.286.362M469.447 358.452l.181.416c.113.257.174.49.174.654.002 19.531.098 34.007.19 48.006.09 13.93.186 28.335.189 47.72v.3h4.967c.114.127.224.588.23.852h-11.526c-.115-.126-.224-.588-.23-.851h6.043l-.207-.427c-.146-.299-.229-.582-.229-.775-.002-19.515-.097-33.982-.188-47.973-.092-13.908-.186-28.29-.19-47.622v-.3h-5c-.114-.126-.223-.588-.23-.852h11.527c.114.126.224.588.23.852h-5.93zm6.52.308c.022-.075.033-.166.033-.278 0-.294-.142-1.482-.804-1.482H463.4c-.134 0-.301.077-.365.292-.023.074-.034.166-.034.278 0 .295.142 1.482.804 1.482h4.423c.005 19.183.098 33.49.19 47.327.09 13.989.185 28.455.188 47.968 0 .199.047.408.111.601H463.4c-.134 0-.3.077-.365.292-.023.075-.034.166-.034.279 0 .293.142 1.481.804 1.481H475.6c.135 0 .302-.077.366-.292.023-.075.034-.166.034-.279 0-.294-.142-1.48-.804-1.48h-4.39c-.005-19.236-.099-33.566-.19-47.425-.092-13.998-.187-28.473-.19-48.002 0-.155-.03-.317-.072-.47h5.246c.135 0 .302-.077.366-.292z" mask="url(#prefix__l)"/>
            <path fill="#FFF" d="M386.678 392.034v10.336h-1.084v-13.592h1.084v2.773l.507-.531c.723-.76 1.419-1.36 2.068-1.783.619-.402 1.362-.607 2.209-.607.835 0 1.52.28 2.096.857.562.565.848 1.44.848 2.602v10.28h-1.084v-10.28c0-.765-.264-1.397-.782-1.876-.508-.467-1.068-.704-1.663-.704-1.335 0-2.72.82-4.12 2.435l-.079.09zm.595.247c1.254-1.421 2.466-2.142 3.604-2.142.454 0 .871.18 1.273.55.388.36.578.817.578 1.4V403H395v-10.91c0-1.342-.348-2.372-1.033-3.061-.683-.684-1.525-1.029-2.505-1.029-.958 0-1.806.236-2.52.7-.533.348-1.092.804-1.67 1.361v-1.913H385V403h2.273v-10.719zM400.26 389.353h-3.585c.067-.534.306-.999.722-1.41.273-.261.544-.489.805-.677l.672-.483c.684-.477.852-.68.92-.81.186-.325.281-.643.281-.947 0-.813-.517-1.278-1.42-1.278-.456 0-.831.146-1.118.436-.196.197-.325.413-.387.642h-.28c.065-.29.221-.536.473-.742.358-.294.787-.437 1.312-.437.52 0 .926.132 1.24.403.303.262.45.582.45.976 0 .415-.153.77-.459 1.08-.222.211-.454.408-.691.59-.259.2-.582.437-.968.709-.852.593-1.232 1.045-1.232 1.468v.324h3.266v.156zm.656-.803h-3.059c.138-.149.368-.351.75-.616.397-.281.727-.524.99-.728.254-.193.503-.406.75-.64.433-.438.653-.957.653-1.54 0-.583-.226-1.075-.672-1.463-.435-.373-.998-.563-1.673-.563s-1.257.197-1.731.586c-.492.404-.742.93-.742 1.564v.324h1.58v-.324c0-.18.08-.348.244-.514.16-.162.373-.241.649-.241.635 0 .765.252.765.63 0 .192-.066.404-.2.637-.008.014-.102.158-.731.597l-.672.484c-.286.205-.581.453-.88.74-.622.614-.937 1.351-.937 2.193V390h4.916v-1.45zM385.65 489.993c-1.153.92-2.718 1.387-4.652 1.387-2.393 0-4.45-.987-6.117-2.937l.88-.737c.484.597 1.192 1.183 2.112 1.744 1.009.603 2.132.907 3.337.907 1.22 0 2.326-.377 3.287-1.121.985-.76 1.485-1.823 1.485-3.157 0-1.319-.426-2.41-1.265-3.245s-1.962-1.259-3.337-1.259h-2.586v-1.037h2.586c1.286 0 2.277-.4 2.947-1.193.654-.772.986-1.746.986-2.893 0-1.167-.416-2.107-1.236-2.793-.806-.674-1.842-1.016-3.079-1.016-1.528 0-2.972.584-4.285 1.731-.158.132-.3.26-.423.385l-.848-.8c.604-.616 1.364-1.153 2.264-1.598.997-.492 2.079-.741 3.218-.741 1.137 0 2.14.215 2.983.64.838.425 1.521 1.008 2.03 1.735.502.717.757 1.5.757 2.325 0 1.323-.43 2.486-1.275 3.457-.377.433-.762.773-1.143 1.013l-.43.27.438.256c1.07.625 1.86 1.331 2.35 2.099.483.75.728 1.626.728 2.604 0 1.757-.56 3.057-1.711 3.974m-.634-8.961c.301-.235.598-.521.889-.855.946-1.086 1.426-2.383 1.426-3.857 0-.952-.292-1.852-.868-2.674-.568-.812-1.33-1.463-2.263-1.935-.934-.472-2.037-.711-3.277-.711-1.24 0-2.42.272-3.507.81-1.077.531-1.972 1.191-2.66 1.96l-.198.221 1.777 1.674.218-.264c.143-.17.335-.358.58-.56 1.197-1.048 2.498-1.578 3.864-1.578 1.08 0 1.976.291 2.663.866.682.57 1.014 1.33 1.014 2.323 0 1-.283 1.84-.84 2.5-.55.65-1.354.966-2.455.966h-3.224v2.277h3.224c1.213 0 2.156.35 2.881 1.073.729.723 1.083 1.643 1.083 2.81 0 1.153-.407 2.027-1.244 2.673-.846.655-1.819.987-2.89.987-1.086 0-2.097-.274-3.001-.814-.984-.6-1.7-1.222-2.128-1.844l-.2-.292-1.881 1.575.187.232c1.829 2.26 4.12 3.405 6.811 3.405 2.086 0 3.788-.514 5.058-1.528 1.29-1.028 1.944-2.527 1.944-4.453 0-1.097-.278-2.083-.825-2.932-.477-.749-1.202-1.44-2.158-2.055M401.41 492.36c-.96-.045-1.615-.317-1.952-.813-.323-.469-.499-1.074-.522-1.789v-10.241h-6.024v12.769h-1.074v-12.769h-1.248v-.884h10.72v.884h-1.249v9.537c0 1.75.679 2.294 1.35 2.406v.9zm-.76-3.306v-8.904h1.249V478H390v2.15h1.248v12.769h2.254V480.15h4.845v9.62c.027.855.242 1.58.636 2.152.485.715 1.401 1.078 2.722 1.078H402v-2.15h-.295c-.288 0-1.054 0-1.054-1.796zM408.26 477.197v.156h-3.585c.067-.535.306-.999.721-1.41.276-.264.548-.491.806-.676l.67-.483c.686-.48.853-.682.922-.81.186-.325.28-.644.28-.948 0-.813-.517-1.28-1.42-1.28-.453 0-.829.148-1.117.438-.196.198-.325.413-.388.642h-.278c.064-.29.22-.535.472-.741.358-.295.787-.438 1.311-.438.52 0 .927.132 1.241.404.302.262.45.58.45.975 0 .414-.153.77-.46 1.082-.218.206-.45.404-.69.587-.259.2-.582.437-.969.71-.851.593-1.231 1.046-1.231 1.468v.324h3.266zm-1.655-1.263l.002-.001c.396-.28.726-.524.99-.727.258-.197.507-.409.75-.64.433-.439.653-.957.653-1.54 0-.583-.226-1.075-.673-1.462-.434-.374-.997-.564-1.673-.564-.674 0-1.256.197-1.73.586-.493.405-.742.931-.742 1.564v.324h1.58v-.324c0-.18.08-.349.243-.513.162-.163.374-.243.649-.243.636 0 .765.253.765.632 0 .191-.066.403-.2.636-.013.024-.114.167-.73.597l-.672.484c-.283.202-.578.45-.88.74-.622.613-.937 1.351-.937 2.193V478h4.916v-1.45h-3.062c.137-.148.367-.35.75-.616zM311.747 384.331h-6.494c-.383 0-.694-.373-.694-.831 0-.458.311-.831.694-.831h6.494c.383 0 .694.373.694.831 0 .458-.311.831-.694.831m0-2.331h-6.494c-.691 0-1.253.672-1.253 1.5 0 .827.562 1.5 1.253 1.5h6.494c.69 0 1.253-.673 1.253-1.5 0-.828-.562-1.5-1.253-1.5M283.747 384.331h-6.494c-.383 0-.694-.373-.694-.831 0-.458.311-.831.694-.831h6.494c.383 0 .694.373.694.831 0 .458-.311.831-.694.831m0-2.331h-6.494c-.691 0-1.253.672-1.253 1.5 0 .827.562 1.5 1.253 1.5h6.494c.69 0 1.253-.673 1.253-1.5 0-.828-.562-1.5-1.253-1.5M323.695 384.331h-4.39c-.398 0-.723-.373-.723-.831 0-.458.325-.831.723-.831h4.39c.398 0 .723.373.723.831 0 .458-.325.831-.723.831m0-2.331h-4.39c-.72 0-1.305.672-1.305 1.5 0 .827.586 1.5 1.305 1.5h4.39c.72 0 1.305-.673 1.305-1.5 0-.828-.586-1.5-1.305-1.5M256.658 383.535h-5.772v37.93l-12.594 7.192-24.546 14.017-5.551 3.17V341.331l7.07-4.037 35.62-20.342v65.09h5.773c.41 0 .743.334.743.746s-.333.747-.743.747zm-6.079 52.83l-35.768 20.427-6.915 3.949-7.024-4.01-35.66-20.366 12.286-7.016 30.098 17.188v.341l.3-.17.299.17v-.34l30.097-17.189 12.287 7.016zm.307.518v16.704l-42.691 24.38v-16.705l6.88-3.929 35.81-20.45zm-85.981 16.704v-16.704l42.691 24.379v16.704l-42.691-24.379zm0-32.122V316.952l42.691 24.38v104.512l-3.021-1.725-27.076-15.462-12.594-7.192zm13.684-112.67l12.668 7.235 16.34 9.33v.342l.299-.171.299.17v-.34l4.559-2.604 24.448-13.961 13.377 7.64-35.582 20.319-7.101 4.055-7.2-4.11-35.485-20.265 13.378-7.64zm-13.684-25.21l42.691 24.379v16.704l-42.691-24.38v-16.703zm42.99-24.893l42.684 24.376-35.582 20.32-7.101 4.055-7.2-4.111-35.485-20.264 42.685-24.376zm42.99 24.893v16.704l-42.69 24.38v-16.705l7.07-4.038 35.62-20.341zm5.773 97.855h-5.174v-64.83l.307-.175-.307-.174v-.343l-.3.171-13.376-7.64 13.676-7.81v-17.396l.307-.175-.307-.175v-.342l-.3.17-43.14-24.636-.148-.085-43.29 24.722-.3-.171v.342l-.306.175.306.175v17.396l13.678 7.81-13.378 7.64-.3-.17v.342l-.306.174.306.175v105.205l12.586 7.188-12.286 7.016-.3-.17v.342l-.306.174.306.175v17.397l43.29 24.722V479l.3-.17.299.17v-.341l43.29-24.722V436.54l.306-.175-.307-.174v-.343l-.3.171-12.285-7.016 12.585-7.188v-37.678h5.174c.74 0 1.342-.605 1.342-1.349s-.602-1.348-1.342-1.348zM269.747 384.331h-6.494c-.383 0-.694-.373-.694-.831 0-.458.311-.831.694-.831h6.494c.383 0 .694.373.694.831 0 .458-.311.831-.694.831m0-2.331h-6.494c-.691 0-1.253.672-1.253 1.5 0 .827.562 1.5 1.253 1.5h6.494c.69 0 1.253-.673 1.253-1.5 0-.828-.562-1.5-1.253-1.5M285 12.678l66.749 35.24-9.715 5.5-7.679 4.346-2.122 1.201-12.354 6.993L285 85.701l-.55-.312-46.5-26.32-.148-.084h-.001l-2.123-1.202-15.495-8.771-1.932-1.093L285 12.679zm1.323 73.311c0-.105-.014-.21-.04-.313l-.001-.01 45.95-26.011 15.668 8.868-61.577 34.855V85.99zm62.839-35.915v16.07l-14.197-8.036 2.888-1.634 11.309-6.4zm1.84 19.097l-65.6 37.131c-.223.128-.513.128-.737 0l-65.562-37.104-.053-.04c-.057-.034-.101-.068-.143-.108-.036-.035-.069-.079-.129-.18-.02-.04-.038-.08-.066-.169-.017-.067-.025-.125-.025-.178V49.018c0-.052.005-.103.016-.154l1.48.838v17.542l15.495-8.771 1.514.857-16.243 9.193 63.277 35.817V85.99c0-.012.003-.024.004-.035l.77.435.72-.407.001.006v18.42l63.398-35.886-16.277-9.213 1.064-.602.45-.255 15.408 8.722V49.732l1.484-.84c.008.041.012.083.012.126V68.12l.033.065c.059.113.088.227.088.338 0 .269-.145.517-.379.648zM220.785 50.043l14.284 8.085-14.284 8.085v-16.17zm62.839 35.946v17.32l-61.456-34.786 15.634-8.848 45.87 25.964c-.001.005 0 .01-.002.016-.03.11-.046.221-.046.334zm-65.539-36.971v19.505c0 .102.014.208.043.324l.026.085c.025.076.055.148.102.237l.033.06c.062.099.125.18.203.255.069.067.15.129.213.163l.036.03 65.626 37.147c.202.115.433.176.667.176.235 0 .465-.061.667-.176l65.598-37.131c.422-.238.684-.686.684-1.17 0-.184-.041-.367-.121-.544V49.018c0-.146-.032-.29-.08-.428L353 47.9l-67.86-35.826L285 12l-67.515 35.645-.485.255 1.173.665c-.053.145-.088.296-.088.453zM503.262 102.695l76.517 43.56-49.19 28.005-27.327 15.557-12.786-7.278-63.732-36.283 76.518-43.56zm76.826 44.08v3.573l-76.524 43.565v-3.573l12.65-7.201 63.874-36.364zm-80.353 45.302v45.45c0 .564-1.021 1.192-2.486 1.192-1.464 0-2.485-.628-2.485-1.192v-48.28l-16.237-9.244V228.96c0 .563-1.02 1.191-2.485 1.191-1.465 0-2.486-.628-2.486-1.19v-51.787l-15.16-8.632v51.042c0 .563-1.02 1.192-2.485 1.192-1.466 0-2.486-.629-2.486-1.192V165.713l-26.99-15.365v-3.573l76.525 43.565v3.573l-3.225-1.836zm-5.574 30.967l-7.516-4.278-7.515-4.278v-33.446l15.03 8.557v33.445zm-21.208-12.073L465.975 207 459 203.027v-33.446l13.954 7.944v33.446zm50.303 29.333l-49.374 28.107-27.143 15.453-12.684-7.22-63.834-36.34 76.518-43.561 6.082 3.462v19.379c0 1.007 1.357 1.796 3.09 1.796 1.731 0 3.088-.79 3.088-1.796v-15.86l6.976 3.971 6.978 3.972v17.294c0 1.007 1.357 1.795 3.089 1.795s3.088-.788 3.088-1.795v-13.778l7.515 4.279 7.516 4.279v13.786c0 1.007 1.356 1.797 3.088 1.797s3.089-.79 3.089-1.797v-10.27l22.918 13.047zm.309.52v3.572l-76.525 43.565v-3.573l12.754-7.26 63.77-36.305zm-153.653 3.572v-3.573l76.525 43.565v3.573l-76.525-43.565zm55.92-98.66v.344l-.308.176.308.176v4.268l26.99 15.364v33.447l-6.083-3.464-77.128 43.909-.302-.172v.344l-.309.176.309.175v4.269l77.128 43.909V289l.302-.172.301.172v-.343l76.976-43.823.152-.086v-4.269l.31-.175-.31-.176v-.344l-.302.172-23.528-13.395v-33.445l2.622 1.492v.344l.302-.172.302.172v-.343l76.975-43.822.153-.087v-4.268l.308-.176-.308-.176v-.344l-.303.172-76.978-43.823-.149-.085-77.129 43.908-.301-.172z" mask="url(#prefix__l)"/>
            <path fill="#FFF" d="M497 151.611c1.423 0 2.414.635 2.414 1.205 0 .569-.991 1.203-2.414 1.203s-2.414-.634-2.414-1.203c0-.57.991-1.205 2.414-1.205zm2.414 16.573c0 .57-.991 1.205-2.414 1.205s-2.414-.635-2.414-1.205v-14.278c.032.027.075.046.108.07.09.065.181.126.284.183.059.033.12.062.184.091.108.05.22.096.339.137.07.023.137.047.209.067.133.038.273.067.416.093.068.011.131.027.2.036.218.029.441.047.674.047.233 0 .456-.018.673-.047.07-.009.133-.025.2-.036.144-.026.284-.055.417-.093.072-.02.14-.044.209-.067.119-.041.231-.087.34-.137.062-.03.124-.058.182-.09.104-.058.196-.119.284-.183.034-.025.077-.044.11-.07v14.277zM497 170c1.682 0 3-.798 3-1.816v-15.368c0-1.018-1.318-1.816-3-1.816s-3 .798-3 1.816v15.368c0 1.018 1.318 1.816 3 1.816zM478.414 160.184c0 .57-.991 1.205-2.414 1.205s-2.414-.635-2.414-1.205v-14.278c.03.025.073.044.107.069.089.065.182.127.286.184.058.033.12.062.183.091.107.05.22.096.339.136.068.024.137.048.21.068.131.038.271.066.414.093.068.011.132.027.202.036.217.03.44.047.673.047.233 0 .456-.018.672-.047.07-.009.134-.025.202-.036.143-.027.283-.055.416-.093.072-.02.14-.044.209-.068.119-.04.231-.086.34-.136.062-.029.123-.058.182-.09.104-.058.197-.12.286-.185.033-.025.075-.044.107-.07v14.28zM476 143.611c1.423 0 2.414.635 2.414 1.204 0 .57-.991 1.204-2.414 1.204s-2.414-.634-2.414-1.204.991-1.204 2.414-1.204zm0-.611c-1.682 0-3 .797-3 1.815v15.37c0 1.017 1.318 1.815 3 1.815s3-.798 3-1.816v-15.369c0-1.018-1.318-1.815-3-1.815zM456 135.02c-1.423 0-2.414-.635-2.414-1.205 0-.57.991-1.204 2.415-1.204 1.422 0 2.413.635 2.413 1.204 0 .57-.99 1.205-2.413 1.205zm2.414 14.165c0 .57-.99 1.204-2.413 1.204-1.424 0-2.415-.635-2.415-1.204v-14.28c.031.026.073.045.107.07.09.065.182.128.286.184.058.032.12.062.182.09.108.052.221.096.34.138.07.023.137.047.21.067.132.037.272.066.415.092.067.012.132.028.202.037.216.03.44.048.673.048.232 0 .455-.019.672-.048.07-.01.134-.025.202-.037.143-.026.282-.055.415-.092.072-.02.14-.044.21-.068.118-.04.23-.085.338-.136.063-.03.125-.059.183-.09.104-.058.197-.12.286-.185.033-.025.075-.044.107-.07v14.28zM456.001 132c-1.683 0-3.001.797-3.001 1.815v15.37c0 1.018 1.318 1.815 3 1.815s3-.797 3-1.815v-15.37c0-1.018-1.318-1.815-3-1.815zM275.276 210.542c-.911 2.05-1.57 4.164-1.955 6.281-.068.382-.51.653-.949.595-.22-.029-.412-.13-.543-.284-.131-.153-.185-.342-.15-.53.403-2.213 1.09-4.424 2.044-6.57.08-.179.234-.32.438-.399.107-.04.221-.061.335-.061.1 0 .201.016.298.048.209.068.373.2.464.375.09.173.097.366.018.545m.592-.78c-.163-.313-.46-.553-.834-.676-.373-.123-.781-.114-1.146.026-.367.14-.648.395-.79.718-.97 2.184-1.67 4.433-2.08 6.685-.061.34.035.68.27.957.237.277.585.46.984.513.077.01.154.015.23.015.744 0 1.366-.458 1.48-1.088.379-2.079 1.024-4.153 1.919-6.166.142-.32.131-.67-.033-.984M274.674 230.39c-.463.128-.996-.07-1.159-.427-.954-2.076-1.555-4.308-1.784-6.631-.018-.189.058-.372.215-.515.158-.144.376-.23.618-.245h.008c.028-.002.056-.003.085-.003.203 0 .397.055.555.158.187.123.305.303.324.495.216 2.198.783 4.306 1.682 6.264.17.366-.076.773-.544.904m-.993-8.098c-.33-.217-.746-.317-1.177-.287-.433.027-.828.184-1.111.442-.284.258-.422.588-.388.928.233 2.375.847 4.656 1.824 6.78.232.506.85.845 1.538.845.188 0 .373-.025.553-.075.846-.238 1.288-.97.984-1.631-.878-1.91-1.43-3.968-1.641-6.115-.035-.343-.246-.667-.582-.887M322.287 222.966c-.157.356-.655.547-1.076.415-.43-.14-.648-.55-.485-.918.91-2.06 1.564-4.175 1.942-6.286.07-.386.495-.652.952-.595.22.028.414.129.546.282.131.154.186.341.152.53-.395 2.21-1.08 4.42-2.031 6.572m1.433-7.95c-.821-.11-1.59.377-1.716 1.074v.001c-.371 2.071-1.013 4.147-1.907 6.17-.293.662.1 1.406.879 1.657.172.054.349.082.53.082.623 0 1.19-.334 1.41-.83.968-2.19 1.663-4.44 2.067-6.69.06-.34-.038-.68-.276-.956-.238-.277-.588-.457-.987-.509M319.294 230.663l-.102.157c-1.263 1.937-2.717 3.747-4.318 5.38-.273.278-.76.291-1.047.03-.296-.271-.31-.724-.03-1.01 1.535-1.564 2.928-3.3 4.144-5.164l.092-.142c.104-.163.267-.276.459-.32.057-.013.115-.02.171-.02.136 0 .27.037.39.108.167.1.285.258.33.443.046.187.014.378-.089.538m.071-1.47c-.303-.181-.661-.237-1.01-.159-.347.08-.642.285-.83.577l-.09.14c-1.194 1.83-2.564 3.537-4.07 5.074-.507.516-.483 1.334.053 1.822.25.228.575.353.918.353.365 0 .72-.147.971-.404 1.629-1.661 3.106-3.501 4.389-5.47l.104-.159c.187-.292.246-.638.164-.973-.083-.336-.295-.62-.599-.801M319.204 196.273c-.281.235-.719.18-.94-.12-1.23-1.668-2.7-3.081-4.37-4.2-.33-.218-.454-.693-.266-1.016.136-.234.345-.362.559-.362.106 0 .215.033.314.098l.108.072c1.798 1.205 3.383 2.728 4.709 4.525.228.31.177.76-.114 1.003m.539-1.357c-1.365-1.85-2.995-3.417-4.847-4.658l-.11-.073c-.559-.366-1.254-.174-1.617.45-.345.593-.144 1.42.438 1.804 1.617 1.084 3.04 2.452 4.233 4.069.23.312.578.492.951.492.274 0 .533-.095.747-.275.524-.44.616-1.251.205-1.81M325.06 209.183c-.156.143-.373.23-.612.246l-.073.002c-.466 0-.86-.286-.896-.651-.224-2.198-.796-4.304-1.7-6.26-.17-.367.072-.773.539-.907.1-.029.203-.043.307-.043.129 0 .258.023.379.066.218.08.384.223.466.4.96 2.08 1.568 4.31 1.803 6.632.019.188-.056.37-.212.515m-.91-7.34c-.148-.322-.448-.578-.842-.722-.393-.145-.833-.16-1.24-.042-.84.24-1.277.974-.972 1.636.883 1.907 1.442 3.963 1.66 6.11.067.659.778 1.175 1.618 1.175.043 0 .088-.002.13-.005.432-.026.825-.184 1.107-.443.281-.26.418-.59.382-.93-.24-2.372-.86-4.653-1.844-6.78M309.164 239.968c-1.811 1.387-3.728 2.523-5.696 3.378-.343.146-.746-.052-.876-.425-.066-.186-.063-.389.009-.572.072-.183.205-.324.373-.397 1.872-.814 3.696-1.896 5.422-3.216.114-.088.247-.134.383-.134.04 0 .081.005.123.013.177.036.331.147.434.311.103.165.141.364.109.56-.033.197-.133.37-.281.482m-.165-1.946c-.32-.064-.645.013-.912.218-1.692 1.294-3.478 2.355-5.311 3.15-.304.132-.543.387-.673.718-.13.331-.137.698-.018 1.033.184.522.63.859 1.136.859.15 0 .3-.03.445-.093 2.008-.871 3.962-2.03 5.807-3.443.269-.205.448-.513.507-.869.058-.355-.011-.714-.196-1.011-.186-.297-.465-.497-.785-.562M289.577 243.509c.04-.247.146-.459.302-.596.156-.138.344-.183.526-.13 2.007.58 4.114.716 6.262.404.376-.044.727.323.768.84.02.25-.034.497-.151.694-.117.196-.283.319-.469.346-2.295.333-4.562.182-6.702-.437-.181-.053-.337-.199-.44-.41-.1-.212-.134-.464-.096-.711m.419 1.865c1.437.415 2.932.626 4.444.626.801 0 1.62-.06 2.436-.177.69-.1 1.19-.942 1.117-1.878-.074-.931-.692-1.611-1.386-1.514-2.088.302-4.136.172-6.085-.393-.331-.095-.666-.01-.948.237-.282.248-.476.63-.546 1.076-.07.445-.008.9.175 1.283.183.382.465.644.793.74M283.158 197.783c.302.275.317.736.033 1.028-1.533 1.573-2.928 3.319-4.149 5.19l-.044.07c-.21.33-.691.441-1.036.234-.17-.1-.29-.261-.336-.45-.046-.19-.013-.384.092-.549l.054-.084c1.267-1.944 2.721-3.763 4.323-5.408.138-.14.324-.222.525-.229.203.01.392.064.538.198m-1.504-.37c-1.629 1.672-3.107 3.522-4.395 5.5l-.056.085c-.19.298-.25.65-.166.99.082.342.299.632.607.816.215.128.462.196.713.196.475 0 .907-.232 1.156-.622l.043-.066c1.198-1.838 2.57-3.554 4.076-5.1.513-.528.487-1.36-.058-1.856-.265-.24-.605-.368-.973-.355-.363.011-.699.157-.947.412M294.027 191.042c-1.872.817-3.695 1.901-5.42 3.223-.297.229-.737.138-.942-.186-.102-.164-.141-.362-.11-.558.033-.197.132-.367.28-.481 1.81-1.387 3.725-2.526 5.694-3.385.08-.036.165-.053.25-.053.09 0 .182.02.268.062.165.079.293.225.36.41.137.383-.034.817-.38.968m.236-1.93c-.3-.144-.633-.15-.934-.016-2.008.876-3.96 2.037-5.804 3.45-.268.206-.448.513-.505.868-.058.354.012.712.199 1.007.228.363.603.579 1.004.579.25 0 .49-.084.695-.242 1.691-1.295 3.477-2.357 5.308-3.157.304-.132.542-.387.672-.717.13-.33.136-.696.016-1.03v-.001c-.121-.335-.352-.598-.65-.74" mask="url(#prefix__l)"/>
            <path fill="#FFF" d="M214.963 164.836c4.25-6.657 10.394-11.585 17.3-13.877 6.935-2.301 13.807-1.672 19.356 1.774l60.59 37.629c.186.117.242.361.124.546-.113.177-.37.235-.551.124l-2.95-1.834v.541c0 .058-.005.11-.016.159-.072.341-.381.589-.735.589-.054 0-.106-.005-.155-.015-2.162-.445-4.433-.543-6.756-.29-.405.045-.784-.25-.829-.657-.045-.406.253-.773.665-.818 2.078-.226 4.143-.184 6.14.122l1.446.221-52.45-32.575.969 1.284c6.558 8.683 6.27 21.87-.713 32.81-4.25 6.658-10.393 11.586-17.299 13.877-4.482 1.486-8.952 1.784-13.26.752l-1.8-.43 53.618 33.3-.271-.794c-.102-.3-.003-.63.247-.82.159-.123.358-.173.553-.152.2.025.378.124.501.28 1.39 1.763 3.057 3.254 4.953 4.431.35.218.47.688.26 1.026-.213.342-.648.473-1.014.258l-.07-.044c-.678-.42-1.385-.935-2.165-1.573l-.145-.074-.128.014c-.076 0-.148-.02-.212-.06l-60.588-37.63c-.155-.096-.173-.263-.175-.33l-.002-.156-.132-.087c-10.959-7.241-12.89-24.072-4.306-37.521m4.292 38.6l60.59 37.63c.156.096.334.147.516.15.762.62 1.46 1.125 2.128 1.54.02.012.087.054.094.057.207.122.44.187.678.187.47 0 .903-.243 1.154-.65.386-.62.183-1.447-.452-1.842-1.837-1.14-3.45-2.584-4.798-4.292-.223-.282-.544-.462-.905-.506-.361-.045-.714.053-.998.272-.271.208-.445.505-.5.825l-49.43-30.7c3.924.642 7.934.24 11.96-1.096 7.037-2.334 13.295-7.35 17.618-14.123 6.799-10.653 7.353-23.413 1.54-32.275l47.43 29.459c-1.62-.152-3.277-.138-4.94.042-.744.08-1.283.743-1.2 1.476.081.733.75 1.256 1.497 1.184 2.257-.245 4.466-.15 6.565.282.09.018.183.027.279.027.566 0 1.069-.35 1.266-.858l2.114 1.313c.463.284 1.101.134 1.384-.313.296-.462.155-1.076-.314-1.367l-60.59-37.63c-5.705-3.543-12.763-4.193-19.871-1.834-7.038 2.334-13.295 7.35-17.619 14.124-8.727 13.67-6.761 30.794 4.363 38.255.048.276.206.516.44.662" mask="url(#prefix__l)"/>
            <path fill="#FFF" d="M239.362 170.816c.688 1.277 1.023 2.676 1.023 4.262 0 3.517-1.748 7.303-5.587 7.303-1.212 0-2.144-.32-2.98-1.035l7.544-10.53zm-8.166 10.8c1.012.957 2.123 1.384 3.602 1.384 3.652 0 6.202-3.257 6.202-7.922 0-1.847-.428-3.46-1.31-4.929l-.089-.149h-.412L231 181.43l.196.185z" mask="url(#prefix__l)"/>
            <path fill="#FFF" d="M226.608 175.516c0-5.344 3.278-9.075 7.972-9.075 1.604 0 3.087.476 4.288 1.378l.246.184 1.579-2.169.909.618-1.612 2.239.168.182c1.44 1.574 2.234 3.847 2.234 6.403 0 6.307-3.95 9.129-7.866 9.129-1.605 0-3.107-.477-4.344-1.38l-.245-.18-1.667 2.278-.835-.682 1.627-2.288-.166-.18c-1.476-1.61-2.288-3.904-2.288-6.457zm.002 9.036l1.772 1.448 1.69-2.31c1.292.867 2.826 1.323 4.454 1.323 4.218 0 8.474-3.01 8.474-9.737 0-2.61-.79-4.953-2.23-6.628l1.69-2.348-1.912-1.3-1.566 2.152c-1.26-.865-2.775-1.32-4.402-1.32-5.052 0-8.58 3.983-8.58 9.684 0 2.611.81 4.973 2.284 6.682l-1.674 2.354zM198.246 131.838l-4.63 4.408c-.262.249-.697.218-.927-.07-.237-.3-.209-.754.064-1.014l4.63-4.407c.133-.126.307-.183.477-.175.175.014.334.1.45.246.115.144.172.33.16.52-.012.192-.092.366-.224.492m-.35-1.834c-.311-.026-.62.088-.86.315l-4.63 4.407c-.492.47-.544 1.29-.116 1.828.226.283.551.446.895.446.286 0 .561-.113.778-.318l4.63-4.408c.239-.227.382-.542.404-.887.022-.346-.08-.68-.288-.94-.208-.261-.496-.42-.812-.443M189.246 139.839l-4.63 4.407c-.264.25-.698.216-.927-.07-.114-.145-.171-.33-.159-.52.012-.193.091-.367.224-.494l4.63-4.407c.12-.114.271-.177.43-.177.015 0 .03 0 .046.003.175.013.334.1.45.245.115.144.172.329.16.52-.012.192-.092.367-.224.493m-.35-1.835c-.32-.027-.62.088-.86.315l-4.629 4.407c-.239.228-.382.544-.404.889-.022.345.08.68.288.94.226.283.551.445.895.445.285 0 .56-.113.777-.318l4.63-4.408c.239-.227.382-.542.404-.887.022-.346-.08-.68-.288-.94-.208-.262-.497-.42-.813-.443M204.86 126.932l-.414.275c-.398.263-1.057.228-1.401-.074-.175-.152-.262-.346-.243-.547.018-.201.139-.385.339-.518l.414-.274c.183-.121.413-.187.652-.187.023 0 .046 0 .07.002.265.015.505.106.68.258.359.315.316.792-.096 1.065m-.53-1.929c-.473-.024-.94.093-1.301.332l-.415.275c-.361.239-.578.57-.61.933-.033.364.122.715.437.989.339.298.832.468 1.352.468.433 0 .85-.119 1.177-.335l.414-.275c.746-.493.824-1.355.176-1.922-.316-.275-.751-.44-1.23-.465M173.69 154.174c-.115-.144-.172-.329-.16-.52.012-.19.092-.366.224-.492l4.63-4.408c.12-.115.271-.176.43-.176.015 0 .03 0 .046.002.175.013.335.1.45.245.115.144.172.33.16.52-.012.193-.092.367-.224.493l-4.63 4.408c-.264.25-.697.217-.926-.072m1.273.508l4.63-4.408c.239-.227.382-.543.404-.888.022-.345-.08-.68-.288-.94-.208-.261-.496-.419-.812-.443-.315-.024-.622.089-.86.315l-4.63 4.408c-.238.227-.382.543-.404.888-.022.346.081.68.288.94.225.283.551.446.894.446.286 0 .562-.113.778-.318M168.246 158.839l-4.63 4.407c-.263.25-.697.217-.927-.071-.114-.145-.171-.33-.159-.521.012-.191.091-.366.223-.492l4.63-4.407c.133-.126.307-.189.478-.175.175.014.334.1.45.246.114.144.17.329.159.52-.012.192-.092.367-.224.493m-.349-1.835c-.32-.027-.621.088-.86.314l-4.63 4.408c-.24.228-.382.543-.404.888-.022.346.08.68.288.94.225.283.551.446.894.446.286 0 .562-.113.778-.318l4.63-4.408c.239-.227.382-.542.404-.888.022-.345-.08-.679-.288-.939-.208-.262-.496-.42-.812-.443M146.246 177.838l-4.63 4.408c-.264.25-.698.216-.927-.07-.114-.145-.171-.33-.159-.522.012-.191.091-.366.224-.492l4.63-4.408c.12-.114.272-.176.43-.176.015 0 .03 0 .046.002.175.013.335.1.45.245.115.144.172.33.16.52-.012.192-.092.367-.224.493m-.35-1.835c-.31-.022-.62.088-.859.315l-4.63 4.408c-.239.227-.382.543-.404.888-.022.346.08.68.288.94.226.284.551.446.895.446.285 0 .56-.113.777-.318l4.63-4.408c.239-.228.382-.543.404-.889.022-.345-.08-.679-.288-.94-.208-.26-.496-.418-.812-.442M25.035 289.299l-2.965 2.757c-.337.313-.894.272-1.188-.088-.304-.373-.266-.942.082-1.268l2.966-2.757c.16-.148.356-.22.552-.22.235 0 .469.104.636.308.304.373.267.942-.083 1.268m-1.549-1.901l-2.967 2.757c-.63.588-.696 1.614-.147 2.288.289.355.706.557 1.146.557.366 0 .72-.141.996-.398l2.965-2.758c.632-.587.698-1.614.149-2.289-.552-.673-1.512-.744-2.142-.157M67.248 252.832l-4.638 4.416c-.263.25-.696.216-.923-.07-.114-.144-.171-.328-.159-.519.012-.19.092-.365.223-.49l4.638-4.417h.001c.12-.114.27-.176.428-.176.014 0 .03 0 .045.002.175.014.334.1.45.245.114.144.17.327.159.518-.012.191-.091.365-.224.491m-.35-1.829c-.309-.025-.618.089-.854.315l-4.639 4.416c-.238.226-.38.54-.402.885-.022.345.08.678.287.937.224.282.549.444.891.444.284 0 .559-.113.775-.317l4.638-4.416c.238-.227.382-.542.403-.886.022-.344-.08-.677-.287-.936-.208-.261-.496-.418-.811-.442M45.25 271.83l-4.64 4.418c-.262.25-.694.217-.923-.07-.237-.299-.208-.752.064-1.01l4.639-4.418c.272-.258.686-.227.924.07.236.298.208.751-.065 1.01m-1.205-1.515l-4.639 4.418c-.238.227-.38.54-.402.885-.022.344.08.677.287.937.224.283.549.445.89.445.286 0 .56-.113.776-.317l4.639-4.418c.491-.468.543-1.286.116-1.822-.428-.537-1.175-.593-1.667-.128M57.25 262.831l-4.64 4.417c-.262.25-.694.217-.923-.07-.237-.298-.208-.75.064-1.01l4.639-4.417c.272-.26.687-.227.923.07.237.298.209.751-.064 1.01m-1.205-1.515l-4.639 4.417c-.238.227-.38.541-.402.885-.022.345.08.678.287.938.224.282.55.444.89.444.286 0 .56-.113.776-.317l4.64-4.417c.49-.469.542-1.287.114-1.823-.426-.536-1.174-.594-1.666-.127M35.249 280.832l-4.639 4.416c-.262.25-.695.217-.923-.07-.114-.144-.171-.328-.159-.519.012-.191.091-.365.223-.49l4.638-4.417c.121-.114.271-.176.43-.176.014 0 .03 0 .045.002.175.013.333.1.449.245.114.144.17.328.159.519-.013.19-.091.364-.223.49m-.348-1.829c-.314-.024-.62.089-.857.315l-4.639 4.416c-.238.227-.38.54-.402.885-.022.345.08.677.287.937.225.282.55.444.89.444.286 0 .56-.113.776-.317l4.638-4.417c.238-.226.382-.54.403-.884.022-.345-.08-.677-.287-.937-.207-.26-.494-.418-.81-.442M78.248 243.833l-4.638 4.415c-.262.25-.695.217-.923-.07-.114-.144-.171-.328-.159-.519.012-.191.091-.365.223-.49l4.638-4.416c.12-.114.271-.176.429-.176.015 0 .03 0 .046.002.175.013.333.1.449.245.114.144.17.328.159.519-.013.19-.091.364-.224.49m-.348-1.829c-.313-.028-.619.088-.856.314l-4.639 4.416c-.238.227-.38.541-.402.885-.022.345.08.677.287.937.224.282.55.444.89.444.286 0 .56-.113.776-.317l4.638-4.416c.238-.226.381-.54.403-.884.022-.345-.08-.677-.287-.937-.207-.26-.494-.418-.81-.442M23.166 312.494c-.67.59-1.532.89-2.567.89-3.431 0-8.729-3.37-13.182-8.388-2.695-3.037-4.874-6.48-5.978-9.45-.854-2.295-1.474-5.381.42-7.056.627-.553 1.503-.845 2.576-.845 3.156 0 8.009 2.527 13.172 8.344 2.772 3.124 4.902 6.496 5.996 9.498 1.177 3.23 1.022 5.717-.437 7.007m-5.097-16.913c-5.362-6.042-13.014-10.741-16.62-7.551-1.706 1.507-1.91 4.18-.59 7.73 1.13 3.038 3.352 6.553 6.096 9.644C10.475 309.37 16.16 314 20.599 314c1.19 0 2.191-.351 2.976-1.045 1.662-1.468 1.878-4.195.608-7.679-1.12-3.072-3.291-6.515-6.114-9.695" mask="url(#prefix__l)"/>
            <path fill="#FFF" d="M21.865 310.073c-.765.646-2.652.33-4.927-.822-2.615-1.325-5.443-3.55-7.966-6.265-5.712-6.149-7.264-11.84-5.824-13.057.261-.22.652-.332 1.162-.332.75 0 1.736.249 2.874.74 2.504 1.08 5.745 3.331 8.858 6.68 2.633 2.834 4.644 5.865 5.663 8.535.83 2.171.89 3.904.16 4.521m-.538-6.837c-1.145-2.163-2.803-4.448-4.817-6.615C12.34 292.134 7.323 289 4.31 289c-.667 0-1.197.162-1.577.482-2.131 1.801.565 8.296 5.77 13.9 2.572 2.767 5.463 5.038 8.141 6.396.2.101.396.196.59.284 1.351.622 2.535.938 3.469.938.496 0 .92-.09 1.263-.27.115-.06.22-.13.315-.21.954-.807.959-2.692.013-5.173-.261-.684-.586-1.39-.967-2.111M210.399 122.995c-2.775-3.122-4.905-6.495-6-9.496-1.179-3.23-1.024-5.718.437-7.008.627-.553 1.505-.845 2.578-.845 3.159 0 8.016 2.527 13.185 8.344 6.926 7.795 8.035 14.321 5.563 16.504-.67.59-1.534.89-2.568.89-3.435 0-8.737-3.37-13.195-8.389m16.172 7.96c3.613-3.19-.142-11.332-5.51-17.373-5.367-6.042-13.023-10.743-16.635-7.552-1.663 1.469-1.88 4.196-.608 7.68 1.12 3.071 3.293 6.514 6.118 9.693 3.524 3.966 9.214 8.597 13.658 8.597 1.19 0 2.191-.351 2.977-1.045" mask="url(#prefix__l)"/>
            <path fill="#FFF" d="M218.924 128.25c-2.614-1.325-5.443-3.55-7.965-6.264-2.635-2.837-4.647-5.867-5.664-8.535-.83-2.173-.89-3.906-.16-4.522.261-.22.652-.332 1.16-.332 2.405 0 7.207 2.549 11.733 7.42 5.712 6.148 7.264 11.839 5.823 13.056-.762.645-2.65.331-4.927-.823m-.428-12.628c-4.169-4.488-9.185-7.622-12.2-7.622-.666 0-1.197.162-1.577.482-.954.806-.96 2.692-.012 5.173 1.043 2.737 3.097 5.835 5.783 8.726 2.571 2.768 5.462 5.038 8.14 6.396 1.599.81 2.993 1.223 4.06 1.223.66 0 1.196-.16 1.576-.48 2.133-1.801-.564-8.296-5.77-13.898M99.38 378.619v1.022h-4.429l-6.165 21.742-4.948-8.95.865-.488 3.768 6.883 5.56-20.209h5.35zm-11.1 18.57l-3.335-6.091-1.945 1.1L88.971 403l6.448-22.74H100V378h-6.441l-5.28 19.189zM111.651 399.993c-1.154.92-2.72 1.387-4.653 1.387-2.393 0-4.45-.987-6.117-2.937l.88-.737c.484.597 1.191 1.182 2.112 1.744 1.009.602 2.132.907 3.337.907 1.22 0 2.326-.377 3.287-1.121.985-.76 1.485-1.823 1.485-3.157 0-1.32-.426-2.412-1.264-3.245-.84-.835-1.963-1.259-3.338-1.259h-2.585v-1.037h2.585c1.285 0 2.277-.401 2.947-1.194.654-.773.987-1.746.987-2.892 0-1.167-.417-2.107-1.237-2.793-.806-.674-1.842-1.016-3.079-1.016-1.528 0-2.972.584-4.285 1.731-.157.132-.299.26-.422.385l-.85-.8c.605-.616 1.365-1.153 2.265-1.598.997-.492 2.08-.741 3.218-.741 1.137 0 2.14.215 2.983.64.838.425 1.522 1.008 2.03 1.735.502.717.757 1.5.757 2.325 0 1.323-.43 2.486-1.275 3.457-.378.433-.763.774-1.143 1.013l-.43.27.438.256c1.07.625 1.86 1.33 2.35 2.098.483.75.728 1.627.728 2.605 0 1.757-.559 3.057-1.71 3.974m-.635-8.961c.3-.235.597-.521.889-.855.946-1.086 1.426-2.383 1.426-3.857 0-.952-.292-1.852-.868-2.674-.568-.812-1.33-1.463-2.263-1.935-.933-.472-2.036-.711-3.277-.711-1.24 0-2.42.272-3.507.809-1.077.533-1.972 1.192-2.66 1.96l-.198.222 1.777 1.674.22-.264c.142-.172.335-.359.578-.56 1.198-1.048 2.498-1.578 3.864-1.578 1.08 0 1.976.291 2.663.866.683.57 1.015 1.33 1.015 2.323 0 1-.283 1.84-.842 2.5-.55.65-1.353.966-2.454.966h-3.223v2.277h3.223c1.213 0 2.156.35 2.882 1.072.728.723 1.082 1.644 1.082 2.812 0 1.152-.407 2.026-1.244 2.672-.846.655-1.819.987-2.89.987-1.086 0-2.097-.275-3.001-.814-.985-.601-1.7-1.222-2.128-1.844l-.2-.292-1.881 1.575.187.232c1.829 2.26 4.12 3.405 6.811 3.405 2.085 0 3.787-.514 5.058-1.528 1.29-1.028 1.944-2.527 1.944-4.453 0-1.097-.278-2.083-.825-2.932-.477-.749-1.202-1.44-2.158-2.055M128.468 398.563c-.671 1.154-1.601 1.972-2.767 2.434-.627.25-1.322.378-2.07.378-1.875 0-3.309-.75-4.383-2.293-1.084-1.555-1.633-3.775-1.633-6.6 0-3.462.68-6.174 2.019-8.06 1.336-1.883 3.13-2.797 5.483-2.797.572 0 1.208.136 1.887.405.55.219.956.448 1.208.682l-.495.926c-.981-.652-1.94-.981-2.85-.981-1.7 0-3.134.803-4.26 2.386-1.1 1.549-1.716 3.75-1.833 6.544l-.034.844.567-.618c.01-.01.076-.102.195-.28.095-.144.179-.263.252-.357.07-.094.183-.224.335-.393.152-.166.303-.31.449-.43.144-.119.335-.252.566-.397.226-.142.458-.259.684-.346.578-.21 1.203-.317 1.856-.317 1.687 0 3.082.538 4.144 1.601 1.06 1.06 1.597 2.495 1.597 4.26 0 1.201-.309 2.35-.917 3.409m-4.824-9.894c-.724 0-1.418.118-2.068.354-.268.104-.536.238-.795.401-.257.161-.463.306-.63.443-.168.139-.34.304-.513.492l-.178.2c.205-2.169.757-3.899 1.645-5.15 1.019-1.431 2.25-2.127 3.762-2.127.869 0 1.805.357 2.78 1.063l.283.204 1.026-1.922-.129-.162c-.3-.376-.823-.708-1.6-1.017-.75-.297-1.46-.448-2.11-.448-2.53 0-4.543 1.028-5.982 3.055-1.416 1.996-2.135 4.831-2.135 8.427 0 2.956.587 5.299 1.746 6.96 1.18 1.698 2.825 2.558 4.886 2.558.824 0 1.596-.142 2.293-.422 1.296-.513 2.329-1.42 3.073-2.699.665-1.158 1.002-2.412 1.002-3.725 0-1.94-.599-3.523-1.781-4.705-1.181-1.182-2.72-1.78-4.575-1.78" mask="url(#prefix__l)"/>
            <path fill="#FFF" d="M127.409 395.163c-.007.053-.021.098-.03.15-.03.205-.064.409-.115.594-.127.463-.318.864-.572 1.197-.115.149-.24.286-.371.413-.133.126-.274.242-.422.346-.296.206-.596.355-.893.443-.592.174-1.333.21-2.08-.089-1.43-.567-2.208-1.975-2.379-4.302.2-.877.498-1.577.89-2.077.672-.86 1.545-1.277 2.67-1.277 1.03 0 1.827.326 2.437.998.606.667.913 1.598.913 2.767 0 .294-.016.573-.048.837M124.106 390c-1.28 0-2.32.499-3.09 1.485-.45.575-.79 1.365-1.007 2.346l-.009.04.003.043c.178 2.555 1.096 4.179 2.728 4.827.433.172.864.259 1.282.259.41 0 .795-.052 1.143-.155.35-.104.703-.278 1.046-.517.343-.239.65-.533.915-.874v-.001c.586-.768.883-1.82.883-3.127 0-1.317-.357-2.377-1.06-3.15-.708-.78-1.662-1.176-2.834-1.176M378.835 20.827l.085-.07c1.205-.99 6.126 1.257 11.54 6.182 1.355 1.232 2.537 2.447 3.536 3.597 2.994 3.449 4.328 6.31 3.653 7.258l-.07.098c-.553.55-2.1.26-4.157-.783-2.253-1.143-4.895-3.047-7.44-5.363-5.504-5.007-8.174-9.757-7.147-10.919zm5.644-6.065c8.272-8.88 18.63-13.634 30.784-14.132 12.221-.45 22.928 3.447 31.861 11.571 8.94 8.133 13.727 18.346 14.23 30.356.502 12.01-3.438 22.603-11.71 31.482l-4.8 5.153c-.005-.065-.02-.135-.03-.201-.008-.069-.016-.137-.03-.207-.024-.127-.059-.26-.096-.394-.018-.062-.03-.121-.05-.185-.065-.2-.14-.405-.231-.618-.017-.04-.04-.08-.056-.121-.08-.178-.164-.36-.26-.547-.042-.08-.089-.164-.133-.246-.082-.151-.166-.303-.257-.457-.054-.094-.112-.187-.17-.281-.093-.151-.19-.304-.29-.458l-.192-.289c-.11-.162-.225-.325-.342-.488-.065-.091-.128-.18-.195-.271-.147-.201-.302-.403-.46-.606-.043-.056-.082-.11-.126-.166-.204-.259-.417-.52-.635-.78l-.18-.21c-.164-.193-.33-.386-.5-.578l-.254-.283c-.153-.169-.307-.338-.464-.506-.092-.1-.185-.198-.28-.296-.156-.166-.315-.33-.476-.494l-.28-.285c-.174-.174-.349-.345-.525-.515-.083-.081-.165-.163-.25-.243-.258-.248-.52-.493-.783-.732-.266-.242-.536-.48-.809-.717l-.265-.224c-.188-.162-.378-.322-.569-.48l-.306-.25c-.186-.15-.372-.298-.559-.445l-.294-.23c-.21-.16-.418-.317-.627-.473l-.223-.165c-.59-.43-1.177-.835-1.756-1.207-.017-.012-.034-.022-.052-.033-.272-.175-.543-.341-.81-.5l-.104-.062c-.26-.153-.517-.298-.77-.434l-.066-.036c-1.415-.757-2.694-1.233-3.686-1.298h-.01c-.073-.005-.15-.016-.219-.016h-.085l4.818-5.17c3.55-3.81 5.17-8.171 4.955-13.332-.252-5.19-2.231-9.401-6.052-12.876-3.857-3.508-8.27-5.109-13.49-4.898-5.22.214-9.482 2.17-13.033 5.981l-4.863 5.22c-.002-.084-.018-.179-.028-.27-.007-.059-.008-.115-.018-.176-.03-.183-.073-.372-.133-.571-.004-.017-.013-.035-.018-.051-.057-.186-.127-.378-.207-.575-.032-.076-.07-.155-.104-.232-.064-.145-.13-.289-.204-.437l-.144-.276c-.076-.143-.155-.286-.24-.432l-.175-.293c-.09-.15-.186-.3-.285-.452-.063-.099-.126-.196-.193-.295-.11-.166-.228-.333-.348-.5-.062-.089-.121-.175-.187-.264-.182-.251-.373-.503-.573-.758l-.05-.065c-.194-.245-.395-.492-.6-.74l-.233-.271c-.149-.175-.3-.35-.454-.525-.09-.103-.182-.205-.275-.307-.149-.165-.298-.328-.45-.492-.097-.105-.194-.208-.293-.311-.156-.164-.313-.328-.473-.49-.096-.1-.193-.198-.29-.296-.176-.175-.353-.348-.53-.52-.084-.083-.168-.165-.253-.246-.263-.252-.53-.5-.796-.744-.267-.243-.54-.484-.815-.722l-.25-.213c-.197-.168-.395-.335-.595-.5-.091-.075-.183-.15-.276-.224-.202-.164-.404-.326-.608-.485-.08-.064-.161-.127-.243-.19-.236-.181-.47-.359-.707-.533l-.142-.105c-2.91-2.129-5.805-3.65-7.571-3.597l4.816-5.17zm55.371 64.581c-2.251-1.142-4.893-3.047-7.439-5.363-5.506-5.008-8.177-9.76-7.145-10.922l.083-.067c.086-.07.194-.12.317-.158.038-.012.083-.018.126-.026.091-.02.19-.033.299-.036.07-.003.14-.004.216 0l.161.01c.1.011.205.028.314.048.053.01.104.017.16.028.153.033.314.075.484.125.016.006.03.009.047.013.187.058.383.127.588.204l.199.08c.145.058.291.12.444.187.082.036.167.076.251.115.146.068.293.139.444.215.09.044.181.09.273.139.158.082.318.17.482.26.089.05.178.098.269.15.193.11.39.228.59.35.066.04.13.076.195.117.268.166.542.343.821.528l.181.124c.222.15.445.303.672.465l.295.213c.194.141.39.286.589.436.11.082.22.167.33.252.194.149.39.303.587.461.11.089.222.178.334.27.211.172.425.35.638.532.098.083.195.163.294.248.311.27.625.546.941.832 1.005.915 1.916 1.821 2.727 2.699 3.516 3.806 5.165 7.08 4.476 8.132-.015.023-.03.047-.062.106-.536.577-2.1.289-4.18-.767zm-54.276-47.158c2.584 2.35 5.273 4.288 7.573 5.454 1.132.575 2.5 1.127 3.572 1.127.474 0 .884-.117 1.197-.379l.065.059 5.75-6.172c3.437-3.688 7.562-5.582 12.614-5.789 5.057-.212 9.324 1.345 13.056 4.74 3.699 3.364 5.615 7.442 5.858 12.464.209 4.993-1.36 9.213-4.796 12.902l-5.547 5.953-.052.066c-.014.012-.024.016-.038.03-1.72 1.846 2.415 7.446 7.176 11.78 2.585 2.35 5.275 4.287 7.573 5.453 1.133.575 2.5 1.127 3.573 1.127.539 0 1.004-.14 1.327-.487.043-.046.073-.1.11-.162l5.503-5.908c8.384-9 12.377-19.736 11.869-31.91-.51-12.175-5.363-22.527-14.425-30.77C438.48 3.529 427.616-.414 415.24.034c-12.32.505-22.82 5.324-31.204 14.324l-5.546 5.954-.047.057c-.016.014-.028.02-.045.037-1.718 1.846 2.414 7.446 7.177 11.78zM356.993 127.602h49.014c.217 0 .395.179.395.398 0 .22-.178.398-.395.398h-49.014c-.217 0-.395-.179-.395-.398 0-.22.178-.398.395-.398m0 1.398h49.014c.548 0 .993-.449.993-1 0-.551-.445-1-.993-1h-49.014c-.548 0-.993.449-.993 1 0 .551.445 1 .993 1M511.798 347.172c-2.54-3.343-3.621-7.47-3.043-11.621.578-4.152 2.747-7.83 6.106-10.36l55.555-41.824-.653 4.692c-.638 4.574.557 9.126 3.364 12.819 2.806 3.692 6.883 6.075 11.479 6.71.355.048.71.082 1.066.11l.262.018c.35.022.701.036 1.05.036h.022l.062-.002c.395 0 .79-.018 1.183-.046l.192-.013c.394-.032.787-.08 1.177-.14l.231-.037c.341-.057.683-.12 1.02-.197l-56.987 42.903c-3.36 2.529-7.506 3.604-11.677 3.028-4.171-.576-7.868-2.734-10.409-6.076zm69.167-135.151c.616-4.422 2.925-8.34 6.503-11.035 2.947-2.218 6.464-3.387 10.097-3.387.776 0 1.559.054 2.342.162 4.436.612 8.371 2.912 11.08 6.477 2.711 3.565 3.864 7.96 3.249 12.375l-10.606 76.12c-.873 6.267-5.351 11.6-11.406 13.586-2.422.794-4.993 1.024-7.536.674-4.436-.612-8.372-2.913-11.081-6.477-2.71-3.565-3.862-7.96-3.248-12.375l10.606-76.12zm-46.718 138.677l58.218-43.829c6.245-2.07 10.86-7.58 11.762-14.054l10.605-76.12c.638-4.574-.557-9.126-3.364-12.819-2.806-3.692-6.883-6.075-11.479-6.709-4.602-.635-9.178.55-12.885 3.341-3.706 2.79-6.098 6.85-6.736 11.431l-9.835 70.588-56.036 42.187c-3.487 2.624-5.739 6.444-6.339 10.754-.6 4.31.521 8.595 3.16 12.066 2.637 3.47 6.475 5.71 10.806 6.308.763.106 1.524.158 2.282.158 3.54 0 6.968-1.14 9.841-3.302z" mask="url(#prefix__l)"/>
            <path fill="#FFF" d="M524.14 346.307c-2.62-.363-4.941-1.726-6.537-3.835-3.292-4.355-2.43-10.578 1.924-13.873.243-.184.495-.353.751-.513.08-.05.163-.093.243-.14.182-.107.365-.209.551-.302.095-.048.19-.093.286-.136.182-.085.367-.164.554-.237.095-.036.188-.074.284-.108.21-.075.424-.14.639-.2.072-.02.142-.045.215-.063.288-.074.58-.135.874-.182.054-.009.108-.012.162-.02.24-.034.48-.061.723-.078.103-.007.206-.008.31-.012.207-.008.416-.011.625-.006.081.003.163.004.244.009.29.014.58.037.872.078 2.62.363 4.94 1.724 6.536 3.834.204.27.392.548.565.83.026.045.047.09.073.134.144.246.281.493.403.746l.01.024c1.68 3.545 1.094 7.79-1.484 10.748-.009.009-.016.02-.024.03-.184.208-.383.406-.586.602-.038.037-.072.077-.111.113-.243.226-.499.441-.769.645-2.11 1.596-4.719 2.271-7.332 1.912m7.693-1.435c.285-.216.556-.445.814-.685.043-.039.08-.082.121-.122.215-.205.424-.415.62-.636.008-.011.016-.023.026-.033 1.333-1.525 2.2-3.404 2.484-5.456.285-2.059-.04-4.107-.913-5.94l-.01-.025c-.13-.27-.276-.534-.43-.794-.026-.046-.048-.092-.075-.137-.184-.302-.383-.596-.598-.882-3.492-4.617-10.09-5.534-14.706-2.039-.286.216-.558.445-.817.685-.036.034-.067.07-.101.103-.222.212-.437.429-.638.656l-.013.017c-1.34 1.527-2.211 3.411-2.497 5.471-.285 2.057.038 4.103.91 5.935l.013.03c.13.27.275.533.429.793.027.046.047.094.076.138.183.302.382.597.598.881 1.692 2.238 4.154 3.681 6.931 4.066.49.069.978.102 1.464.102 2.27 0 4.47-.734 6.312-2.128M709.572 586.794c-4.14-3.141-8.312-6.32-12.515-9.52-37.951-28.904-77.194-58.793-116.109-80.11-19.244-10.544-36.265-17.501-53.53-21.885-.286-.11-2.814-1.119-3.586-3.256-.494-1.369-.18-2.996.935-4.837l.09-.162c.379-.488 4.533-4.696 30.396 3.795.404.144 9.924 3.475 14.788-1.644 4.078-4.292 3.334-13.043-2.217-26.02l-24.828-48.562c-.022-.037-2.24-3.682-1.073-6.24.605-1.27 2.082-2.086 4.39-2.423.728.118 5.64 1.251 10.667 10.671l25.692 38.189.17.25 1.854-1.233-10.272-15.265.073-.02-.076-.29c-.119-.45-2.917-11.153-4.703-22.993-2.368-15.692-1.93-26.192 1.265-30.364.999-1.307 2.253-1.953 3.836-1.975l.27-.039c.039-.008.994-.212 2.168.686 1.955 1.493 4.328 5.727 4.535 17.412l.003.063c.024.315 2.496 31.803 13.688 52.182l.144.264 1.96-1.062-.145-.264c-10.83-19.72-13.319-49.986-13.419-51.246-.12-6.636-.954-11.726-2.48-15.131.215-.55.986-2.231 2.567-2.89 1.203-.501 2.686-.315 4.407.558l.319.16.19-.028c.339.208 2.317 1.899 2.04 12.894.008.329.986 33.133 14.384 55.797l.153.259 1.925-1.123-.154-.259c-10.102-17.09-12.983-40.171-13.765-49.657l.38.007.006-.3c.002-.076.255-7.613 3.788-9.727 1.416-.847 3.288-.701 5.565.43l.11.055.11.031c.329.173 3.798 2.385.58 16.543l-.016.095c-.035.284-.853 7.066.457 16.665 1.376 10.086 6.31 22.071 13.537 32.884 3.73 5.58 16.616 16.637 33.63 28.856 19.213 13.798 40.028 26.538 58.636 35.89l-.82 83.89zm1.26-84.341c-40.704-20.427-84.911-53.718-92.202-64.626-7.073-10.582-12.098-22.782-13.443-32.633-1.298-9.522-.49-16.23-.457-16.495l.01-.065c3.421-15.049-.515-17.054-.975-17.233l-.148-.052c-2.475-1.23-4.542-1.367-6.145-.408-3.42 2.046-3.983 8.458-4.068 9.93l-.451-.011.026.332c.742 9.265 3.56 32.611 13.721 49.986l-.881.515c-13.174-22.523-14.14-54.923-14.15-55.274.303-11.912-2.03-13.293-2.502-13.45l-.068-.022-.161.024-.147-.074c-1.886-.954-3.537-1.149-4.915-.575-1.946.81-2.794 2.934-2.944 3.352l-.041.115.05.11c1.524 3.331 2.357 8.38 2.479 15.025.1 1.278 2.579 31.406 13.347 51.241l-.899.488c-11.006-20.275-13.447-51.363-13.472-51.704-.21-11.925-2.71-16.304-4.77-17.878-1.373-1.05-2.543-.826-2.687-.791l-.13.019c-1.78.025-3.19.748-4.308 2.212-3.296 4.304-3.774 14.96-1.38 30.817 1.651 10.946 4.165 20.924 4.64 22.769l-.31.082 10.406 15.462-.85.565-25.466-37.843-.035-.057c-5.269-9.874-10.563-10.894-11.149-10.977l-.043-.006-.043.006c-2.546.363-4.193 1.294-4.895 2.766l-.027.059c-1.273 2.793 1.109 6.716 1.138 6.761l24.785 48.485c5.444 12.727 6.228 21.26 2.33 25.362-4.597 4.838-13.756 1.63-14.15 1.49-26.774-8.792-30.763-4.083-31.13-3.515l-.073.139c-1.213 2.003-1.544 3.803-.986 5.35.863 2.39 3.626 3.495 3.972 3.624 17.247 4.382 34.222 11.321 53.421 21.839 38.875 21.296 78.1 51.171 116.033 80.062 4.365 3.324 8.699 6.626 12.997 9.885l.479.364.835-85.462-.167-.085z" mask="url(#prefix__l)"/>
        </g>
    </g>
</svg>
