<svg xmlns="http://www.w3.org/2000/svg" width="1440" height="795" viewBox="0 0 1440 795">
    <defs>
        <linearGradient id="prefix__a" x1="139.985%" x2="-27.13%" y1="5.528%" y2="100%">
            <stop offset="0%" stop-color="#FFF" stop-opacity=".261"/>
            <stop offset="100%" stop-opacity="0"/>
        </linearGradient>
        <linearGradient id="prefix__b" x1="20.972%" x2="80.452%" y1="85.152%" y2="31.983%">
            <stop offset="0%" stop-color="#B797F3"/>
            <stop offset="100%" stop-color="#825FE4"/>
            <stop offset="100%" stop-color="#815EE4"/>
        </linearGradient>
        <linearGradient id="prefix__c" x1="6.158%" x2="90.836%" y1="71.137%" y2="18.244%">
            <stop offset="0%" stop-color="#FFF" stop-opacity=".261"/>
            <stop offset="100%" stop-opacity="0"/>
        </linearGradient>
        <linearGradient id="prefix__d" x1="70.12%" x2="70.12%" y1="-11.769%" y2="134.761%">
            <stop offset="0%" stop-color="#FFF" stop-opacity=".261"/>
            <stop offset="100%" stop-opacity="0"/>
        </linearGradient>
        <linearGradient id="prefix__e" x1="0%" x2="124.74%" y1="0%" y2="142.669%">
            <stop offset="0%" stop-color="#FFF" stop-opacity=".261"/>
            <stop offset="100%" stop-opacity="0"/>
        </linearGradient>
        <linearGradient id="prefix__f" x1="13.847%" x2="55.46%" y1="0%" y2="50%">
            <stop offset="0%" stop-color="#FFF" stop-opacity=".261"/>
            <stop offset="100%" stop-opacity="0"/>
        </linearGradient>
        <linearGradient id="prefix__g" x1="40.204%" x2="42.257%" y1="45.056%" y2="50%">
            <stop offset="0%" stop-color="#FFF" stop-opacity=".376"/>
            <stop offset="100%" stop-color="#FFF" stop-opacity=".081"/>
        </linearGradient>
        <linearGradient id="prefix__h" x1="40.204%" x2="42.257%" y1="49.126%" y2="50%">
            <stop offset="0%" stop-color="#FFF" stop-opacity=".376"/>
            <stop offset="100%" stop-color="#FFF" stop-opacity=".081"/>
        </linearGradient>
        <linearGradient id="prefix__k" x1="18.872%" x2="92.167%" y1="-19757.464%" y2="-19757.464%">
            <stop offset="0%" stop-color="#FFF" stop-opacity=".199"/>
            <stop offset="100%" stop-color="#FFF" stop-opacity="0"/>
        </linearGradient>
        <filter id="prefix__i" width="180%" height="180%" x="-40%" y="-40%" filterUnits="objectBoundingBox">
            <feGaussianBlur in="SourceGraphic" stdDeviation="4"/>
        </filter>
        <filter id="prefix__j" width="180%" height="180%" x="-40%" y="-40%" filterUnits="objectBoundingBox">
            <feGaussianBlur in="SourceGraphic" stdDeviation="4"/>
        </filter>
    </defs>
    <g fill="none" fill-rule="evenodd" transform="translate(-137 -172)">
        <path fill="#5A34C5" d="M134 172H1577V967H134z"/>
        <circle fill="url(#prefix__a)" style="mix-blend-mode:overlay" cx="461" cy="737" r="47"/>
        <circle fill="url(#prefix__b)" opacity=".862" style="mix-blend-mode:overlay" cx="1259" cy="461" r="461"/>
        <circle fill="url(#prefix__c)" style="mix-blend-mode:overlay" cx="803" cy="874" r="78"/>
        <circle fill="url(#prefix__d)" style="mix-blend-mode:overlay" cx="581" cy="281" r="28"/>
        <circle fill="url(#prefix__e)" style="mix-blend-mode:overlay" cx="235" cy="894" r="28"/>
        <circle cx="1523.5" cy="798.5" r="153.5" fill="url(#prefix__f)"/>
        <path stroke="url(#prefix__g)" stroke-dasharray="20 20" stroke-linecap="round" stroke-width="4" d="M95 795.674S111.104 417 373.493 417 600.6 745.517 760.826 745.517c160.226 0 179.388-63.197 313.412-63.197 134.024 0 154.925 168.68 294.893 168.68 139.968 0 139.968-212.819 238.869-212.819" opacity=".573"/>
        <path stroke="url(#prefix__h)" stroke-width="7" d="M0 851s96.872-205 359.096-205c262.225 0 229.802 121.818 503.465 121.818 156.473 0 273.365 52.519 837.439 52.519"/>
        <g fill="#9880DA" transform="translate(373 630)">
            <circle cx="15" cy="15" r="15" filter="url(#prefix__i)"/>
            <circle cx="15" cy="15" r="15"/>
        </g>
        <g fill="#9880DA" transform="translate(373 403)">
            <circle cx="15" cy="15" r="15" filter="url(#prefix__j)"/>
            <circle cx="15" cy="15" r="15"/>
        </g>
        <path stroke="url(#prefix__k)" stroke-linecap="square" d="M135.505 820.5L1577.495 820.5M135.505 659.5L1577.495 659.5M135.505 499.5L1577.495 499.5M135.505 339.5L1577.495 339.5"/>
        <path stroke="#FFF" stroke-linejoin="bevel" stroke-opacity=".509" stroke-width="5" d="M1600.056 846.669c-43.803-14.866-92.44-41.971-101.328-51.967-9.618-10.815-15.654-22.317-18.091-30.964-2.639-9.363-2.79-16.284-2.795-16.574l.004-.082c1.316-15.835-3.158-16.822-3.172-16.826h-.063l-.118-.039c-2.538-.852-4.526-.717-5.906.4-3.394 2.75-2.533 10.484-2.523 10.562l-.413.048c2.171 9.751 8.296 32.496 20.88 48.328l-1.285 1.019c-16.592-20.873-22.117-53.482-22.17-53.809l-.006-.04c-1.385-12.054-3.913-12.831-4.148-12.875l-.182.055-.248-.087c-1.93-.662-3.523-.633-4.735.087-1.72 1.021-2.24 3.165-2.325 3.576 2.016 3.167 3.568 8.123 4.633 14.82.215.975 7.033 31.323 20.682 49.653l-1.317.977c-14.012-18.818-20.906-49.99-20.973-50.302l-.01-.046c-1.872-11.812-4.912-15.79-7.133-17.045-1.444-.818-2.49-.416-2.522-.403l-.097.043-.106.017c-1.676.26-2.91 1.133-3.772 2.67-2.646 4.712-1.608 15.388 2.992 30.87 3.513 11.826 7.906 22.332 7.95 22.437l-.184.076 12.491 13.959-1.224 1.091-30.981-34.621-.053-.065c-6.555-9.028-11.826-9.318-12.437-9.32-2.388.692-3.832 1.789-4.293 3.26l-.017.057c-.835 2.832 1.997 6.302 2.025 6.336l.022.026 31.57 45.125.03.047c7.3 12.114 9.281 20.676 5.89 25.444-4.014 5.645-13.832 3.687-14.227 3.604-27.975-5.06-31.056.248-31.253.672v.023l-.05.119c-.892 2.09-.973 3.855-.242 5.243 1.139 2.162 3.934 2.848 4.241 2.917 20.669 2.287 39.368 7.908 56.51 14.426 46.73 17.768 96.095 46.598 141.59 72.128l-11.111-85.05z"/>
        <path fill="#F39799" d="M328.805 655.932c-.786-4.797-3.78-6.45-3.88-6.503l-.196-.11c-2.732-1.721-5.454-2.129-8.318-1.251-10.397 3.186-18.566 21.54-18.647 21.726l-.14.27c-16.298 26.826-31.903 20.579-32.558 20.3l-.333-.176c-8.107-5.149-13.17-12.267-15.052-21.159-4.715-22.291 12.137-47.892 12.857-48.97l.204-.307.287-.226c6.549-5.14 12.88-6.902 18.824-5.237 10.884 3.054 16.047 16.566 16.261 17.14l.046.133c1.954 6.39 4.918 10.403 8.809 11.927 4.718 1.846 9.632-.485 10.652-1.017 2.23-2.15 3.335-4.797 3.378-8.084.189-14.412-19.762-34.52-21.389-36.133-8.852-6.559-18.016-8.89-27.228-6.937-22.247 4.717-38.184 32.675-38.342 32.957-.622 1.107-2.023 1.5-3.13.88-1.108-.621-1.503-2.022-.882-3.128.171-.306 4.279-7.578 11.383-15.565 9.513-10.698 19.887-17.489 30.001-19.638 4.19-.891 8.355-1.006 12.477-.377l11.4-15.487c24.278-36.151 13.314-51.494 11.482-53.636-3.08-1.115-5.543-1.104-7.332.034-3.49 2.22-3.906 8.076-3.909 8.128l-.021.34-.116.317c-8.862 24.127-28.786 43.92-29.63 44.75l-.17.15c-15.318 12.365-41.408 49.714-41.67 50.09-.447.642-1.163.986-1.889.986-.454 0-.912-.134-1.312-.413-1.043-.725-1.3-2.158-.574-3.2 1.082-1.554 26.625-38.116 42.46-50.962 1.342-1.345 20.07-20.402 28.36-42.696.06-.597.226-1.842.637-3.33-.503-.508-.767-1.237-.639-1.994.09-.54-1.814-2.641-5.608-3.335-2.726-.497-9.26-.68-11.077 8.406-.029.141-.048.286-.067.429-.02.139-.038.278-.06.417-3.475 21.264-20.591 40.596-21.351 41.446-4.01 4.292-12.506 14.881-20.265 24.739-.175.529-.521.961-.971 1.235-7.93 10.094-14.84 19.094-14.977 19.274-.452.59-1.136.9-1.827.9-.488 0-.98-.154-1.398-.475-1.009-.771-1.199-2.214-.427-3.222.568-.739 7.502-9.773 15.367-19.778 8.211-37.53 3.864-51.713.515-56.829-1.978-3.024-3.888-3.429-3.952-3.443-2.644-.404-4.697.133-6.289 1.643-4.579 4.35-4.514 15.746-4.102 19.771l.015.152-.005.15c-1.35 45.918-21.02 84.95-58.464 116.016-29.78 24.71-70.814 44.429-121.959 58.61-1.018.282-2.044.535-3.064.812V855l197.582-104.314c49.092-24.532 70.242-42.907 74.558-49.186l.233-.292c23.122-24.603 26.593-38.201 25.432-45.276"/>
    </g>
</svg>
