<svg xmlns="http://www.w3.org/2000/svg" xmlns:xlink="http://www.w3.org/1999/xlink" width="297" height="370" viewBox="0 0 297 370">
    <defs>
        <path id="prefix__a" d="M0 0H297V370H0z"/>
    </defs>
    <g fill="none" fill-rule="evenodd">
        <mask id="prefix__b" fill="#fff">
            <use xlink:href="#prefix__a"/>
        </mask>
        <use fill="#CDC1EF" xlink:href="#prefix__a"/>
        <g mask="url(#prefix__b)">
            <g>
                <g>
                    <path d="M0.206 0.203L140.516 0.203 140.516 134.735 0.206 134.735z" transform="translate(-52 13) translate(113 4)"/>
                    <path fill="#EBE5FF" d="M-39.794 136.836c14.668-30.567 23.524-30.595 30.442-54.002 0 0 8.026-36.198 21.863-48.928 13.837-12.73 23.247-16.31 45.386-11.903 22.14 4.406 32.933 37.726 34.317 42.133 1.383 4.406 8.302 90.6 8.302 90.6l-140.31-17.9z" transform="translate(-52 13) translate(113 4)"/>
                </g>
                <path fill="#FEFBFF" d="M176.64 86.023c-4.98 26.02-21.931 39.605-38.025 36.554-16.094-3.05-25.236-21.58-20.255-47.6 4.98-26.02 21.931-39.604 38.025-36.554 16.094 3.05 25.236 21.58 20.255 47.6" transform="translate(-52 13)"/>
                <path fill="#FEFBFF" d="M170.672 84.704c-1.711 5.374-.042 10.759 3.729 12.027 3.77 1.268 8.215-2.06 9.927-7.435 1.711-5.374.042-10.758-3.729-12.027-3.77-1.268-8.215 2.06-9.927 7.435M155.582 119.329s.097 10.559 4.79 14.408c4.694 3.848-18.48 10.263-18.48 10.263l-12.612-4.343-5.28-10.855s4.497-1.776 6.844-11.052c2.347-9.276 24.738 1.579 24.738 1.579" transform="translate(-52 13)"/>
                <path fill="#997AF1" d="M0 162.34c57.235-50.661 126.393-36.89 125.917-35.896-.763 1.588 2.683 9.615 12.884 10.707 9.806 1.05 18.273-2.337 19.37-5.617 6.673-.78 89.976 25.831 107.304 61.807 17.326 35.976 9.672 101.595 9.672 101.595L130 382H8L0 162.34z" transform="translate(-52 13)"/>
                <path stroke="#FFF" stroke-linecap="round" stroke-width="4" d="M197 191c23.623 36.708 27.697 94.446 30 127M79 175c-26.101 34.277-34.985 91.013-40 123" transform="translate(-52 13)"/>
                <path fill="#EBE5FF" d="M122 51.904c8.239 5.809 21.743 14.745 63.856 18.096L187 44.309 170.75 30.68 151.524 28 122 51.904z" transform="translate(-52 13)"/>
                <path stroke="#997AF1" stroke-linecap="round" stroke-linejoin="round" stroke-width="3" d="M127 74L133 72M156 79L161 84M144 71l-7.403 16.83s-1.794 2.64.838 3.85 3.95 1.21 5.026 1.32M138 103c1.138.429 2.586 1.929 3 3" transform="translate(-52 13)"/>
                <path fill="#FEFBFF" d="M215.754 113.422c-1.723-1.468-4.184-4.698-2.461-11.029 1.723-6.33 4.923-14.756 3.2-21.964-1.723-7.21-13.292-28.12-15.507-28.564l-2.216-.443s-1.723-3.196-3.2-2.245c-1.476.95-1.97 2.688-1.97 2.688s-2.214-3.476-3.691-1.49c-1.477 1.987-1.477 5.96 2.461 12.415-3.2 2.235 3.2 10.47 3.2 10.47s4.677 5.683 1.97 13.871c-2.708 8.187-8.615 19.069-4.431 26.29 4.184 7.224 45.53 99.579 45.53 99.579 4.05-.38 17.646-2.554 21.861-11 6.801-13.629 3.5-35.916 3.5-35.916-10.585-11.67-46.522-51.194-48.246-52.662z" transform="translate(-52 13)"/>
                <path fill="#EBE5FF" d="M290.55 125.158c-15.456-1.965-30.46 14.587-34.826 37.617-.967-.731-2.054-1.143-3.203-1.143-4.047 0-7.328 5.094-7.328 11.378 0 6.283 3.28 11.377 7.328 11.377.846 0 1.657-.225 2.413-.634.52 4.349 1.472 8.446 2.801 12.176v.002c-2.613 8.598-13.568 15.341-19.735 16.864l1.32 3.683L257.704 232s35.335-5.238 31.717-7.428c-3.617-2.19-1.441-8.958-1.441-8.958 12.839-4.228 23.841-20.47 26.452-40.991 3.21-25.234-7.483-47.379-23.882-49.465" transform="translate(-52 13)"/>
                <path fill="#30108C" d="M259.293 171c1.618-9.625 8.494-21.825 8.494-21.825s19.55 6.778 38.966 3.796C326.168 149.988 329 135.483 329 135.483s-4.045 2.44-7.011 2.576c0 0 3.64-3.39 3.775-6.371 0 0-5.933 1.626-10.112.677 0 0 3.64-1.898 3.1-5.016 0 0-3.1 1.898-8.224 1.085-5.123-.813-14.157-8.947-21.303-10.71-7.146-1.762-17.932-.948-19.28 9.76 0 0-12.136-5.421-14.428 12.066-2.292 17.487 3.776 31.45 3.776 31.45" transform="translate(-52 13)"/>
                <path stroke="#FEFBFF" stroke-linecap="round" stroke-width="4" d="M237.33 13.88c.522 6.644-3.445 13.931-11.265 12.188-2.554-.569-4.82-2.313-6.019-4.635-1.784-3.45-1.118-7.754.736-11.167 3.771-6.944 12.871-11.271 20.512-8.33 9.414 3.622 11.817 16.591 7.916 24.951-4.612 9.886-16.587 13.66-26.768 11.544M92.33 12.88c.522 6.644-3.445 13.931-11.265 12.188-2.554-.569-4.82-2.313-6.019-4.635-1.784-3.45-1.118-7.754.736-11.167C79.553 2.322 88.653-2.005 96.294.936c9.414 3.622 11.817 16.591 7.916 24.951-4.612 9.886-16.587 13.66-26.768 11.544M76.33 117.88c.522 6.644-3.445 13.931-11.265 12.188-2.554-.569-4.82-2.313-6.019-4.635-1.784-3.45-1.118-7.754.736-11.167 3.771-6.944 12.871-11.271 20.512-8.33 9.414 3.622 11.817 16.591 7.916 24.951-4.612 9.886-16.587 13.66-26.768 11.544" transform="translate(-52 13)"/>
                <path fill="#5A34C5" d="M96.73 312.722c8.79-54.644 26.372-68.484 40.151-80.892C150.661 219.421 188.493 201.652 238 201c0 0-5.67 20.714 34.781 15.677 0 0 18.252-1.632 48.25 24.26 29.998 25.892 34.356 71.785 34.356 71.785l3.975 52.029-106.826 32.937-145.085-35.432c-13.007 3.407-16.581-13.104-10.72-49.534z" opacity=".342" style="mix-blend-mode:overlay" transform="translate(-52 13)"/>
                <path fill="#5A34C5" d="M114.17 321.035c8.79-54.645 26.371-68.485 40.151-80.893 13.78-12.408 37.418-27.178 86.925-27.83 0 0 8.523 17.714 48.975 12.677 0 0 18.252-1.631 48.25 24.26 29.997 25.892 34.356 71.786 34.356 71.786l3.975 52.028L269.976 406l-145.085-35.432c-13.007 3.407-16.581-13.104-10.72-49.533z" transform="translate(-52 13)"/>
                <path stroke="#FFF" stroke-linecap="round" stroke-width="4" d="M172 252.608s14.765 35.556 16.194 34.363c1.429-1.193 34.769-29.113 41.676-34.363 6.905-5.25 24.775-19.921 35.13-22.608M282 255c-4.735 17.105-7.597 29.351-32.029 62.168-26.366 35.416-46.178 42.638-61.413 44.555-15.234 1.916-44.75-6.426-53.558-15.19M326 280c13.857 30.967 9.967 75.75 7.78 101" transform="translate(-52 13)"/>
                <path stroke="#5A34C5" stroke-linecap="round" stroke-linejoin="round" stroke-width="2" d="M284.405 165L289 168.636 283 169M312 170l-5 1.759s3.873 1.39 5 3.241M300.059 172L300.941 178M271 182L259 166M266 196L255 184" transform="translate(-52 13)"/>
                <path fill="#EDFFFF" d="M312.932 192.592c.737-8.04-4.605-13.44-12.637-15.24-8.032-1.799-28.807 3.81-29.664 5.186-.857 1.376-5.997 11.853-4.284 18.944 1.713 7.09 10.388 16.298 18.206 16.51 7.818.211 13.6-3.598 19.276-9.525 5.676-5.927 9.103-15.875 9.103-15.875" transform="translate(-52 13)"/>
                <path stroke="#5A34C5" stroke-linecap="round" stroke-linejoin="round" stroke-width="2" d="M276 188.449c16.5-5.613 31.242-4.567 33 4.551M276 196c7.674 2.155 19.675 5.253 30 4.984M274 202c4.318 2.81 14.56 9.74 23 8.936" transform="translate(-52 13)"/>
                <path fill="#EBE5FF" d="M281.053 254.663c1.847 2.027 13.76-5.708 15.684-6.969 6.954 1.261 10.727.074 12.576-1.482 1.85-1.558 1.998-4.3 0-6.525 0 0 3.147-.97 2.63-4.528-.519-3.559-2.186-4.74-3.74-5.629 0 0 2.96-.816 3.181-3.781.222-2.966-3.403-5.709-3.403-5.709s1.702.148 2.59-.964c.888-1.112.148-4.266-2.145-6.21-2.294-1.945-8.369-5.519-19.636-4.763-9.346.628-13.855 9.833-15.268 12.308-1.654 2.9-5.045 7.562-8.522 10.083 0 0 10.579 18.164 16.053 24.17" transform="translate(-52 13)"/>
                <path stroke="#5A34C5" stroke-linecap="round" stroke-linejoin="round" stroke-width="2" d="M289 207c-9.429.644-13.977 10.1-15.402 12.642-1.669 2.979-5.09 7.769-8.598 10.358M310 220s-6.118-4.339-11-5M310 230s-6.182-3.36-9-4M300.733 235c2.713.864 8.803 5.439 8.803 5.439 2.026 2.23 1.876 4.98 0 6.542-1.625 1.352-4.713 2.426-10.092 1.869-2.157-.224-3.998-1.797-4.382-3.912-.313-1.724.461-3.363 4.815-3.027" transform="translate(-52 13)"/>
                <path fill="#E4ADFF" d="M237.666 139L219 140.306 235.667 143.898 246.666 155 256.666 149.776 265 153.531 256.333 145.368 247.833 149.449z" transform="translate(-52 13) rotate(15 242 147)"/>
                <path fill="#E4ADFF" d="M300.28 239.79L281.613 241.097 298.28 244.689 309.28 255.79 319.28 250.566 327.613 254.321 318.946 246.158 310.446 250.239z" transform="translate(-52 13) rotate(-148 304.613 247.79)"/>
                <path fill="#E4ADFF" d="M221.348 212L197 213.715 218.739 218.429 233.087 233 246.13 226.143 257 231.072 245.695 220.358 234.609 225.714z" transform="translate(-52 13) rotate(-23 227 222.5)"/>
                <path fill="#E4ADFF" d="M335.379 169.475L311.032 171.189 332.771 175.904 347.118 190.475 360.162 183.618 371.032 188.547 359.727 177.833 348.64 183.189z" transform="translate(-52 13) rotate(174 341.032 179.975)"/>
            </g>
        </g>
    </g>
</svg>
