<svg xmlns="http://www.w3.org/2000/svg" xmlns:xlink="http://www.w3.org/1999/xlink" width="371" height="209" viewBox="0 0 371 209">
    <defs>
        <path id="prefix__a" d="M0 0.461L85.496 0.461 85.496 90.343 0 90.343z"/>
        <path id="prefix__c" d="M0.564 0.283L86.202 0.283 86.202 88.409 0.564 88.409z"/>
    </defs>
    <g fill="none" fill-rule="evenodd">
        <path fill="#FFF" d="M89.17 170L82.477 200.828 75.828 170 70.702 170 70 208 74.287 208 74.696 180.382 81.025 208 83.975 208 90.351 180.382 90.757 208 95 208 94.296 170zM106.366 170L98 208h5.177l1.865-9.578h7.964l1.796 9.578H120l-8.366-38h-5.268zm2.646 7.472l3.284 17.168h-6.545l3.26-17.168zM137.903 170L129.256 187.899 129.256 170 124 170 124 208 129.256 208 129.256 193.034 131.302 189.162 138.881 208 144 208 135.332 186.754 142.795 170zM147 170L147 208 162 208 162 204.197 152.356 204.197 152.356 190.261 160.1 190.261 160.1 186.479 152.356 186.479 152.356 173.919 161.882 173.919 161.882 170zM183.365 170L175 208h5.176l1.867-9.578h7.964L191.8 208h5.2l-8.365-38h-5.27zm2.648 7.472l3.284 17.168h-6.545l3.26-17.168zM208 170L208 173.919 214.971 173.919 214.971 208 220.286 208 220.286 173.919 227 173.919 227 170zM245.536 170L245.536 186.41 235.462 186.41 235.462 170 230 170 230 208 235.462 208 235.462 190.192 245.536 190.192 245.536 208 251 208 251 170zM264.153 204.347c.686.322 1.551.484 2.6.484 1.048 0 1.914-.162 2.599-.484.687-.322 1.205-.813 1.562-1.474.353-.66.596-1.386.725-2.177.133-.791.197-1.77.197-2.936v-16.723c0-1.152-.064-2.113-.197-2.88-.13-.767-.372-1.475-.725-2.118-.357-.645-.875-1.118-1.562-1.417-.685-.301-1.55-.45-2.598-.45-1.05 0-1.915.149-2.6.45-.686.299-1.206.772-1.559 1.417-.357.643-.6 1.35-.729 2.119-.13.766-.197 1.727-.197 2.88v16.722c0 1.167.066 2.145.197 2.936.13.79.372 1.517.73 2.177.352.66.872 1.152 1.557 1.474m2.6 4.652c-1.91 0-3.547-.284-4.911-.851-1.363-.568-2.445-1.406-3.246-2.51-.803-1.107-1.385-2.396-1.757-3.871-.369-1.474-.555-3.194-.555-5.16v-14.465c0-3.977.813-6.99 2.44-9.041 1.624-2.05 4.3-3.075 8.03-3.075 3.712 0 6.384 1.033 8.018 3.1 1.633 2.063 2.449 5.07 2.449 9.016v14.488c0 3.977-.82 7.034-2.46 9.168-1.642 2.136-4.312 3.201-8.007 3.201M282.512 208.585L282.512 170.394 286.141 170.394 297.024 195.754 297.024 170.394 301.484 170.394 301.484 208.585 298.064 208.585 287.02 182.489 287.02 208.585zM58.648 31.779L58.599 11.597 51.072 28.675 45.871 28.677 38.334 11.6 38.338 31.783 31.209 31.785 31.206.69 39.946.688 48.47 19.183 56.984.686 65.68.682 65.686 31.777zM86.04 8.575l-4.572 11.49 9.059-.002L86.04 8.575zm-6.901 17.477l-2.285 5.725h-8.205L82.18.726l8.207-.002 13.23 31.048-8.517.001-2.244-5.723-13.718.002zM118.684 19.57L114.516 24.139 114.516 31.769 106.535 31.771 106.531.721 114.511.719 114.512 14.159 126.526.717 135.762.715 124.107 13.58 136.529 31.765 126.98 31.767zM148.005 6.922L148.005 13.088 162.98 13.084 162.98 19.295 148.007 19.299 148.007 25.554 165.089 25.55 165.091 31.759 140.028 31.763 140.023.713 164.592.71 164.592 6.919zM184.282 16.807c3.45 0 5.468-1.731 5.468-5.012 0-3.24-2.02-4.88-5.47-4.879h-6.053l.002 9.893 6.053-.002zm.224 6.21h-6.275v8.74l-7.983.001-.004-31.05 14.034-.003c8.292-.002 13.046 3.901 13.048 10.82 0 4.748-2.015 8.163-5.692 9.981l6.592 10.247-9.055.002-4.665-8.737zM227.14 3.802l-3.001 6.165c-3.318-1.905-7.488-3.235-10.044-3.235-2.063 0-3.45.755-3.45 2.263 0 5.367 16.587 2.304 16.59 13.527 0 6.21-5.558 9.492-12.552 9.494-5.246.001-10.625-1.95-14.348-4.965l3.091-6.078c3.229 2.794 8.072 4.657 11.344 4.656 2.513 0 4.081-.933 4.081-2.708-.002-5.5-16.588-2.213-16.59-13.215 0-5.723 4.975-9.36 12.506-9.36 4.526-.003 9.144 1.37 12.372 3.456M249.963 6.903L249.967 14.088 264.044 14.087 264.044 20.298 249.969 20.299 249.969 31.744 241.988 31.744 241.984.694 265.253.69 265.253 6.901zM275.165 16.213c.002 5.235 4.08 9.27 8.878 9.27 4.842-.002 8.699-4.037 8.697-9.272 0-5.235-3.857-9.181-8.7-9.181-4.84 0-8.877 3.948-8.875 9.183m25.778-.047c.004 9.047-7.26 15.924-16.989 15.927-9.683 0-16.949-6.83-16.949-15.922-.001-9.05 7.26-15.75 16.944-15.75 9.728-.004 16.992 6.74 16.994 15.745M319.194 16.78c3.45 0 5.47-1.73 5.468-5.01 0-3.24-2.02-4.882-5.47-4.88h-6.052l.002 9.89h6.052zm.224 6.212h-.222l-6.052.002.001 8.739h-7.98l-.008-31.05L319.19.68c8.293-.002 13.047 3.9 13.049 10.82.004 4.745-2.016 8.161-5.692 9.981l6.595 10.247h-9.059l-4.665-8.737z"/>
        <g transform="translate(0 47.297)">
            <mask id="prefix__b" fill="#fff">
                <use xlink:href="#prefix__a"/>
            </mask>
            <path fill="#FFF" d="M84.612 44.516l.007 34.366c-9.54 6.674-24.555 11.459-37.023 11.46C20.493 90.35.005 70.967-.001 45.287-.005 19.732 20.986.466 49.105.46 62.337.459 76.333 5.49 85.496 13.547l-12.72 15.234c-6.49-5.914-15.525-9.564-23.797-9.562-14.629.002-25.825 11.334-25.821 26.063.002 14.98 11.329 26.308 26.087 26.306 4.582-.001 10.435-1.64 15.776-4.285l-.002-22.786 19.593-.001z" mask="url(#prefix__b)"/>
        </g>
        <g transform="translate(284.694 48.19)">
            <mask id="prefix__d" fill="#fff">
                <use xlink:href="#prefix__c"/>
            </mask>
            <path fill="#FFF" d="M23.224 70.529l16.16-.002c13.867-.004 23.794-10.58 23.788-26.063-.002-15.612-10.439-26.309-24.814-26.307l-15.144.004.01 52.368zM38.859.283c27.993-.006 47.337 17.865 47.343 44.05.006 26.057-19.585 44.063-48.216 44.068L.58 88.41.564.29 38.86.283z" mask="url(#prefix__d)"/>
        </g>
        <path fill="#FFF" d="M239.12 43.424c-.007.032-.017.077-.038.149l.038-.15zM239.122 43.409c.004-.042.006-.083.012-.123-.008.058 0 .066-.012.123M132.277 114.881l.355.104c.243.074.594.188 1.04.337.448.146.987.339 1.592.598.606.257 1.268.594 1.974.984.704.395 1.439.876 2.158 1.447.364.288.71.588 1.074.933.32.306.685.713 1.01 1.082.65.774 1.226 1.66 1.642 2.635.429.973.675 2.025.804 3.08.128 1.058.093 2.127-.062 3.154-.078.513-.188 1.018-.325 1.508-.135.492-.264.97-.461 1.445-.197.473-.444.93-.767 1.332-.319.405-.717.75-1.146 1-.871.5-1.773.67-2.547.801l-1.082.16c-.07.012-.233.063-.357.115-.135.054-.264.113-.387.175-.495.25-.875.551-1.11.816-.236.267-.338.488-.378.632-.044.145-.044.221-.044.221-.011.384-.332.689-.717.68-.385-.01-.69-.33-.681-.714 0-.032.003-.062.009-.093l.006-.041.02-.129c.016-.087.042-.212.097-.365.101-.312.334-.73.712-1.12.378-.392.888-.755 1.517-1.056.157-.075.322-.145.5-.21.189-.068.35-.128.636-.176.352-.034.72-.068 1.105-.106.735-.08 1.5-.204 2.147-.558.649-.34 1.163-.97 1.522-1.767.351-.811.63-1.748.793-2.69.162-.948.209-1.934.108-2.904-.095-.972-.343-1.928-.732-2.81-.382-.887-.913-1.69-1.515-2.4-.31-.354-.609-.672-.958-.988-.33-.297-.676-.584-1.018-.844-.689-.522-1.387-.955-2.053-1.313-1.338-.71-2.547-1.116-3.401-1.358-.425-.125-.765-.208-.997-.265l-.358-.085-.057-.013c-.344-.082-.558-.426-.475-.768.082-.345.427-.557.77-.475l.037.01M136.645 112.714s.093.013.257.04c.081.013.176.024.296.047l.411.095c.152.032.308.077.467.13.162.053.338.099.51.165.174.07.35.142.53.212.185.066.355.168.534.253.174.093.357.169.52.28.163.104.328.206.484.307.163.089.294.217.433.32.132.107.26.208.373.302.114.097.205.203.293.29l.22.225.19.198c.155.163.15.42-.012.576-.165.157-.421.149-.577-.012h-.004l-.028-.03s-.06-.064-.167-.174l-.192-.203c-.076-.077-.153-.172-.254-.259l-.336-.272c-.121-.091-.237-.206-.383-.292-.143-.092-.289-.187-.439-.28-.144-.106-.313-.174-.472-.26-.164-.08-.32-.175-.486-.235l-.488-.199c-.16-.06-.317-.106-.465-.157-.15-.05-.29-.093-.421-.12l-.351-.086c-.11-.023-.211-.034-.293-.05l-.256-.04-.015-.003c-.213-.034-.357-.233-.323-.444.034-.212.234-.358.444-.324M140.249 111.346s.089-.017.248-.043c.08-.016.241-.018.391-.02.154.004.294.03.46.06.155.04.33.077.493.145.17.059.336.138.505.22.167.088.338.177.499.281.165.1.326.208.482.318.628.443 1.19.935 1.61 1.3l.69.607.014.01c.169.15.186.408.036.577-.15.17-.408.185-.58.036h-.001s-.273-.246-.687-.613c-.41-.362-.955-.846-1.536-1.26-.142-.104-.29-.203-.438-.294-.144-.096-.292-.176-.435-.251-.146-.072-.286-.142-.421-.19-.133-.058-.264-.083-.383-.12-.118-.016-.234-.04-.32-.042-.088.004-.151-.012-.23 0-.16.028-.251.041-.251.041l-.015.004c-.211.036-.412-.106-.45-.32-.034-.21.108-.408.319-.446M145.24 109.846l.238.087c.076.03.167.062.271.102.101.028.24.112.378.182.135.075.3.15.442.247l.439.307c.155.104.284.24.432.361.149.123.29.254.422.396.133.138.271.272.397.41.12.146.24.284.356.42.23.27.42.54.594.763.327.456.54.762.54.762l.001.008c.13.185.08.439-.106.567-.186.127-.44.08-.567-.106l-.002-.004s-.203-.298-.515-.741c-.165-.212-.343-.473-.56-.727l-.332-.397c-.116-.132-.243-.255-.364-.384-.12-.132-.249-.252-.38-.363-.133-.112-.254-.239-.387-.328l-.385-.276c-.122-.085-.241-.136-.351-.2-.112-.059-.2-.127-.314-.161l-.27-.102-.238-.09-.013-.005c-.202-.076-.302-.3-.226-.501.074-.2.3-.301.5-.227M238.472 65.9l-.365-.124c-.239-.083-.594-.21-1.057-.38-.463-.17-1.025-.396-1.646-.706-.626-.303-1.294-.713-1.992-1.188-.691-.479-1.397-1.052-2.088-1.705-.351-.33-.666-.658-1.033-1.052l-.237-.274c-.08-.09-.165-.214-.245-.32-.174-.219-.31-.44-.46-.664-.284-.456-.529-.94-.737-1.443-.202-.505-.365-1.03-.492-1.563-.245-1.067-.345-2.172-.328-3.265.011-1.094.106-2.183.317-3.237.203-1.054.503-2.074.924-3.025.108-.237.218-.471.338-.702.066-.121.123-.218.203-.352l.099-.15.127-.174c.336-.439.816-.796 1.336-.972.514-.18 1.021-.208 1.475-.212.457.002.878.028 1.273.034.393.011.761.011 1.101-.008l.252-.018.118-.014.063-.005.013-.002c.011-.002-.07.005-.03.004l.007-.002.033-.004.125-.021c.04-.01.042-.015.062-.023.027-.005.088-.032.135-.053.42-.189.742-.573.934-.889.197-.327.288-.609.332-.798.029-.097.036-.169.044-.218.007-.047.013-.074.013-.074l.004-.04c.06-.38.415-.637.795-.576.383.058.642.414.58.794l-.003.02s-.006.039-.023.116c-.013.078-.034.195-.08.341-.08.29-.235.708-.54 1.17-.315.451-.75.989-1.547 1.34-.1.04-.198.082-.34.114-.059.017-.142.036-.188.042l-.127.019-.032.002-.06.007h-.018l-.07.006-.143.005-.292.004c-.39-.002-.791-.026-1.198-.062-.8-.06-1.653-.184-2.33.02-.334.1-.625.296-.871.59l-.088.107-.106.15-.167.268c-.114.193-.22.397-.317.61-.399.854-.695 1.813-.903 2.805-.213.991-.327 2.024-.342 3.057-.011 1.03.09 2.062.319 3.046.121.492.273.969.455 1.427.192.454.414.887.667 1.294.27.406.53.76.87 1.118.318.325.655.662.99.959.668.605 1.341 1.13 1.998 1.563 1.31.874 2.549 1.35 3.426 1.634.44.146.79.242 1.029.312l.37.104.053.014c.341.098.539.452.442.79-.097.341-.454.538-.793.44l-.034-.01M234.101 67.47l-.27-.071c-.087-.027-.185-.042-.316-.091l-.435-.17c-.167-.061-.319-.14-.48-.22-.163-.085-.34-.165-.51-.265l-.523-.314c-.182-.098-.349-.229-.52-.348-.17-.125-.353-.233-.508-.369-.162-.13-.32-.261-.47-.386-.307-.248-.553-.528-.785-.743-.118-.108-.2-.233-.285-.33-.085-.1-.157-.187-.214-.26l-.186-.224c-.144-.176-.12-.431.057-.575.174-.144.43-.117.575.057l.002.002.019.026s.064.076.167.204c.055.065.121.144.193.237.076.087.15.2.257.299.214.2.436.46.717.692l.439.363c.144.127.315.231.47.349.163.111.32.236.488.329l.486.297c.157.094.32.168.469.248.152.077.294.151.421.196l.355.148c.106.043.22.064.304.09l.267.073.021.007c.207.055.328.27.272.477-.057.208-.27.33-.477.272M230.287 68.261l-.255.013c-.04.004-.081.008-.136.006-.061-.002-.128-.004-.198-.008-.144-.003-.294-.019-.448-.05-.161-.023-.322-.073-.497-.124-.17-.055-.345-.126-.52-.206-.175-.085-.351-.176-.516-.284-.173-.098-.329-.221-.492-.336-.628-.483-1.152-1.049-1.52-1.482-.368-.433-.596-.73-.596-.73l-.013-.019c-.137-.18-.103-.437.08-.573.176-.136.432-.1.57.08l.003.003s.22.291.567.706c.345.414.833.944 1.386 1.375.142.1.279.214.427.297.142.095.29.17.43.244.148.066.287.13.426.172.138.044.27.085.392.103.13.028.238.037.333.043.095.01.182.015.267.008.163-.01.255-.014.255-.014l.013-.002c.216-.01.397.154.412.37.007.211-.158.397-.37.408M225.701 69.432l-.249-.016c-.083-.007-.212-.028-.345-.05-.13-.025-.258-.061-.404-.1-.581-.177-1.268-.514-1.896-.92-.636-.401-1.217-.861-1.64-1.217-.42-.36-.687-.615-.687-.615l-.017-.015c-.162-.157-.17-.414-.012-.575.158-.165.416-.17.581-.013l.002.002s.25.247.653.592c.4.342.949.785 1.54 1.163.584.384 1.21.695 1.69.844.12.032.234.064.327.083.095.015.169.034.243.044l.248.015h.014c.218.015.38.2.366.414-.015.214-.2.375-.414.364"/>
        <path fill="#FFF" d="M276.751 85.025c-.408-4.107-1.34-8.171-2.797-12.046-1.452-3.874-3.422-7.556-5.82-10.925l-.45-.632-.468-.62c-.155-.203-.298-.4-.465-.604l-.497-.617c-.666-.82-1.353-1.584-2.06-2.346-1.429-1.508-2.96-2.914-4.564-4.225-3.217-2.612-6.73-4.84-10.462-6.64-1.87-.899-3.782-1.701-5.81-2.337-.51-.153-1.026-.3-1.575-.424l-.755-.158c-.266-.05-.454-.106-.658-.157-.405-.112-.826-.25-1.113-.403-.032-.016-.066-.034-.096-.052.005-.881-.283-1.668-.78-2.347-.597-.825-1.63-1.415-2.646-1.503-.127-.018-.247-.015-.372-.018l-.184-.006c-.101.002.085 0 .058 0h-.032l-.059-.004c-.032-.002-.095-.002-.1-.006-.002-.003-.006-.005-.006-.005l-.097-.021c-.21-.042-.472-.115-.74-.204-.528-.17-1.09-.388-1.647-.613-.562-.23-1.122-.471-1.695-.721-.346-.14-.564-.242-.917-.373-.326-.129-.65-.24-.968-.346-1.289-.424-2.659-.728-4.079-.8-1.42-.078-2.89.1-4.253.53-1.37.425-2.615 1.078-3.733 1.759l-.824.51-.4.254-.416.27c-.606.407-1.135.84-1.642 1.283-1.008.886-1.898 1.81-2.773 2.717-.87.903-1.717 1.805-2.57 2.588-.419.388-.854.748-1.239.99-.148.096-.461.255-.729.406-.29.17-.613.36-.89.538-2.203 1.398-4.23 2.934-6.206 4.552-1.965 1.621-3.87 3.314-5.671 5.113-1.8 1.802-3.553 3.652-5.176 5.612-.423.477-.816.982-1.213 1.477-.39.504-.8.99-1.18 1.503l-1.135 1.538-.285.384-.152.208-.133.19-.256.374c.051.092.095.196.127.314.044.164.086.33.131.495.093.129.165.273.192.44.017.117.051.228.078.344.197.196.36.418.499.658.144-.22.286-.439.433-.657.7-1.042 1.446-2.005 2.184-3.011.368-.496.769-.971 1.152-1.46.387-.482.769-.973 1.179-1.435 1.586-1.909 3.298-3.708 5.054-5.462 1.758-1.75 3.616-3.4 5.533-4.976 1.92-1.568 3.91-3.066 5.988-4.383.26-.163.51-.31.77-.464.275-.155.545-.283.852-.474.585-.37 1.077-.793 1.553-1.226.945-.867 1.805-1.784 2.672-2.681.866-.895 1.73-1.784 2.644-2.585.458-.399.926-.783 1.416-1.106.509-.333 1.044-.674 1.564-.992 1.046-.64 2.12-1.193 3.251-1.545 1.13-.354 2.314-.5 3.498-.437 1.186.058 2.365.316 3.517.692.287.095.57.193.846.303.272.096.583.236.853.344.575.25 1.154.498 1.74.736.59.237 1.18.467 1.801.668.31.1.627.193.974.265.138.032.435.072.57.072l.242.005c.06.006.12-.002.177.008.467.05.87.284 1.152.654.279.366.412.876.343 1.289l.014-.064c-.038.177-.027.213-.025.3.004.078.019.138.03.207.034.119.078.23.133.321.05.1.11.17.17.252l-.743.562c.252.229 2.722.575 3.238.719.533.143 1.02.229 1.5.333.47.106.939.236 1.408.38 1.88.586 3.723 1.354 5.515 2.211 3.583 1.726 6.966 3.866 10.052 6.365 1.539 1.254 2.998 2.595 4.365 4.031 1.359 1.44 2.612 2.969 3.762 4.588 2.3 3.228 4.185 6.747 5.58 10.447 1.395 3.703 2.292 7.587 2.687 11.522.395 3.935.298 7.923-.245 11.841-.554 3.892-1.744 7.708-3.32 11.329-1.586 3.625-3.615 7.055-6.04 10.176-1.217 1.561-2.528 3.046-3.925 4.44-1.407 1.391-2.906 2.685-4.476 3.885-1.567 1.205-3.226 2.287-4.946 3.267-.85.505-1.738.944-2.617 1.398l-1.348.626c-.446.216-.9.403-1.353.587-.46.185-.9.382-1.372.556l-1.42.517-.357.126-.336.11-.707.223c-.475.142-.942.312-1.42.433-1.906.55-3.847.946-5.798 1.266-1.957.286-3.93.445-5.905.488-1.974.01-3.948-.102-5.908-.342-1.955-.265-3.893-.664-5.799-1.177-1.898-.537-3.76-1.205-5.58-1.975-1.806-.795-3.57-1.697-5.278-2.692-1.689-1.03-3.346-2.113-4.916-3.32-1.571-1.206-3.097-2.471-4.538-3.84-1.457-1.34-2.824-2.784-4.154-4.258-.645-.753-1.315-1.487-1.93-2.268l-.94-1.156-.901-1.188c-.615-.785-1.17-1.599-1.748-2.401-.293-.397-.564-.827-.843-1.241l-.067-.098c-.29-.328-.57-.678-.837-1.043-.053.013-.121.034-.214.074-.347.146-.683.361-.966.641l-.002.002c-.235.233-.22.297-.177.344l.103.157.209.315.42.628c.282.416.546.836.85 1.252.595.83 1.172 1.68 1.795 2.48l.922 1.217.96 1.188c.629.8 1.314 1.555 1.975 2.33 1.364 1.516 2.767 3.001 4.268 4.388 1.479 1.41 3.054 2.722 4.675 3.971 1.623 1.253 3.338 2.38 5.092 3.449 1.775 1.039 3.604 1.983 5.489 2.813 1.896.804 3.836 1.506 5.823 2.07 1.99.543 4.016.961 6.064 1.243 2.05.255 4.115.376 6.181.37 2.067-.043 4.127-.205 6.17-.5 2.04-.33 4.062-.74 6.044-1.308.499-.125.983-.299 1.476-.446l.737-.233c.13-.042.224-.066.389-.125l.353-.129 1.422-.512c.474-.172.962-.386 1.442-.58.484-.192.964-.393 1.427-.616l1.401-.649c.919-.47 1.845-.927 2.735-1.45 1.79-1.02 3.526-2.146 5.166-3.403 1.644-1.248 3.212-2.597 4.682-4.046 1.464-1.455 2.832-3 4.102-4.628 2.537-3.254 4.658-6.822 6.318-10.593.83-1.886 1.545-3.823 2.134-5.8.595-1.977 1.055-3.998 1.35-6.062.57-4.079.677-8.222.268-12.331M169.07 95.383l-.857 1.66-.423.811c-.146.27-.296.56-.44.806-.576 1.023-1.228 2.062-1.914 3.048-1.376 1.982-2.93 3.855-4.614 5.607-.844.876-1.717 1.722-2.624 2.532-.454.403-.913.8-1.382 1.184-.236.193-.478.39-.72.579l-.297-.18c-.391-.23-.786-.456-1.187-.673-.8-.434-1.619-.844-2.501-1.188-.442-.173-.9-.326-1.41-.434-.259-.049-.522-.094-.835-.09-.073-.004-.162.007-.242.013l-.146.015-.08.017-.081.017-.118.028c-.08.017-.155.04-.224.065-.282.094-.567.236-.814.44-.247.203-.448.458-.586.729-.063.127-.112.255-.154.382-.14-.112-.289-.221-.442-.323-.501-.326-1.07-.62-1.767-.69-.177-.012-.353-.01-.534.01-.18.025-.358.068-.53.137-.168.068-.331.149-.476.251-.15.097-.275.216-.396.333-.116.121-.224.246-.315.377-.103.13-.173.264-.256.397-.03.055-.056.108-.082.16l-.04-.024c-.214-.115-.442-.216-.687-.293-.484-.159-1.053-.22-1.623-.097-.571.118-1.099.426-1.5.795-.147.13-.272.27-.392.412-.09-.026-.178-.058-.27-.08-.358-.097-.725-.17-1.1-.218-.748-.095-1.542-.09-2.339.102-.199.043-.396.108-.592.176-.195.073-.389.155-.575.253-.188.095-.372.203-.543.324-.176.119-.341.25-.499.39-.154.137-.304.287-.44.44-.135.155-.266.316-.38.483-.045.06-.08.126-.121.189l-.05-.012c-.279-.07-.56-.147-.839-.24-.56-.178-1.114-.393-1.656-.635-1.084-.489-2.13-1.08-3.111-1.771-1.968-1.372-3.703-3.092-5.168-5.023-.737-.967-1.407-1.985-2.024-3.037-.298-.533-.601-1.063-.87-1.612l-.208-.41-.026-.051-.008-.012-.007-.015-.05-.108-.1-.217-.397-.861c-.46-1.082-.877-2.236-1.213-3.394-.324-1.165-.573-2.35-.742-3.542-.323-2.39-.323-4.816.067-7.193.178-1.186.472-2.357.837-3.503.358-1.149.814-2.269 1.349-3.35.252-.548.558-1.07.847-1.6.32-.512.62-1.036.971-1.53.67-1.009 1.424-1.964 2.228-2.874 1.606-1.826 3.453-3.447 5.444-4.875.245-.184.5-.354.755-.524l.748-.504c.264-.16.55-.35.797-.486.25-.146.501-.291.77-.43 1.056-.565 2.16-1.036 3.3-1.414 2.271-.77 4.674-1.158 7.088-1.18 2.416-.022 4.84.315 7.182.971 2.346.646 4.608 1.61 6.742 2.81 4.272 2.403 7.988 5.778 11.014 9.675 1.514 1.95 2.86 4.037 4.036 6.215.3.545.581 1.097.856 1.652.135.28.276.554.407.838l.417.902.877 1.69.391.75-3.107 6.028zm4.875-5.167c-.006-.29.095-.561.258-.785-.326-.62-.95-1.765-1.051-1.952l-.697-1.355-.387-.844c-.133-.29-.277-.578-.418-.866-.28-.577-.571-1.15-.877-1.714-1.212-2.263-2.604-4.433-4.175-6.47-3.137-4.07-7.013-7.623-11.517-10.177-2.249-1.275-4.644-2.308-7.142-3.004-2.498-.706-5.094-1.079-7.696-1.064-2.6.014-5.208.423-7.68 1.251-1.237.414-2.44.927-3.59 1.542-.577.3-1.15.649-1.678.98-.547.377-1.086.71-1.606 1.095-2.095 1.506-4.05 3.22-5.758 5.163-.858.971-1.659 1.99-2.378 3.067-.374.53-.699 1.09-1.04 1.642-.31.568-.634 1.128-.91 1.716-.575 1.162-1.064 2.367-1.453 3.606-.391 1.234-.706 2.498-.9 3.78-.416 2.562-.421 5.182-.07 7.75.188 1.28.463 2.55.812 3.796.37 1.242.81 2.454 1.333 3.656l.4.864c.072.15.125.276.21.443l.223.43c.286.576.607 1.134.926 1.698.659 1.11 1.374 2.19 2.164 3.216 1.575 2.057 3.448 3.903 5.597 5.389 1.07.743 2.213 1.39 3.412 1.92.6.265 1.213.5 1.841.7.64.195 1.251.361 1.97.461.234.027.473-.096.581-.321l.01-.02c.127-.262.26-.521.425-.754.08-.121.167-.229.258-.337.093-.106.19-.204.292-.299.41-.37.905-.637 1.454-.768.549-.138 1.14-.159 1.73-.089.297.034.593.09.885.163.145.038.289.078.431.125.137.043.294.098.403.146l.007.002c.283.117.613-.004.752-.282.083-.167.17-.326.267-.477.101-.144.203-.288.32-.405.229-.242.493-.416.781-.498.29-.083.61-.08.938-.003.165.037.328.094.488.162.08.036.16.074.235.118.072.037.161.09.205.123l.886-.267.139-.34c.055-.105.104-.214.161-.315.063-.096.116-.202.186-.285.063-.095.133-.173.203-.246.074-.07.146-.142.226-.19.076-.056.156-.094.24-.128.08-.032.168-.053.257-.066.088-.012.183-.014.28-.006.098.011.197.028.3.057.102.028.208.064.31.108.21.087.416.204.617.336.201.133.399.284.589.447.093.083.186.166.275.253.087.084.182.18.249.258.12.128.294.206.48.19.322-.022.563-.302.539-.622v-.01c-.01-.117.004-.325.036-.476.032-.163.087-.312.16-.44.147-.252.366-.415.675-.5.04-.014.078-.021.11-.027l.051-.011.082-.011.081-.012c-.013.004.027.002.038.002.035-.002.067-.007.109-.002.153.004.337.044.522.09.37.101.755.255 1.133.43.757.354 1.5.79 2.226 1.25.364.23.725.468 1.078.712.355.244.714.498 1.051.75v.001l.012.008c.193.148.467.155.672.006 2.08-1.514 3.944-3.2 5.718-5.006 1.765-1.809 3.4-3.75 4.857-5.818.73-1.038 1.408-2.1 2.044-3.21.623-1.094 1.19-2.216 1.771-3.317 0 0 2.137-3.97 3.075-5.706-.004-.134-.02-.27-.023-.407z"/>
        <path fill="#FFF" d="M182.487 105.324c-.326.223 2.263 4.508 1.898 4.382-.203.304-.406.609-.617.91-.945 1.373-1.926 2.722-2.928 4.054-1.016 1.319-2.042 2.635-3.124 3.9-1.074 1.27-2.181 2.515-3.34 3.705-1.155 1.194-2.352 2.346-3.605 3.427-.628.537-1.266 1.065-1.926 1.553-.653.486-1.354.974-2.014 1.34-.108.058-.2.147-.258.264l-.006.011c-.148.29-.366.644-.575.96-.22.323-.436.647-.68.959-.46.635-.977 1.247-1.487 1.85-.522.592-1.037 1.188-1.606 1.769l-.826.866c-.271.271-.552.528-.85.774-1.19.976-2.57 1.746-4.012 2.361-1.446.615-2.963 1.08-4.506 1.406-.772.163-1.55.29-2.333.373-.778.083-1.563.126-2.328.09-.376-.015-.777-.054-1.1-.119-.079-.011-.191-.043-.286-.066l-.277-.07-.596-.155c-.797-.202-1.594-.378-2.397-.53-.4-.081-.805-.15-1.207-.214-.4-.071-.805-.132-1.21-.187-.403-.06-.81-.111-1.218-.155-.402-.051-.816-.087-1.231-.12-.42-.043-.815-.048-1.219-.073-.376-.01-.638-.072-.856-.214-.214-.138-.362-.363-.454-.654-.089-.28-.115-.657-.081-.946l-.54-.659c-3.958-.28-7.874-1.244-11.575-2.707-3.699-1.476-7.184-3.477-10.32-5.93-3.144-2.443-5.9-5.363-8.27-8.558-1.17-1.612-2.238-3.294-3.221-5.027-.959-1.744-1.835-3.545-2.604-5.369-.2-.454-.372-.933-.558-1.398l-.346-.88-.06-.166-.126-.35c-.34-.933-.628-1.887-.907-2.84-.53-1.915-.945-3.863-1.222-5.833-.558-3.939-.617-7.946-.184-11.904.43-3.954 1.35-7.858 2.746-11.585 1.393-3.726 3.274-7.271 5.59-10.506 2.325-3.228 5.079-6.15 8.197-8.627 3.109-2.49 6.565-4.543 10.224-6.128 3.663-1.593 7.51-2.724 11.445-3.453 3.927-.715 7.941-.955 11.913-.603 3.971.337 7.888 1.247 11.614 2.667 3.731 1.41 7.26 3.334 10.541 5.602 3.282 2.276 6.315 4.91 9.084 7.791 2.763 2.885 5.299 6.01 7.451 9.36.293.46.908.597 1.37.306.466-.294.604-.908.306-1.368-2.226-3.504-4.81-6.714-7.647-9.707-2.845-2.984-5.967-5.72-9.366-8.098-3.397-2.374-7.07-4.4-10.972-5.895-3.9-1.493-8.021-2.452-12.195-2.813-4.173-.373-8.389-.125-12.492.619l-.385.07-.21.04-.187.037-.742.153c-.486.095-1.004.22-1.516.34-.517.118-1.018.25-1.519.387-.505.129-1.004.274-1.501.424-1.993.596-3.955 1.305-5.869 2.134-3.83 1.655-7.459 3.804-10.727 6.417-3.278 2.6-6.178 5.668-8.624 9.056-2.435 3.396-4.413 7.114-5.874 11.017-1.468 3.901-2.434 7.984-2.89 12.121-.456 4.138-.4 8.334.181 12.462.289 2.066.723 4.111 1.28 6.126.29 1.005.592 2.006.95 2.99l.131.37.033.091.045.12.07.175.28.702c.19.471.354.929.569 1.411.827 1.949 1.736 3.797 2.746 5.621 1.03 1.805 2.156 3.563 3.386 5.244 2.492 3.345 5.402 6.408 8.734 8.943 3.322 2.543 6.998 4.622 10.897 6.12 3.56 1.346 7.286 2.246 11.091 2.574.027.134.057.265.099.399.169.579.57 1.237 1.192 1.638.3.2.628.331.943.41.156.037.31.065.458.082.076.012.148.013.22.017l.169.01c.396.022.821.028 1.186.066.374.032.751.062 1.144.111.39.042.779.09 1.168.148.389.051.778.108 1.167.176.387.062.776.127 1.16.206.772.144 1.539.31 2.294.5l.562.147.326.083c.109.023.173.046.317.072.13.023.27.05.391.068l.35.042c.227.023.457.044.679.05.894.037 1.754-.014 2.602-.105.85-.092 1.686-.23 2.513-.405 1.655-.352 3.274-.853 4.838-1.52 1.564-.672 3.082-1.512 4.447-2.636.34-.282.666-.583.985-.899l.846-.89c.555-.57 1.107-1.21 1.66-1.838.538-.64 1.068-1.271 1.565-1.954.254-.33.493-.687.733-1.04.121-.175.233-.37.349-.555.055-.083.108-.18.161-.276l.285-.174c.195-.121.378-.244.564-.367.364-.25.719-.507 1.068-.77.697-.52 1.359-1.073 2.014-1.635 1.298-1.128 2.528-2.32 3.71-3.551 1.185-1.228 2.31-2.501 3.4-3.803 1.1-1.296 2.137-2.637 3.165-3.98 1.012-1.359 2.003-2.732 2.957-4.126.333-.485.657-.973.982-1.46-.164-.203-3.639-4.778-3.639-4.778M254.106 94.8c-.321 2.33-.968 4.6-1.967 6.701-.992 2.11-2.34 4.034-3.925 5.754-1.596 1.717-3.462 3.203-5.487 4.468-2.023 1.268-4.206 2.316-6.472 3.188l-.816.308-.898.303c-.286.091-.542.157-.816.24-.265.082-.56.139-.839.21-1.135.26-2.285.42-3.44.475-2.314.116-4.64-.213-6.879-.89-2.245-.684-4.397-1.732-6.422-3.02-2.022-1.289-3.922-2.815-5.698-4.486-1.773-1.67-3.428-3.489-4.994-5.384-1.564-1.9-3.021-3.896-4.376-5.96-.676-1.035-1.327-2.085-1.946-3.152-.601-1.046-1.197-2.132-1.683-3.18l.364-.74c.744-1.502 1.443-3.055 2.154-4.548.716-1.538 1.448-2.955 2.276-4.389 1.647-2.84 3.593-5.505 5.884-7.827 1.15-1.154 2.383-2.219 3.706-3.146.663-.461 1.346-.89 2.052-1.267.351-.19.71-.364 1.067-.524.182-.08.362-.156.54-.224l.154-.058c.012.01.023.015.035.022.144.093.288.182.434.269.294.17.589.333.892.486.606.305 1.243.566 1.911.765.67.19 1.382.321 2.128.281.186-.007.37-.034.558-.062.188-.038.374-.083.554-.148.184-.064.363-.136.532-.23.047-.025.089-.055.134-.082l.016.012c.117.073.237.142.36.208.247.126.505.24.773.329.535.178 1.123.269 1.72.217.597-.052 1.184-.251 1.687-.556.254-.15.487-.325.702-.514.07-.059.13-.123.197-.186.044.015.091.036.14.05.226.07.46.117.695.149.473.06.963.045 1.433-.06.469-.105.917-.292 1.314-.538.23-.142.44-.303.637-.473.148.07.296.133.448.187.313.118.64.203.974.261.67.114 1.378.108 2.061-.045.681-.151 1.332-.43 1.906-.796.148-.09.284-.188.421-.288.142-.096.264-.206.397-.312.064-.051.12-.108.182-.163l.283.07c.273.074.546.155.821.25.547.185 1.086.41 1.616.654 1.057.492 2.06 1.103 3.002 1.8 1.88 1.4 3.468 3.169 4.793 5.127 1.324 1.96 2.353 4.124 3.131 6.392.786 2.265 1.306 4.62 1.596 6.985.287 2.365.29 4.755-.022 7.087M215.632 66.13c-.474.138-.86.293-1.268.469-.395.178-.79.365-1.17.57-.766.404-1.498.86-2.204 1.346-1.41.982-2.714 2.1-3.923 3.305-2.409 2.42-4.438 5.182-6.148 8.107-.854 1.455-1.651 2.984-2.353 4.492-.731 1.519-1.418 3.03-2.168 4.527l-.94 1.903c.352.515.661 1.073.934 1.656l.088.208c.913 1.84 1.913 3.27 2.995 5.002 1.357 2.141 2.818 4.217 4.401 6.201 1.58 1.987 3.278 3.884 5.115 5.648 1.84 1.761 3.823 3.388 5.97 4.786 2.146 1.395 4.467 2.558 6.93 3.334 2.46.777 5.066 1.15 7.659 1.029 1.29-.057 2.58-.235 3.841-.52.629-.137 1.264-.316 1.881-.505l.898-.3.905-.338c2.384-.908 4.701-2.011 6.878-3.366 2.177-1.347 4.21-2.955 5.971-4.835 1.756-1.88 3.238-4.028 4.326-6.365 1.095-2.334 1.795-4.84 2.131-7.386.332-2.544.312-5.127-.005-7.664-.317-2.539-.927-5.032-1.788-7.439-.86-2.404-2-4.73-3.468-6.843-1.463-2.117-3.266-4.02-5.379-5.524-1.06-.751-2.19-1.402-3.38-1.926-.598-.263-1.209-.494-1.835-.685-.634-.19-1.245-.348-1.955-.44h-.002c-.177-.018-.366.049-.49.194l-.01.01c-.174.2-.354.395-.544.575-.099.085-.19.182-.294.26-.1.082-.201.162-.308.234-.415.3-.875.526-1.357.656-.48.136-.985.17-1.482.114-.249-.029-.497-.08-.738-.155-.12-.035-.238-.078-.353-.123-.11-.046-.238-.106-.31-.148l-.72.098c-.485.506-1.068.882-1.701 1.02-.317.07-.646.08-.972.038-.162-.02-.325-.057-.482-.104-.078-.025-.156-.053-.23-.081-.07-.029-.16-.07-.194-.09l-.745.137c-.143.17-.29.335-.448.478-.158.148-.325.279-.5.388-.35.224-.734.36-1.138.405-.4.044-.818-.004-1.226-.128-.207-.063-.407-.146-.6-.24-.099-.048-.194-.1-.287-.154-.087-.053-.191-.12-.25-.165l-.029-.017c-.199-.123-.46-.128-.672.008-.11.066-.214.142-.33.195-.112.06-.233.102-.357.142-.121.04-.248.064-.38.089-.134.015-.265.032-.405.03-.549.013-1.124-.106-1.69-.288-.563-.19-1.12-.44-1.653-.736-.27-.145-.533-.302-.793-.467-.13-.083-.256-.168-.38-.253-.125-.087-.254-.18-.364-.263"/>
        <path fill="#FFF" d="M174.224 89.508s.609 1.398 1.554 3.447l.79 1.648c.273.586.584 1.195.903 1.825.325.629.641 1.285.994 1.938.355.65.712 1.31 1.075 1.973.349.668.738 1.31 1.114 1.947.374.637.746 1.264 1.104 1.87l2.088 3.22c1.323 1.806 2.202 3.013 2.202 3.013l.013.015c.273.376.192.902-.186 1.177-.372.272-.896.193-1.17-.173l-2.315-3.06c-.643-.952-1.395-2.065-2.195-3.258-.378-.612-.765-1.245-1.158-1.889-.395-.643-.805-1.292-1.17-1.963-.377-.668-.757-1.334-1.127-1.993-.372-.656-.704-1.318-1.044-1.952-.336-.636-.664-1.247-.95-1.839-.295-.59-.572-1.144-.828-1.66-.497-1.036-.917-1.906-1.192-2.508l-.44-.948c-.245-.525-.014-1.15.514-1.394.532-.244 1.156-.015 1.4.513l.008.017.016.034zM183.353 65.422l.71 1.101c.228.35.5.774.814 1.262.326.477.653 1.063 1.02 1.688.365.628.76 1.307 1.182 2.026.39.725.808 1.487 1.237 2.278.435.785.864 1.606 1.294 2.44l1.316 2.526c.87 1.691 1.742 3.383 2.56 4.968.41.79.8 1.56 1.188 2.274.386.715.746 1.395 1.084 2.02.328.629.65 1.193.936 1.694.286.498.533.933.734 1.292.41.717.642 1.128.642 1.128l.005.007c.23.405.09.92-.318 1.149-.407.229-.921.087-1.15-.314 0 0-.24-.415-.655-1.14l-.756-1.307c-.29-.503-.619-1.074-.954-1.706-.342-.63-.714-1.311-1.107-2.032-.395-.719-.79-1.487-1.203-2.278-.83-1.581-1.712-3.27-2.595-4.96l-1.32-2.507c-.437-.829-.868-1.642-1.303-2.418-.429-.776-.84-1.527-1.235-2.242l-1.156-1.954c-.36-.606-.672-1.164-1.004-1.644l-.822-1.26c-.456-.695-.717-1.096-.717-1.096-.281-.43-.158-1.002.27-1.282.434-.282 1.009-.16 1.29.268l.002.006.01.013z"/>
    </g>
</svg>
