<svg xmlns="http://www.w3.org/2000/svg" xmlns:xlink="http://www.w3.org/1999/xlink" width="206" height="181" viewBox="0 0 206 181">
    <defs>
        <path id="prefix__a" d="M0.416 0.465L142.797 0.465 142.797 87 0.416 87z"/>
        <path id="prefix__c" d="M0.264 0.023L13.887 0.023 13.887 22 0.264 22z"/>
        <path id="prefix__e" d="M0.212 0.211L4.742 0.211 4.742 6.84 0.212 6.84z"/>
    </defs>
    <g fill="none" fill-rule="evenodd">
        <path fill="#5A34C5" d="M0 0L9.437 178 151 94.754z"/>
        <g transform="translate(10 94)">
            <mask id="prefix__b" fill="#fff">
                <use xlink:href="#prefix__a"/>
            </mask>
            <path fill="#997AF1" d="M142.448 2.136c3.86 6.553-24.727 30.488-63.851 53.462C39.47 78.57 4.625 91.883.765 85.329c-3.861-6.552 24.727-30.488 63.852-53.461C103.74 8.894 138.588-4.417 142.448 2.136" mask="url(#prefix__b)"/>
        </g>
        <g>
            <path fill="#943FF7" d="M92.736 11.234c.16.178.261.44.264.737.005.542-.327.986-.741.992l-2.5.037c-.414.006-.754-.428-.759-.97-.005-.543.327-.987.742-.993l2.5-.037c.188-.002.36.086.494.234M15.186 12.158c.18.182.295.45.298.752.005.553-.369 1.007-.836 1.014L8.855 14c-.467.007-.85-.437-.855-.99-.005-.554.37-1.007.836-1.013l5.793-.077c.212-.003.407.088.557.238m11.586-.153c.18.182.295.45.298.752.005.554-.369 1.007-.836 1.013l-5.793.077c-.467.006-.85-.438-.855-.99-.005-.554.37-1.007.836-1.014l5.793-.076c.212-.003.407.087.557.238m11.586-.153c.18.181.295.45.298.752.005.553-.369 1.006-.836 1.013l-5.793.076c-.467.007-.85-.437-.855-.99-.005-.553.37-1.007.836-1.013l5.793-.077c.212-.002.407.088.557.24m11.586-.154c.18.181.295.45.298.752.005.553-.369 1.007-.836 1.012l-5.793.077c-.467.006-.85-.437-.855-.99-.005-.554.369-1.007.836-1.013l5.793-.077c.212-.003.407.088.557.239m11.586-.154c.18.182.295.45.298.752.005.554-.37 1.007-.836 1.013l-5.793.077c-.467.006-.85-.437-.855-.99-.005-.554.369-1.007.836-1.014l5.793-.076c.212-.003.407.087.557.238m11.586-.153c.18.181.295.45.298.752.005.553-.369 1.007-.836 1.013l-5.793.076c-.467.007-.85-.436-.855-.99-.005-.553.369-1.007.836-1.013l5.793-.076c.212-.003.407.087.557.238m11.586-.153c.18.181.295.45.298.751.005.554-.369 1.008-.836 1.014l-5.793.076c-.467.006-.85-.437-.855-.99-.005-.553.37-1.007.836-1.013L84.145 11c.212-.003.407.087.557.239M3.736 12.234c.16.178.261.441.264.737.005.542-.327.987-.742.992L.758 14c-.413.006-.754-.429-.758-.97-.005-.542.327-.987.741-.993l2.5-.037c.189-.003.362.086.495.234" transform="translate(71 24)"/>
            <g transform="translate(71 24) translate(99)">
                <mask id="prefix__d" fill="#fff">
                    <use xlink:href="#prefix__c"/>
                </mask>
                <path fill="#943FF7" d="M.264 18.456l1.417-1.243c.468.714 1.23 1.41 2.287 2.086.991.62 2.079.929 3.262.929 1.183 0 2.242-.379 3.177-1.135.936-.758 1.404-1.806 1.404-3.144 0-1.339-.403-2.427-1.207-3.265-.805-.839-1.87-1.258-3.199-1.258H4.417V9.639h2.988c1.225 0 2.151-.387 2.778-1.164.626-.776.94-1.746.94-2.908s-.386-2.081-1.158-2.758c-.771-.676-1.756-1.015-2.952-1.015-1.497 0-2.896.596-4.196 1.787-.262.228-.472.443-.63.643L.838 2.894c.683-.8 1.562-1.478 2.638-2.035C4.553.3 5.705.023 6.935.023s2.304.243 3.22.728c.917.486 1.653 1.146 2.21 1.98.556.833.834 1.731.834 2.693 0 1.515-.462 2.83-1.388 3.944-.412.496-.828.88-1.25 1.157 1.151.706 1.994 1.496 2.526 2.373.534.866.8 1.863.8 2.987 0 1.98-.627 3.496-1.88 4.543C10.754 21.476 9.089 22 7.013 22c-2.676 0-4.925-1.18-6.749-3.544" mask="url(#prefix__d)"/>
            </g>
            <path fill="#943FF7" d="M127.463 8.583v9.628c0 1.47.512 2.206 1.537 2.206V22c-1.398 0-2.342-.33-2.83-.99-.412-.546-.632-1.234-.66-2.064V8.583h-6.192v13.332h-1.896V8.583H116V7h12.885v1.583h-1.422z" transform="translate(71 24)"/>
            <g transform="translate(71 24) translate(130)">
                <mask id="prefix__f" fill="#fff">
                    <use xlink:href="#prefix__e"/>
                </mask>
                <path fill="#943FF7" d="M.212 6.84c0-.79.292-1.473.877-2.05.302-.29.594-.536.877-.738l.702-.505c.496-.347.783-.592.861-.737.166-.289.25-.563.25-.823 0-.665-.381-.996-1.141-.996-.38 0-.687.118-.92.353-.235.236-.352.494-.352.773H.402c0-.558.217-1.016.65-1.372.434-.356.962-.534 1.586-.534.623 0 1.13.168 1.52.505.39.338.585.76.585 1.271 0 .52-.196.977-.585 1.372-.244.231-.492.443-.745.635-.273.212-.614.463-1.023.751-.76.53-1.14.95-1.14 1.257h3.405v.838H.212z" mask="url(#prefix__f)"/>
            </g>
        </g>
    </g>
</svg>
