<svg xmlns="http://www.w3.org/2000/svg" xmlns:xlink="http://www.w3.org/1999/xlink" width="337" height="220" viewBox="0 0 337 220">
    <defs>
        <path id="prefix__a" d="M0 0.071L43.929 0.071 43.929 44 0 44z"/>
        <path id="prefix__c" d="M0.226 0.068L33.929 0.068 33.929 35 0.226 35z"/>
    </defs>
    <g fill="none" fill-rule="evenodd">
        <g>
            <path fill="#5A34C5" d="M3.5 103c-.829 0-1.5-.62-1.5-1.386V66.386C2 65.621 2.671 65 3.5 65c.828 0 1.5.62 1.5 1.386v35.228c0 .765-.672 1.386-1.5 1.386" transform="translate(0 51)"/>
            <path fill="#5A34C5" d="M6.195 101L121.5 166.04 236.804 101 121.5 35.961 6.195 101.001zM121.5 169c-.237 0-.474-.06-.686-.18L2.701 102.198C2.268 101.953 2 101.496 2 101c0-.495.268-.952.701-1.197L120.814 33.18c.426-.24.946-.24 1.371 0l118.113 66.623c.433.245.702.702.702 1.197 0 .496-.269.953-.702 1.198L122.185 168.82c-.212.12-.448.18-.685.18z" transform="translate(0 51)"/>
            <path fill="#5A34C5" d="M121.5 169c-.828 0-1.5-.621-1.5-1.387v-35.227c0-.765.672-1.386 1.5-1.386s1.5.62 1.5 1.386v35.227c0 .766-.672 1.387-1.5 1.387M239.5 103c-.828 0-1.5-.62-1.5-1.386V66.386c0-.765.672-1.386 1.5-1.386.829 0 1.5.62 1.5 1.386v35.228c0 .765-.671 1.386-1.5 1.386" transform="translate(0 51)"/>
            <path fill="#997AF1" d="M121 133L0 64.185 121 0 242 64.185z" transform="translate(0 51)"/>
        </g>
        <path stroke="#B132FB" stroke-dasharray="6" stroke-linecap="round" stroke-width="2" d="M314.507 22L136 135.334"/>
        <g transform="translate(293)">
            <mask id="prefix__b" fill="#fff">
                <use xlink:href="#prefix__a"/>
            </mask>
            <path fill="#997AF1" d="M43.93 22.035C43.93 34.165 34.094 44 21.963 44 9.834 44 0 34.166 0 22.035 0 9.905 9.834.071 21.964.071 34.095.07 43.93 9.905 43.93 22.035" mask="url(#prefix__b)"/>
            <g transform="translate(10 9)">
                <mask id="prefix__d" fill="#fff">
                    <use xlink:href="#prefix__c"/>
                </mask>
                <path fill="#5A34C5" d="M29.664.068C33.929 19.775 18.196 34.103.226 31.578 3.624 33.734 7.642 35 11.965 35c12.13 0 21.964-9.834 21.964-21.964 0-4.857-1.596-9.331-4.265-12.968" mask="url(#prefix__d)"/>
            </g>
        </g>
    </g>
</svg>
