<svg xmlns="http://www.w3.org/2000/svg" xmlns:xlink="http://www.w3.org/1999/xlink" width="203" height="294" viewBox="0 0 203 294">
    <defs>
        <path id="prefix__a" d="M0 0.378L54.645 0.378 54.645 55.212 0 55.212z"/>
    </defs>
    <g fill="none" fill-rule="evenodd">
        <path fill="#5A34C5" d="M104.516 184.508L23 228 27.484 135.492 109 92z"/>
        <path fill="#997AF1" d="M116.552 287L23 227.462 104.448 184 198 243.538z"/>
        <path fill="#CDC1EF" d="M105 184.456L198.521 244 203 151.544 109.479 92z"/>
        <path fill="#943FF7" d="M177.274 76.831c-.507 0-.998-.273-1.251-.754-.368-.693-.106-1.554.584-1.923l7.887-4.209c.45-.24.996-.219 1.427.057.431.276.68.762.653 1.275l-.028.514c-.042.784-.708 1.386-1.491 1.343-.13-.007-.254-.031-.37-.07l-6.747 3.6c-.212.114-.44.167-.664.167m-16.679 8.902c-.507 0-.997-.273-1.253-.754-.366-.693-.105-1.554.586-1.923l8.34-4.451c.693-.369 1.55-.105 1.916.587.368.694.106 1.555-.585 1.923l-8.34 4.452c-.212.113-.44.166-.664.166m23.52 6.332c-.026 0-.053 0-.078-.002-.783-.042-1.381-.712-1.34-1.496l.51-9.464c.042-.785.699-1.388 1.491-1.344.781.043 1.38.713 1.338 1.497l-.508 9.464c-.041.759-.667 1.345-1.414 1.345m-40.197 2.57c-.508 0-.998-.274-1.253-.755-.368-.693-.105-1.553.586-1.922l8.339-4.451c.693-.37 1.55-.105 1.917.587.367.694.104 1.554-.586 1.923l-8.34 4.451c-.212.113-.44.167-.663.167m-16.68 8.902c-.507 0-.998-.274-1.252-.754-.367-.694-.105-1.555.586-1.924l8.34-4.45c.692-.37 1.549-.105 1.916.587.367.694.104 1.555-.585 1.923l-8.34 4.451c-.213.113-.44.167-.664.167m55.857 7.457c-.026 0-.052 0-.079-.002-.78-.042-1.38-.712-1.338-1.496l.51-9.464c.043-.785.71-1.389 1.491-1.344.782.043 1.381.712 1.34 1.497l-.51 9.464c-.042.758-.667 1.345-1.414 1.345m-1.02 18.93l-.077-.003c-.781-.042-1.38-.712-1.338-1.496l.509-9.465c.042-.784.707-1.382 1.492-1.343.78.042 1.38.712 1.338 1.497l-.51 9.464c-.04.758-.666 1.345-1.414 1.345m-1.018 18.929c-.027 0-.052 0-.079-.002-.78-.042-1.38-.712-1.338-1.497l.51-9.464c.042-.784.706-1.384 1.491-1.343.781.043 1.38.713 1.339 1.496l-.51 9.465c-.04.758-.666 1.345-1.413 1.345m-1.019 18.93l-.078-.003c-.781-.043-1.38-.713-1.339-1.496l.51-9.465c.042-.784.702-1.386 1.49-1.343.782.043 1.382.713 1.339 1.496l-.509 9.465c-.04.758-.666 1.345-1.413 1.345m-1.02 18.93l-.077-.003c-.782-.043-1.38-.712-1.34-1.497l.51-9.463c.043-.785.7-1.388 1.492-1.344.781.043 1.38.712 1.339 1.497l-.51 9.464c-.04.758-.667 1.345-1.413 1.345m-1.02 18.93l-.077-.003c-.781-.042-1.381-.712-1.338-1.496l.509-9.465c.042-.784.698-1.388 1.49-1.343.783.042 1.381.712 1.34 1.497l-.51 9.464c-.041.758-.666 1.345-1.414 1.345m-3.801 17.147c-.507 0-.997-.274-1.252-.754-.368-.693-.105-1.554.585-1.923l2.258-1.204.285-5.3c.042-.784.709-1.383 1.491-1.343.781.042 1.38.712 1.339 1.496l-.329 6.101c-.027.498-.311.945-.75 1.179l-2.962 1.582c-.213.113-.441.166-.665.166m-16.679 8.902c-.507 0-.997-.274-1.252-.755-.368-.693-.105-1.554.586-1.922l8.34-4.45c.692-.37 1.548-.106 1.915.587s.106 1.554-.585 1.922l-8.339 4.451c-.213.114-.44.167-.665.167m-16.679 8.901c-.507 0-.997-.273-1.251-.754-.368-.693-.106-1.554.585-1.922l8.339-4.451c.693-.369 1.549-.105 1.916.588s.106 1.554-.585 1.922l-8.339 4.45c-.212.114-.44.167-.665.167m-16.68 8.902c-.506 0-.996-.273-1.25-.754-.369-.693-.107-1.554.584-1.923l8.34-4.45c.692-.37 1.55-.106 1.916.587.368.694.106 1.554-.585 1.923l-8.34 4.45c-.212.114-.44.167-.664.167m-85.63 4.34c-.024 0-.047-.001-.07-.003-.782-.038-1.385-.704-1.346-1.489l.458-9.467c.038-.784.69-1.388 1.484-1.351.782.038 1.384.705 1.346 1.49l-.46 9.466c-.036.761-.661 1.353-1.413 1.353m68.952 4.563c-.507 0-.997-.273-1.252-.754-.368-.693-.106-1.554.586-1.923l8.34-4.451c.692-.368 1.548-.105 1.915.588.368.693.106 1.554-.585 1.923l-8.339 4.45c-.213.113-.44.167-.665.167m-16.679 8.902c-.507 0-.997-.274-1.251-.754-.368-.694-.106-1.554.585-1.924l8.339-4.45c.693-.37 1.55-.106 1.916.587.368.694.106 1.554-.585 1.923l-8.34 4.451c-.211.113-.44.167-.664.167m-53.19 5.47l-.07-.002c-.781-.039-1.384-.705-1.346-1.49l.459-9.466c.037-.785.694-1.394 1.483-1.352.782.039 1.384.705 1.347 1.49l-.459 9.466c-.037.761-.663 1.353-1.414 1.353m36.511 3.433c-.507 0-.997-.274-1.251-.755-.368-.693-.106-1.554.584-1.923l8.34-4.45c.693-.369 1.55-.105 1.916.587.368.693.106 1.554-.585 1.923l-8.34 4.451c-.211.113-.44.167-.664.167m-16.678 8.902c-.508 0-.998-.274-1.252-.755-.368-.693-.107-1.554.585-1.923l8.34-4.45c.692-.37 1.55-.106 1.916.587.368.693.105 1.554-.586 1.923l-8.34 4.45c-.211.113-.44.168-.663.168m-20.75 6.6l-.07-.002c-.782-.038-1.385-.705-1.346-1.49l.458-9.466c.037-.785.697-1.391 1.484-1.352.782.039 1.385.705 1.346 1.49l-.458 9.467c-.037.76-.663 1.353-1.414 1.353m4.07 2.3c-.507 0-.997-.273-1.252-.753-.367-.694-.105-1.555.586-1.923l8.34-4.45c.692-.37 1.549-.106 1.916.586.367.694.104 1.555-.585 1.924l-8.34 4.45c-.212.113-.44.167-.664.167"/>
        <mask id="prefix__b" fill="#fff">
            <use xlink:href="#prefix__a"/>
        </mask>
        <path fill="#997AF1" d="M54.645 27.795c0 15.142-12.233 27.417-27.323 27.417S0 42.937 0 27.795C0 12.653 12.233.378 27.322.378c15.09 0 27.323 12.275 27.323 27.417" mask="url(#prefix__b)"/>
        <path fill="#5A34C5" d="M49.34 11.609c5.305 24.599-14.265 42.483-36.619 39.332 4.227 2.69 9.225 4.271 14.602 4.271 15.09 0 27.322-12.275 27.322-27.417 0-6.062-1.984-11.647-5.305-16.186"/>
    </g>
</svg>
