<svg xmlns="http://www.w3.org/2000/svg" xmlns:xlink="http://www.w3.org/1999/xlink" width="297" height="370" viewBox="0 0 297 370">
    <defs>
        <path id="prefix__a" d="M0 0H297V370H0z"/>
        <path id="prefix__c" d="M0 0.294L336.967 0.294 336.967 256 0 256z"/>
    </defs>
    <g fill="none" fill-rule="evenodd">
        <mask id="prefix__b" fill="#fff">
            <use xlink:href="#prefix__a"/>
        </mask>
        <use fill="#C1E7EF" xlink:href="#prefix__a"/>
        <g mask="url(#prefix__b)">
            <g>
                <path fill="#8AB6DC" d="M90 146.5c0-23.526 18.387-25.59 25.276-58.811 8.85-42.69 12-69.189 52.737-69.189s46.059 47.288 48.801 62.475c6.869 38.042 33.858 46.905 28.483 64.509L90 146.5z" transform="translate(-22 16.5)"/>
                <g transform="translate(-22 16.5) translate(0 128.5)">
                    <mask id="prefix__d" fill="#fff">
                        <use xlink:href="#prefix__c"/>
                    </mask>
                    <path fill="#D9EDF1" d="M314.914 252.693c33.523-97.676 24.978-164.542 0-198.63C289.936 19.975 245.24 3.877 207.115 1.437c-38.123-2.44-75.59-1.129-109.77 5.427-34.18 6.555-74.276 26.222-91.366 73.42-17.09 47.2 5.916 142.254 25.635 163.231 19.719 20.978 283.3 9.178 283.3 9.178" mask="url(#prefix__d)"/>
                </g>
                <path fill="#D9EDF1" d="M122.185 173.5c-3.659 0-7.266.97-10.431 2.807l-61.74 35.81c-6.07 3.522-9.58 10.309-8.939 17.29.933 10.17 3.957 30.642 13.736 53.499 12.077 28.23 30.467 51.245 54.658 68.407 3.86 2.74 8.413 4.187 13.166 4.187 4.02 0 7.987-1.062 11.475-3.073 19.42-11.193 65.009-45.774 68.868-124.931.335-6.87-3.18-13.24-9.174-16.626l-61.394-34.681c-3.114-1.76-6.65-2.689-10.225-2.689" style="mix-blend-mode:multiply" transform="translate(-22 16.5)"/>
                <path fill="#BEDAF2" d="M126 171.5c-2.139.032-4.27.6-6.185 1.71l-61.84 35.867c-3.356 1.947-5.288 5.664-4.933 9.531.676 7.37 2.51 20.438 7.46 35.892H126v-83zM126 336.486c2.758.119 5.554-.535 8.042-1.963C149.047 325.91 179.992 302.9 193 254.5h-67v81.986z" transform="translate(-22 16.5)"/>
                <path fill="#FBFFFF" d="M126 254.5H60c8.136 25.206 24.633 56.762 58.091 80.319 2.368 1.667 5.12 2.562 7.909 2.681v-83zM193.924 207.71l-61.494-34.578c-1.994-1.122-4.216-1.663-6.43-1.63V254.5h67.25c3.002-11.163 5.053-23.673 5.738-37.663.184-3.75-1.783-7.282-5.064-9.127" transform="translate(-22 16.5)"/>
                <path fill="#8AB6DC" d="M126.185 163.5c-3.659 0-7.265.97-10.431 2.806l-61.74 35.811c-6.07 3.522-9.58 10.309-8.94 17.29.934 10.169 3.958 30.642 13.737 53.498 12.077 28.23 30.467 51.246 54.658 68.408 3.86 2.74 8.414 4.187 13.166 4.187 4.019 0 7.987-1.062 11.475-3.073 19.42-11.193 65.008-45.774 68.868-124.931.335-6.87-3.18-13.24-9.174-16.626l-61.395-34.681c-3.113-1.76-6.649-2.689-10.224-2.689m0 8.125c2.149 0 4.3.546 6.234 1.64l61.395 34.68c3.275 1.85 5.239 5.394 5.056 9.155-3.66 75.06-46.318 107.627-64.811 118.286-2.303 1.327-4.868 1.989-7.424 1.989-2.979 0-5.946-.9-8.472-2.69-53.475-37.938-63.229-96.663-65.005-116.02-.353-3.862 1.575-7.573 4.927-9.517l61.74-35.811c1.965-1.14 4.162-1.712 6.36-1.712" transform="translate(-22 16.5)"/>
                <path fill="#FFF" d="M199 77c0-25.129-14.103-45.5-31.5-45.5S136 51.871 136 77s14.103 45.5 31.5 45.5S199 102.129 199 77" transform="translate(-22 16.5)"/>
                <path fill="#FFF" d="M208.724 80.864c1.147-6.027-1.382-11.524-5.648-12.278-4.266-.754-8.653 3.522-9.8 9.55-1.147 6.027 1.383 11.524 5.649 12.278 4.265.754 8.653-3.522 9.799-9.55M142.892 78.12c-.718-6.332-4.834-11.071-9.193-10.586-4.359.485-7.31 6.013-6.591 12.345.718 6.332 4.834 11.072 9.192 10.587 4.36-.486 7.31-6.013 6.592-12.345M181.964 115.5c0 5.897 2.61 11.993 4.036 13.335 0 0-16.28 39.301-18.74 42.665-5.321-9.61-20.117-35.41-19.221-42.232 0 0 4.407-8.92 4.148-13.768h29.777z" transform="translate(-22 16.5)"/>
                <path fill="#8AB6DC" d="M136 67.066c7.674.503 14.763-11.539 18.197-24.202 11.775 19.287 27.377 26.027 44.417 25.619 2.026-16.286-4.58-29.71-4.58-29.71L172.743 26.5l-17.073 2.533-17.956 13.15L136 67.066z" transform="translate(-22 16.5)"/>
                <path fill="#415397" d="M185 76.5c0 1.657-1.343 3-3 3s-3-1.343-3-3 1.343-3 3-3 3 1.343 3 3M156 76.5c0 1.657-1.343 3-3 3s-3-1.343-3-3 1.343-3 3-3 3 1.343 3 3" transform="translate(-22 16.5)"/>
                <path stroke="#415397" stroke-linecap="round" stroke-linejoin="round" stroke-width="3" d="M167.279 72.5c0 1.618-2.525 18.186-2.26 18.962.266.776 4.585 1.36 5.981.841" transform="translate(-22 16.5)"/>
                <path stroke="#01417E" stroke-linecap="round" stroke-linejoin="round" stroke-width="3" d="M165 103.5c1.264.84 4.305 1.58 7 .345" transform="translate(-22 16.5)"/>
                <path fill="#FBFFFF" d="M145.832 34.115c.716 1.895 2.821 2.853 4.722 2.16 7.029-2.561 11.503-3.145 18.53-3.018 5.433.099 12.297 1.726 16.228 2.786 1.808.487 3.693-.454 4.388-2.195l9.034-22.622c.731-1.83-.095-3.91-1.884-4.73-5.111-2.344-15.942-6.42-28.638-5.96-14.966.542-25.063 3.033-29.762 6.6-1.302.987-1.787 2.72-1.21 4.248l8.592 22.731z" transform="translate(-22 16.5)"/>
                <path fill="#415397" d="M166 28.5L170 28.5 170 6.5 166 6.5z" transform="translate(-22 16.5)"/>
                <path fill="#415397" d="M157 19.5L179 19.5 179 15.5 157 15.5z" transform="translate(-22 16.5)"/>
                <path fill="#FBECDD" d="M234 107.647c.143.464.898 2.626 2.829 3.486.813.362 1.75.454 2.796.286.286-.516.548-1.034.755-1.56 1.047-2.678.595-5.544-.085-8.359-1.959.635-3.728 1.513-4.901 2.73-.957.992-1.414 2.11-1.393 3.417" transform="translate(-22 16.5)"/>
                <path stroke="#8AB6DC" stroke-linecap="round" stroke-linejoin="round" stroke-width="5" d="M286 203.5c43.329 48.827 25.266 142 25.266 142M225 360.5c21.761-57.025 16.421-141 16.421-141M13 272.5c18.663-8.138 40-27 40-27M33 356.23c41.681 16.4 75-19.73 75-19.73" transform="translate(-22 16.5)"/>
                <path fill="#FBFFFF" d="M289.784 237.335c5.541-7.993 5.622-18.565.234-26.663-13.356-20.075-23.581-38.924-25.563-49.671-2.14-13.137-.124-25.876 6.042-38.03l.028-.054.035-.052c.938-1.368 3.196-5.457 2.406-7.922-.274-.857-.906-1.453-1.934-1.826-.026-.008-.791-.237-2.094.463-2.204 1.184-6.546 5.435-10.961 20.556.86 5.147 1.575 9.76 1.634 10.137.08.515-.272.996-.784 1.077-.213.033-.42-.008-.595-.104-.248-.136-.433-.382-.479-.683-.015-.092-.729-4.688-1.594-9.878-.108-.188-.148-.411-.107-.636-.85-5.071-1.822-10.551-2.419-12.883-.105-.456-2.455-10.775.469-19.111l.06-.163c.021-.055.043-.11.06-.167 1.13-3.627-1.25-4.845-2.326-5.201-.252-.084-.488-.134-.714-.173-.26-.044-.505-.068-.723-.067-.39.022-.876.14-1.313.512-.074.124-.174.224-.29.3-.143.176-.274.393-.39.648-.089.296-.175.531-.24.693-.028.11-.052.233-.074.356-.043.307-.08.616-.114.924-1.011 9.314 1.74 19.042 1.948 19.76 3.162 7.733 5.157 25.91 5.24 26.682.057.516-.317.982-.834 1.038-.198.022-.388-.02-.551-.11-.26-.141-.45-.407-.485-.725-.02-.187-2.055-18.753-5.127-26.212l-.031-.088c-.14-.464-3.407-11.5-1.855-21.925l.02-.137.06-.126c.01-.02 1.008-2.21.191-3.694-.195-.355-.496-.65-.893-.884-1.603-1.253-5.059-2.377-7.52 7.83-.044.17-.114.32-.154.498-.007.03-.05.04-.075.052-.853 2.802-.93 7.17-.438 12.574l1.109 7.853c1.603.582 3.074 1.441 4.403 2.585 3.207 2.76 5.598 7.24 6.913 12.96.983 4.27 1.03 7.693 1.031 7.837.006.521-.41.947-.929.953-.52.006-.945-.41-.95-.931-.003-.133-.237-13.325-7.295-19.392-2.922-2.512-6.668-3.472-11.13-2.85-.9.262-12.003 3.582-14.763 8.807-.629 1.191-.752 2.362-.373 3.573.262.392 1.568 2.196 3.623 2.458 1.695.215 3.546-.647 5.5-2.563l.042-.04c.19-.164 4.693-4.014 9.197-2.975 2.459.567 4.386 2.444 5.727 5.58l.059.138.013.15c.047.53 1.073 13.054-4.992 20.152-2.42 2.83-5.632 4.4-9.55 4.66l-.154-.002c-.29-.028-7.115-.843-7.702-13.7l.004-.125c.006-.082.675-8.293-2.431-11.481-.855-.878-1.912-1.266-3.23-1.184l-.093.001c-.046 0-1.445.006-2.667 1.579-1.805 2.318-3.253 7.88.217 21.275l-.002.134c.317 3.108 4.245 13.84 17.05 32.311l7.86 9.685c.215.31 6.191 13.68 15.044 32.31 7.796 16.406 30.373 18.251 40.719 3.327" transform="translate(-22 16.5)"/>
                <path fill="#BEDAF2" d="M190.952 90.586c-19.48 3.284-36.021 1.588-44.92.083-3.679-.622-7.032 2.191-7.032 5.891v14.462c0 2.027 1.032 3.917 2.749 5.015 7.09 4.537 27.265 14.315 53.172-.141 1.9-1.06 3.079-3.053 3.079-5.215V96.473c0-3.705-3.365-6.507-7.048-5.887" transform="translate(-22 16.5)"/>
                <path stroke="#BDDAF3" stroke-linecap="round" stroke-width="4" d="M136 67.5L143 90.5M199 67.5L193 90.5" transform="translate(-22 16.5)"/>
                <path stroke="#8AB6DC" stroke-linecap="round" stroke-linejoin="round" stroke-width="3" d="M193 97.5c-7.995 2.282-16.326 3.686-24.69 3.926-7.3.21-17.145.258-23.31-3.926M193 104.5c-11 6.482-38.717 6.482-48 0M193 112.5c-7.962 3.044-16.364 4.699-24.794 4.93-7.506.207-16.865.277-23.206-4.761" transform="translate(-22 16.5)"/>
            </g>
        </g>
    </g>
</svg>
